<?xml version="1.0" standalone="no"?>
<!DOCTYPE svg PUBLIC "-//W3C//DTD SVG 1.1//EN" "http://www.w3.org/Graphics/SVG/1.1/DTD/svg11.dtd" >
<svg>
<metadata>
Created by FontForge 20090914 at Mon Sep 19 18:37:13 2022
 By www-data
Copyright &#194;&#169; 2019 by Mathieu Desjardins. All rights reserved.
</metadata>
<defs>
<font id="NeueMachina-Ultralight" horiz-adv-x="968" >
  <font-face 
    font-family="Neue Machina Ultralight"
    font-weight="200"
    font-stretch="normal"
    units-per-em="1000"
    panose-1="0 0 3 0 0 0 0 0 0 0"
    ascent="800"
    descent="-200"
    x-height="492"
    cap-height="705"
    bbox="-389 -230 1513 970.001"
    underline-thickness="50"
    underline-position="-125"
    unicode-range="U+0020-U+277E"
  />
<missing-glyph horiz-adv-x="483" 
d="M396 735v-965h-306v965h306zM321 670h-159v-31h63v-36h-64v-32h160v32h-63v36h63v31zM258 546h-97v-100h160v32h-63v68zM225 513v-35h-32v35h32zM321 419h-160v-31h64v-36h-64v-32h97v68h63v31zM321 362h-31v-64h-129v-33h160v97zM321 244h-96v-54h33v22h32v-45h-97v77
h-32v-109h160v109zM321 77h-160v-109h160v109zM290 45v-45h-97v45h97zM321 -54h-160v-32h68l-68 -46v-31h160v31h-98l67 46h31v32z" />
    <glyph glyph-name="f_f" unicode="ff" horiz-adv-x="687" 
d="M576 707c-35.333 0 -59.5 -8.16699 -72.5 -24.5s-19.5 -42.833 -19.5 -79.5v-111h144v-28h-144v-436h144v-28h-577v28h112v436h-112v28h112v61c0 41.333 8.33301 72.5 25 93.5s47.667 31.5 93 31.5h183c18.667 38 54 57 106 57h86v-28h-80zM450 492v111
c0 16 1.66699 31.667 5 47h-174c-32.667 0 -55.5 -7.66699 -68.5 -23s-19.5 -40 -19.5 -74v-61h257zM450 28v436h-257v-436h257z" />
    <glyph glyph-name="f_f_i" unicode="ffi" horiz-adv-x="957" 
d="M775 28l141 -0.000976562v-28h-865v28h112v436h-112v28h112v61c0 41.333 8.33301 72.5 25 93.5s47.667 31.5 93 31.5h177c15.333 46.667 50.333 69 105 67l205 -10v-28l-198 10c-34.667 1.33301 -59.167 -7.83398 -73.5 -27.501s-21.5 -48.5 -21.5 -86.5v-107l248 6
c20 0.666992 33.667 -3.66602 41 -12.999s11 -24.666 11 -45.999v-415zM193 552.999v-61h133l121 3v108c0 18 1.33301 33.667 4 47h-170c-32.667 0 -55.5 -7.66699 -68.5 -23s-19.5 -40 -19.5 -74zM749 27.999v447l-274 -7v-440h274zM447 27.999v439l-102 -3h-152v-436h254z
" />
    <glyph glyph-name="f_i" unicode="fi" horiz-adv-x="683" 
d="M501 28h140v-28h-590v28h122v439l-122 -3v28l122 3v108c0 97.333 38.667 144.666 116 141.999l205 -10v-28l-199 10c-34.667 1.33301 -59 -7.83398 -73 -27.501s-21 -48.5 -21 -86.5v-107l248 6c20 0.666992 33.667 -3.66602 41 -12.999s11 -24.666 11 -45.999v-415z
M475 28v447l-274 -7v-440h274z" />
    <glyph glyph-name=".notdef" horiz-adv-x="483" 
d="M396 735v-965h-306v965h306zM321 670h-159v-31h63v-36h-64v-32h160v32h-63v36h63v31zM258 546h-97v-100h160v32h-63v68zM225 513v-35h-32v35h32zM321 419h-160v-31h64v-36h-64v-32h97v68h63v31zM321 362h-31v-64h-129v-33h160v97zM321 244h-96v-54h33v22h32v-45h-97v77
h-32v-109h160v109zM321 77h-160v-109h160v109zM290 45v-45h-97v45h97zM321 -54h-160v-32h68l-68 -46v-31h160v31h-98l67 46h31v32z" />
    <glyph glyph-name="space" unicode=" " horiz-adv-x="363" 
 />
    <glyph glyph-name="exclam" unicode="!" horiz-adv-x="316" 
d="M141 705h35l3 -473h-41zM158 -10c-18 0 -33.667 6.5 -47 19.5s-20 28.833 -20 47.5c0 18 6.66699 33.5 20 46.5s29 19.5 47 19.5c17.333 0 32.833 -6.5 46.5 -19.5s20.5 -28.5 20.5 -46.5c0 -18.667 -6.83301 -34.5 -20.5 -47.5s-29.167 -19.5 -46.5 -19.5z" />
    <glyph glyph-name="quotedbl" unicode="&#x22;" horiz-adv-x="335" 
d="M91 722h35v-214h-35v214zM196 722h35v-214h-35v214z" />
    <glyph glyph-name="numbersign" unicode="#" horiz-adv-x="1062" 
d="M970 450h-216l-80 -258h205v-42h-218l-93 -299l-33 9l90 290h-294l-93 -299l-33 9l90 290h-204v42h217l80 258h-206v42h219l88 282l33 -9l-85 -273h294l88 282l33 -9l-85 -273h203v-42zM638 192l80 258h-294l-80 -258h294z" />
    <glyph glyph-name="dollar" unicode="$" horiz-adv-x="735" 
d="M389 378l44.499 -13c7 -2 20.667 -6.33301 41 -13s34 -11.667 41 -15l34 -16.5c15.667 -7.66699 26.667 -14.5 33 -20.5l24.5 -24c10 -10 17 -20 21 -30s7.66699 -21.5 11 -34.5s5 -27.167 5 -42.5c0 -54.667 -18.667 -98.167 -56 -130.5s-103 -48.5 -197 -48.5h-2v-138
h-41v139c-96 6 -162.833 32 -200.5 78s-56.5 109.333 -56.5 190h35c0 -85.333 19.333 -145.5 58 -180.5s93.334 -54.833 164.001 -59.5v337l-4 1c-73.333 20.667 -128.5 45.5 -165.5 74.5s-55.5 69.5 -55.5 121.5c0 106 75 160 225 162v138h41v-139
c79.333 -6.66699 136.833 -33.334 172.5 -80.001s53.5 -98.667 53.5 -156h-35c0 60.667 -17.833 108.834 -53.5 144.501s-81.5 56.5 -137.5 62.5v-307zM157.999 555c0 -43.333 15.833 -76.833 47.5 -100.5s79.167 -45.167 142.5 -64.5v297
c-126.667 -1.33301 -190 -45.333 -190 -132zM388.999 18c70.667 0 124.999 10.833 162.999 32.5s57 59.167 57 112.5c0 23.333 -4.5 44.5 -13.5 63.5s-19.667 34.333 -32 46s-29.666 22.5 -51.999 32.5s-41.5 17.5 -57.5 22.5s-37.667 10.833 -65 17.5v-327z" />
    <glyph glyph-name="percent" unicode="%" horiz-adv-x="1131" 
d="M686 817l33 -9l-284 -914l-33 10zM283 361c-56.667 0 -102.834 18.5 -138.501 55.5s-53.5 82.5 -53.5 136.5s17.833 99.5 53.5 136.5s81.834 55.5 138.501 55.5s102.834 -18.5 138.501 -55.5s53.5 -82.5 53.5 -136.5s-17.833 -99.5 -53.5 -136.5
s-81.834 -55.5 -138.501 -55.5zM283 396c45.333 0 83 15.333 113 46s45 67.667 45 111s-15 80.333 -45 111s-67.667 46 -113 46s-82.833 -15.333 -112.5 -46s-44.5 -67.667 -44.5 -111s14.833 -80.333 44.5 -111s67.167 -46 112.5 -46zM848 10
c-56.667 0 -102.834 18.5 -138.501 55.5s-53.5 82.5 -53.5 136.5s17.833 99.5 53.5 136.5s81.834 55.5 138.501 55.5s102.834 -18.5 138.501 -55.5s53.5 -82.5 53.5 -136.5s-17.833 -99.5 -53.5 -136.5s-81.834 -55.5 -138.501 -55.5zM848 45
c45.333 0 82.833 15.333 112.5 46s44.5 67.667 44.5 111s-14.833 80.333 -44.5 111s-67.167 46 -112.5 46s-82.833 -15.333 -112.5 -46s-44.5 -67.667 -44.5 -111s14.833 -80.333 44.5 -111s67.167 -46 112.5 -46z" />
    <glyph glyph-name="ampersand" unicode="&#x26;" horiz-adv-x="919" 
d="M828 -18l-27.999 -17l-106 135c-76 -89.333 -176.667 -134 -302 -134c-86.667 0 -158.5 24.5 -215.5 73.5s-85.5 112.167 -85.5 189.5c0 74 21.5 132.667 64.5 176s97.5 65 163.5 65c25.333 0 47.166 -3.16699 65.499 -9.5s30.5 -13.833 36.5 -22.5v13l-172 218l-2 36
h514v-28h-468l402 -523c58 89.333 87 205.333 87 348h34c0 -154 -33.333 -278.667 -100 -374zM392.001 -6c118.667 0 212.667 43.668 282 131.001l-174 222c-27.333 35.333 -54 59.666 -80 72.999s-59 20 -99 20c-60 0 -107.5 -18.5 -142.5 -55.5
s-52.5 -88.167 -52.5 -153.5c0 -72 24.833 -129.5 74.5 -172.5s113.5 -64.5 191.5 -64.5z" />
    <glyph glyph-name="quotesingle" unicode="'" horiz-adv-x="217" 
d="M91 722h35v-214h-35v214z" />
    <glyph glyph-name="parenleft" unicode="(" horiz-adv-x="423" 
d="M331 -99v-51c-160 36.667 -240 179.334 -240 428.001c0 248 78.333 390.333 235 427v-51c-58 -11.333 -103.667 -50.333 -137 -117s-50 -153 -50 -259c0 -106.667 17 -193.334 51 -260.001s81 -105.667 141 -117z" />
    <glyph glyph-name="parenright" unicode=")" horiz-adv-x="423" 
d="M91 -99c60 11.333 107 50.333 141 117s51 153.334 51 260.001c0 106 -16.667 192.333 -50 259s-79 105.667 -137 117v51c156.667 -36.667 235 -179 235 -427c0 -248.667 -80 -391.334 -240 -428.001v51z" />
    <glyph glyph-name="asterisk" unicode="*" horiz-adv-x="501" 
d="M71 589l13 41l127 -42l27 -18l-8 31v134h41v-134l-8 -32l26 19l128 40l12 -39l-127 -41l-30 -3l24 -17l78 -109l-34 -24l-79 108l-11 28l-12 -28l-79 -109l-33 24l79 109l24 18l-30 3z" />
    <glyph glyph-name="plus" unicode="+" horiz-adv-x="621" 
d="M530 258v-35h-202v-202h-35v202h-202v35h202v202h35v-202h202z" />
    <glyph glyph-name="comma" unicode="," horiz-adv-x="255" 
d="M133 149l31 -10l-82 -247l-31 9z" />
    <glyph glyph-name="hyphen" unicode="-" horiz-adv-x="621" 
d="M91 258h439v-35h-439v35z" />
    <glyph glyph-name="period" unicode="." horiz-adv-x="316" 
d="M158 -10c-18 0 -33.667 6.5 -47 19.5s-20 28.833 -20 47.5c0 18 6.66699 33.5 20 46.5s29 19.5 47 19.5c17.333 0 32.833 -6.5 46.5 -19.5s20.5 -28.5 20.5 -46.5c0 -18.667 -6.83301 -34.5 -20.5 -47.5s-29.167 -19.5 -46.5 -19.5z" />
    <glyph glyph-name="slash" unicode="/" horiz-adv-x="460" 
d="M356 814l33 -9l-285 -914l-33 9z" />
    <glyph glyph-name="zero" unicode="0" horiz-adv-x="703" 
d="M352 715c89.333 0 157.666 -33.833 204.999 -101.5s71 -154.5 71 -260.5c0 -106.667 -23.667 -193.834 -71 -261.501s-115.666 -101.5 -204.999 -101.5c-90 0 -158.667 33.833 -206 101.5s-71 154.834 -71 261.501c0 106 23.667 192.833 71 260.5s116 101.5 206 101.5z
M352 687c-79.333 0 -139.667 -31.167 -181 -93.5s-62 -142.5 -62 -240.5c0 -92 17.333 -167.333 52 -226l363 478c-42.667 54.667 -100 82 -172 82zM351.999 18c79.333 0 139.5 31.167 180.5 93.5s61.5 142.833 61.5 241.5c0 92 -17.333 167.333 -52 226l-364 -478
c42.667 -55.333 100.667 -83 174 -83z" />
    <glyph glyph-name="one" unicode="1" horiz-adv-x="423" 
d="M65 372c42.667 17.333 78.167 45.167 106.5 83.5s48 78 59 119s17.167 84.5 18.5 130.5h79v-705h-35v655l4 37h-14c-3.33301 -51.333 -11.5 -98.5 -24.5 -141.5s-35.333 -83.667 -67 -122s-71.167 -65.5 -118.5 -81.5z" />
    <glyph glyph-name="two" unicode="2" horiz-adv-x="653" 
d="M61 355c0 124.667 26.002 215.833 78.002 273.5s120.667 86.5 206 86.5c71.333 0 128.166 -20.667 170.499 -62s63.5 -99.666 63.5 -174.999c0 -72.667 -22.667 -140.667 -68 -204s-105.333 -115.333 -180 -156s-156.667 -67.334 -246 -80.001v-13l33 3h461v-28h-508v61
c14 2 30.5 5 49.5 9s44.167 11.167 75.5 21.5s61.833 22.333 91.5 36s60.5 31.667 92.5 54s59.667 46.833 83 73.5s42.666 59.167 57.999 97.5s23 79.5 23 123.5c0 71.333 -17.5 124.333 -52.5 159s-83.167 52 -144.5 52c-74.667 0 -135.167 -25.667 -181.5 -77
s-69.5 -136.333 -69.5 -255h-35z" />
    <glyph glyph-name="three" unicode="3" horiz-adv-x="656" 
d="M78 269h34.999c0 -87.333 19.167 -151 57.5 -191s96.166 -60 173.499 -60c137.333 0 206 62 206 186c0 50.667 -14 89.667 -42 117s-67.333 41 -118 41h-98v28h98c48.667 0 85.834 12.167 111.501 36.5s38.5 56.833 38.5 97.5c0 50 -15.667 89.667 -47 119
s-81 44 -149 44c-147.333 0 -221 -69.333 -221 -208h-35c0 74 20.833 131.833 62.5 173.5s106.167 62.5 193.5 62.5c78.667 0 136.834 -17.5 174.501 -52.5s56.5 -78.833 56.5 -131.5c0 -38 -9.16699 -70.5 -27.5 -97.5s-48.5 -43.833 -90.5 -50.5v-13
c85.333 -20.667 128 -78 128 -172c0 -62.667 -20 -113 -60 -151s-100.333 -57 -181 -57c-177.333 0 -266 93 -266 279z" />
    <glyph glyph-name="four" unicode="4" horiz-adv-x="644" 
d="M583 206v-28.0039h-100v-178h-34v178h-378v59c85.333 52 159 118.333 221 199s99.333 170.334 112 269.001h34c-9.33301 -46.667 -22 -90.667 -38 -132s-37.5 -83.166 -64.5 -125.499s-61.5 -83.166 -103.5 -122.499s-91 -75.666 -147 -108.999v-14l33 4h331v316h34v-316
h100z" />
    <glyph glyph-name="five" unicode="5" horiz-adv-x="689" 
d="M75 246l33.998 -0.00195312c0 -73.333 20.5 -129.666 61.5 -168.999s99.167 -59 174.5 -59c71.333 0 128.833 21.667 172.5 65s65.5 103 65.5 179c0 66 -15.667 117.833 -47 155.5s-78.333 56.5 -141 56.5c-82 0 -148.333 -35.667 -199 -107l-60 24v314h435v-28h-400
v-240l-4 -36l12 -7c53.333 72 129 108 227 108c66.667 0 118.667 -22.667 156 -68s56 -105.666 56 -180.999c0 -77.333 -25.167 -140.5 -75.5 -189.5s-116.166 -73.5 -197.499 -73.5c-87.333 0 -154.166 23.167 -200.499 69.5s-69.5 108.5 -69.5 186.5z" />
    <glyph glyph-name="six" unicode="6" horiz-adv-x="667" 
d="M71 307c0 46.667 3.16602 90.1689 9.49902 130.502s17.5 79.333 33.5 117s36 69.167 60 94.5s55.167 44.333 93.5 57s81.833 15.667 130.5 9l143 -20v-28l-157 20c-40 4.66699 -76.167 1.16699 -108.5 -10.5s-58.666 -28.334 -78.999 -50.001s-37.333 -47.167 -51 -76.5
s-23.5 -58.5 -29.5 -87.5s-9 -57.5 -9 -85.5l-13 -37h13c12.667 47.333 40.5 86.166 83.5 116.499s95.167 45.5 156.5 45.5c72 0 130.333 -24 175 -72s67 -108 67 -180c0 -77.333 -22 -140 -66 -188s-105 -72 -183 -72c-84 0 -149.833 27.5 -197.5 82.5
s-71.5 133.167 -71.5 234.5zM105.999 254.002c0 -64.667 20.8311 -120.167 62.498 -166.5s98.834 -69.5 171.501 -69.5c67.333 0 119.833 20.833 157.5 62.5s56.5 98.167 56.5 169.5c0 65.333 -19.167 119 -57.5 161s-89.166 63 -152.499 63
c-68.667 0 -125.5 -20.667 -170.5 -62s-67.5 -94 -67.5 -158z" />
    <glyph glyph-name="seven" unicode="7" horiz-adv-x="572" 
d="M169 0c0 153.333 28.168 283.833 84.501 391.5s145.166 199.5 266.499 275.5v13l-36 -3h-446v28h496v-66c-105.333 -59.333 -186 -143.5 -242 -252.5s-84 -237.833 -84 -386.5h-39z" />
    <glyph glyph-name="eight" unicode="8" horiz-adv-x="660" 
d="M68 191c0 46.667 11.002 85.332 33.002 115.999s59 55.334 111 74.001v14c-38.667 16 -65.667 35.667 -81 59s-23 53.666 -23 90.999c0 54 19.5 95.833 58.5 125.5s93.5 44.5 163.5 44.5c69.333 0 123.666 -14.833 162.999 -44.5s59 -71.5 59 -125.5
c0 -37.333 -7.83301 -67.666 -23.5 -90.999s-42.834 -43 -81.501 -59v-14c52 -18.667 89.167 -43 111.5 -73s33.5 -69 33.5 -117c0 -54.667 -23.167 -101.834 -69.5 -141.501s-110.5 -59.5 -192.5 -59.5c-82.667 0 -147 19.833 -193 59.5s-69 86.834 -69 141.501z
M143.002 543.998c0 -52 16.167 -88.833 48.5 -110.5s78.5 -32.5 138.5 -32.5s106.167 10.833 138.5 32.5s48.5 58.5 48.5 110.5s-16.167 88.833 -48.5 110.5s-78.5 32.5 -138.5 32.5s-106.167 -10.833 -138.5 -32.5s-48.5 -58.5 -48.5 -110.5zM103.002 195.998
c0 -54 19 -97.167 57 -129.5s94.667 -48.5 170 -48.5c74.667 0 131.167 16.167 169.5 48.5s57.5 75.5 57.5 129.5c0 53.333 -19.167 96.166 -57.5 128.499s-94.833 48.5 -169.5 48.5c-75.333 0 -132 -16.167 -170 -48.5s-57 -75.166 -57 -128.499z" />
    <glyph glyph-name="nine" unicode="9" horiz-adv-x="667" 
d="M596 398c0 -46.667 -3.16602 -90.1689 -9.49902 -130.502s-17.5 -79.333 -33.5 -117s-36 -69.167 -60 -94.5s-55.167 -44.333 -93.5 -57s-81.833 -15.667 -130.5 -9l-143 20v28l157 -20c40 -4.66699 76.167 -1.16699 108.5 10.5s58.666 28.334 78.999 50.001
s37.333 47.167 51 76.5s23.5 58.5 29.5 87.5s9 57.5 9 85.5l13 37h-13c-12.667 -47.333 -40.5 -86.166 -83.5 -116.499s-95.167 -45.5 -156.5 -45.5c-72 0 -130.333 24 -175 72s-67 108 -67 180c0 77.333 22 140 66 188s105 72 183 72c84 0 149.833 -27.5 197.5 -82.5
s71.5 -133.167 71.5 -234.5zM561.001 450.998c0 64.667 -20.8311 120.167 -62.498 166.5s-98.834 69.5 -171.501 69.5c-67.333 0 -119.833 -20.833 -157.5 -62.5s-56.5 -98.167 -56.5 -169.5c0 -65.333 19.167 -119 57.5 -161s89.166 -63 152.499 -63
c68.667 0 125.5 20.667 170.5 62s67.5 94 67.5 158z" />
    <glyph glyph-name="colon" unicode=":" horiz-adv-x="316" 
d="M158 368c-18 0 -33.667 6.66699 -47 20s-20 29 -20 47s6.66699 33.667 20 47s29 20 47 20c17.333 0 32.833 -6.66699 46.5 -20s20.5 -29 20.5 -47s-6.83301 -33.667 -20.5 -47s-29.167 -20 -46.5 -20zM158 -10c-18 0 -33.667 6.5 -47 19.5s-20 28.833 -20 47.5
c0 18 6.66699 33.5 20 46.5s29 19.5 47 19.5c17.333 0 32.833 -6.5 46.5 -19.5s20.5 -28.5 20.5 -46.5c0 -18.667 -6.83301 -34.5 -20.5 -47.5s-29.167 -19.5 -46.5 -19.5z" />
    <glyph glyph-name="semicolon" unicode=";" horiz-adv-x="306" 
d="M148 368c-18 0 -33.667 6.66699 -47 20s-20 29 -20 47s6.66699 33.667 20 47s29 20 47 20c17.333 0 32.833 -6.66699 46.5 -20s20.5 -29 20.5 -47s-6.83301 -33.667 -20.5 -47s-29.167 -20 -46.5 -20zM133 149l31 -10l-82 -247l-31 9z" />
    <glyph glyph-name="less" unicode="&#x3c;" horiz-adv-x="619" 
d="M91 220v54l417 136l20 -34l-387 -129l387 -130l-20 -34z" />
    <glyph glyph-name="equal" unicode="=" horiz-adv-x="621" 
d="M91 355h439v-35h-439v35zM91 161h439v-34h-439v34z" />
    <glyph glyph-name="greater" unicode="&#x3e;" horiz-adv-x="619" 
d="M528 220l-417 -137l-20 34l387 130l-387 129l20 34l417 -136v-54z" />
    <glyph glyph-name="question" unicode="?" horiz-adv-x="502" 
d="M71 487c0 68 17.166 121.334 51.499 160.001s80.833 58 139.5 58c52 0 93.167 -15 123.5 -45s45.5 -73 45.5 -129c0 -66 -26.667 -120.167 -80 -162.5s-122.666 -71.5 -207.999 -87.5v-8l22 1h202v-42h-238v85c2 0.666992 10.833 3.16699 26.5 7.5
s32.167 9.16602 49.5 14.499s37 13.833 59 25.5s41.5 25 58.5 40s31.333 34.833 43 59.5s17.5 51.667 17.5 81c0 79.333 -39.667 119 -119 119c-96.667 0 -145 -59 -145 -177h-48zM242.999 -9.99902c-18 0 -33.5 6.5 -46.5 19.5s-19.5 28.833 -19.5 47.5
c0 18 6.5 33.5 19.5 46.5s28.5 19.5 46.5 19.5c17.333 0 32.833 -6.5 46.5 -19.5s20.5 -28.5 20.5 -46.5c0 -18.667 -6.83301 -34.5 -20.5 -47.5s-29.167 -19.5 -46.5 -19.5z" />
    <glyph glyph-name="at" unicode="@" horiz-adv-x="1031" 
d="M689 100v54.999l3 40h-13c-10 -46 -33.333 -82.667 -70 -110s-83 -41 -139 -41c-72.667 0 -131.334 24.5 -176.001 73.5s-67 110.5 -67 184.5s22.333 135.333 67 184s103.334 73 176.001 73c56 0 102.333 -13.667 139 -41s60 -64 70 -110h13l-3 37v65h42v-422h42
c26.667 0 49 6.16699 67 18.5s31.167 28.833 39.5 49.5s14.166 40.667 17.499 60s5 40 5 62c0 66.667 -16.5 129 -49.5 187s-79.333 104.833 -139 140.5s-125.167 53.5 -196.5 53.5c-109.333 0 -201.333 -35.5 -276 -106.5s-112 -157.167 -112 -258.5
c0 -108 37.333 -195.667 112 -263s175.667 -97.666 303 -90.999l306 13v-41l-306 -14c-143.333 -6.66699 -254.666 27.333 -333.999 102s-119 172.667 -119 294c0 112 39.833 207.667 119.5 287s181.834 119 306.501 119c125.333 0 227.166 -40.833 305.499 -122.5
s117.5 -181.5 117.5 -299.5c0 -24.667 -2 -48.5 -6 -71.5s-11 -47.5 -21 -73.5s-26 -46.833 -48 -62.5s-49 -23.5 -81 -23.5h-40c-17.333 0 -30.833 4.66699 -40.5 14s-14.5 22.333 -14.5 39zM484 78.999c56.667 0 102.334 19.001 137.001 57.001s52 93.333 52 166
c0 72 -17.333 127 -52 165s-80.334 57 -137.001 57c-59.333 0 -110.166 -19.333 -152.499 -58s-63.5 -93.334 -63.5 -164.001s21.167 -125.5 63.5 -164.5s93.166 -58.5 152.499 -58.5z" />
    <glyph glyph-name="A" unicode="A" horiz-adv-x="637" 
d="M563 0l-105 306h-279l-105 -306h-33l242 705h71l242 -705h-33zM189 334h259l-123 358h-13z" />
    <glyph glyph-name="B" unicode="B" horiz-adv-x="613" 
d="M81 0l0.000976562 705h150c86 0 150.667 -12.5 194 -37.5s65 -70.167 65 -135.5c0 -42 -11.833 -77.667 -35.5 -107s-53.167 -45 -88.5 -47v-14c54.667 -0.666992 97.667 -16.5 129 -47.5s47 -74.167 47 -129.5c0 -64.667 -20.333 -112 -61 -142
s-102.334 -45 -185.001 -45h-215zM116.001 381h107.998c78.667 0 136.834 10.333 174.501 31s56.5 59.667 56.5 117c0 26.667 -3.66699 49.167 -11 67.5s-16.666 32.833 -27.999 43.5s-27.666 18.667 -48.999 24s-42.333 8.83301 -63 10.5s-47.334 2.5 -80.001 2.5h-108
v-296zM115.999 28l173 0.000976562c73.333 0 128 11.667 164 35s54 65.666 54 126.999c0 108.667 -72.667 163 -218 163h-173v-325z" />
    <glyph glyph-name="C" unicode="C" horiz-adv-x="754" 
d="M71 353c0 105.333 27.667 192.001 83 260.001s131 102 227 102c84.667 0 153.5 -25 206.5 -75s84.833 -119 95.5 -207h-35c-8 81.333 -34.5 144 -79.5 188s-107.5 66 -187.5 66c-90.667 0 -159.167 -31.167 -205.5 -93.5s-69.5 -142.5 -69.5 -240.5
c0 -98.667 23.167 -179.167 69.5 -241.5s114.833 -93.5 205.5 -93.5c80 0 142.5 22.167 187.5 66.5s71.5 107.166 79.5 188.499h35c-10.667 -88 -42.5 -157.167 -95.5 -207.5s-121.833 -75.5 -206.5 -75.5c-96 0 -171.667 34 -227 102s-83 155 -83 261z" />
    <glyph glyph-name="D" unicode="D" horiz-adv-x="689" 
d="M283 705c36 0 68.499 -2.33301 97.499 -7s58.667 -14.5 89 -29.5s55.833 -35 76.5 -60s37.667 -59.167 51 -102.5s20 -94.333 20 -153s-6.66699 -109.667 -20 -153s-30.166 -77.5 -50.499 -102.5s-45.833 -45.167 -76.5 -60.5s-60.5 -25.333 -89.5 -30s-61.5 -7 -97.5 -7
h-202v705h202zM282.999 28c30 0 56.667 1.66797 80 5.00098s49.5 11.5 78.5 24.5s53.167 30.667 72.5 53s35.666 54.166 48.999 95.499s20 90.333 20 147s-6.66699 105.667 -20 147s-29.666 73 -48.999 95s-43.5 39.5 -72.5 52.5s-55.167 21.167 -78.5 24.5s-50 5 -80 5
h-167v-649h167z" />
    <glyph glyph-name="E" unicode="E" horiz-adv-x="539" 
d="M81 0v705h397v-28h-362v-310h312v-28h-312v-311h362v-28h-397z" />
    <glyph glyph-name="F" unicode="F" horiz-adv-x="579" 
d="M81 0v705h437v-28h-402v-328l341 20v-29l-341 -20v-320h-35z" />
    <glyph glyph-name="G" unicode="G" horiz-adv-x="770" 
d="M71 353c0 104.667 28.498 191.168 85.498 259.501s134.833 102.5 233.5 102.5c158 0 249 -87.333 273 -262h-35c-8.66699 73.333 -31.667 130.666 -69 171.999s-93.666 62 -168.999 62c-90.667 0 -160.667 -31.667 -210 -95s-74 -143 -74 -239
c0 -48 4.33301 -91.333 13 -130s22.5 -73.834 41.5 -105.501s45.5 -56.167 79.5 -73.5s74.667 -26 122 -26c82.667 0 143.167 25.667 181.5 77s55.833 130.333 52.5 237h-288v34h336c16.667 0 28.334 -2.83301 35.001 -8.5s10 -15.167 10 -28.5v-329h-39v275l4 78h-14
c-0.666992 -127.333 -24 -219.666 -70 -276.999s-114.667 -86 -206 -86c-66 0 -121.5 16.5 -166.5 49.5s-77.333 76 -97 129s-29.5 114.5 -29.5 184.5z" />
    <glyph glyph-name="H" unicode="H" horiz-adv-x="685" 
d="M569 705h34v-705h-34v337h-453v-337h-35v705h35v-340h453v340z" />
    <glyph glyph-name="I" unicode="I" horiz-adv-x="489" 
d="M418 677h-156v-649h156v-28h-347v28h156v649h-156v28h347v-28z" />
    <glyph glyph-name="J" unicode="J" horiz-adv-x="435" 
d="M194 -10l-153 10v28l153 -10c56.667 -3.33301 93.334 15.167 110.001 55.5s25 123.833 25 250.5v363l-168 -10v28l158 10c14 0.666992 25 -3.16602 33 -11.499s12 -19.5 12 -33.5v-326v-7v-60c0 -13.333 -0.333008 -31.5 -1 -54.5s-1.83398 -40.5 -3.50098 -52.5
l-6.5 -45.5c-2.66699 -18.333 -6.16699 -32.333 -10.5 -42l-15.5 -33.5c-6 -12.667 -13.167 -22 -21.5 -28s-17.833 -12.167 -28.5 -18.5s-23 -10.333 -37 -12s-29.333 -1.83398 -46 -0.500977z" />
    <glyph glyph-name="K" unicode="K" horiz-adv-x="612" 
d="M570 705l-433 -352l433 -353h-48l-406 331v-331h-35v705h35v-331l406 331h48z" />
    <glyph glyph-name="L" unicode="L" horiz-adv-x="519" 
d="M126 -10c-14 -0.666992 -25 3.16699 -33 11.5s-12 19.5 -12 33.5v670h35v-687l362 10v-28z" />
    <glyph glyph-name="M" unicode="M" horiz-adv-x="841" 
d="M81 0v705h74l259 -692h13l259 692h74v-705h-35v658l4 34h-14l-255 -692h-78l-256 692h-13l3 -34v-658h-35z" />
    <glyph glyph-name="N" unicode="N" horiz-adv-x="717" 
d="M81 0v705h75l435 -692h13l-3 34v658h34v-705h-75l-434 692h-13l3 -34v-658h-35z" />
    <glyph glyph-name="O" unicode="O" horiz-adv-x="763" 
d="M71 353c0 105.333 27.833 192 83.5 260s131.5 102 227.5 102c95.333 0 170.833 -34 226.5 -102s83.5 -154.667 83.5 -260c0 -106 -27.833 -193 -83.5 -261s-131.167 -102 -226.5 -102c-96 0 -171.833 34 -227.5 102s-83.5 155 -83.5 261zM106 353
c0 -99.333 23.667 -180 71 -242s115.666 -93 204.999 -93s157.5 31 204.5 93s70.5 142.667 70.5 242c0 98.667 -23.5 179 -70.5 241s-115.167 93 -204.5 93s-157.666 -31 -204.999 -93s-71 -142.333 -71 -241z" />
    <glyph glyph-name="P" unicode="P" horiz-adv-x="584" 
d="M245 705c93.333 0 163 -16.666 209 -49.999s69 -90 69 -170c0 -80.667 -23 -137.834 -69 -171.501s-115.667 -50.5 -209 -50.5h-129v-263h-35v705h164zM242 291.001c37.333 0 69.5 2.50195 96.5 7.50195s52.5 14.167 76.5 27.5s42.167 33.166 54.5 59.499
s18.5 59.5 18.5 99.5c0 39.333 -6.16699 72.166 -18.5 98.499s-30.5 46 -54.5 59s-49.5 22 -76.5 27s-59.167 7.5 -96.5 7.5h-126v-386h126z" />
    <glyph glyph-name="Q" unicode="Q" horiz-adv-x="735" 
d="M350 -63c130.667 9.33301 278.671 -6 444.004 -46v-28c-218.667 49.333 -423.667 62.333 -615 39l-8 29c7.33301 1.33301 24.666 4.16602 51.999 8.49902s47 7.66602 59 9.99902l54 11c24 5 43.167 9.66699 57.5 14s29.666 9.83301 45.999 16.5s29.833 13.667 40.5 21
l-2 2c-28 -9.33301 -63.667 -14 -107 -14c-87.333 0 -159.166 34.333 -215.499 103s-84.5 154.334 -84.5 257.001c0 105.333 27.167 190.833 81.5 256.5s129.833 98.5 226.5 98.5c95.333 0 170.166 -34.167 224.499 -102.5s81.5 -154.833 81.5 -259.5
c0 -57.333 -8 -109.5 -24 -156.5s-36 -85.167 -60 -114.5s-51.833 -54.666 -83.5 -75.999s-60.834 -37 -87.501 -47s-53.334 -17.333 -80.001 -22zM379.004 31c86 0 152.667 28.168 200 84.501s71 135.5 71 237.5c0 97.333 -24.167 177.333 -72.5 240s-114.5 94 -198.5 94
c-84.667 0 -151.334 -30.333 -200.001 -91s-73 -139.334 -73 -236.001c0 -97.333 24.333 -176.5 73 -237.5s115.334 -91.5 200.001 -91.5z" />
    <glyph glyph-name="R" unicode="R" horiz-adv-x="633" 
d="M81 0v705h211c88.667 0 152.667 -13.833 192 -41.5s59 -79.5 59 -155.5c0 -100 -34.333 -157 -103 -171v-14h74c15.333 0 25.5 -2.33301 30.5 -7s7.5 -13.667 7.5 -27v-289h-35v304h-401v-304h-35zM116 332l176.002 -0.000976562c38 0 68.667 1.83301 92 5.5
s45.166 11.334 65.499 23.001s35.166 29.334 44.499 53.001s14 54.167 14 91.5c0 38 -4.5 68.667 -13.5 92s-24 40.666 -45 51.999s-43 18.833 -66 22.5s-53.5 5.5 -91.5 5.5h-176v-345z" />
    <glyph glyph-name="S" unicode="S" horiz-adv-x="655" 
d="M604 169c0 -54.667 -18.6611 -98.1611 -55.9941 -130.494s-103 -48.5 -197 -48.5c-58.667 0 -108 6.5 -148 19.5s-70.833 32 -92.5 57s-37 52.833 -46 83.5s-13.5 67 -13.5 109h35c0 -39.333 4.5 -73.5 13.5 -102.5s21.167 -52.167 36.5 -69.5s34.666 -31.333 57.999 -42
s47.166 -17.834 71.499 -21.501s52.166 -5.5 83.499 -5.5c70.667 0 125 10.833 163 32.5s57 59.167 57 112.5c0 17.333 -2.5 33.166 -7.5 47.499s-10.5 26.666 -16.5 36.999s-15.833 20.333 -29.5 30s-25 17.167 -34 22.5s-23.333 11.5 -43 18.5
s-33.834 11.833 -42.501 14.5s-24.5 6.83398 -47.5 12.501s-37.833 9.5 -44.5 11.5c-73.333 20.667 -128.5 45.5 -165.5 74.5s-55.5 69.5 -55.5 121.5c0 108 77.667 162 233 162c48 0 89.833 -7.5 125.5 -22.5s62.667 -34.667 81 -59s31.666 -49.5 39.999 -75.5
s12.5 -52.667 12.5 -80h-35c0 66.667 -21.333 118.167 -64 154.5s-96 54.5 -160 54.5c-132 0 -198 -44 -198 -132c0 -24 4.83301 -45 14.5 -63s25 -33.667 46 -47s42 -24.166 63 -32.499s48.5 -17.5 82.5 -27.5c8 -2.66699 22 -6.83398 42 -12.501
s34.167 -9.83398 42.5 -12.501s21.166 -7 38.499 -13s29.833 -10.833 37.5 -14.5s18.5 -9.16699 32.5 -16.5s24.167 -14 30.5 -20s13.833 -13.833 22.5 -23.5s15 -19.334 19 -29.001s7.5 -20.834 10.5 -33.501s4.5 -26.334 4.5 -41.001z" />
    <glyph glyph-name="T" unicode="T" horiz-adv-x="644" 
d="M592 705v-28h-252v-677h-35v677h-254v28h541z" />
    <glyph glyph-name="U" unicode="U" horiz-adv-x="634" 
d="M61 262v443h35v-465c0 -76 18.333 -132 55 -168s92 -54 166 -54s129.333 18 166 54s55 92 55 168v465h35v-443c0 -90 -20.5 -157.833 -61.5 -203.5s-105.833 -68.5 -194.5 -68.5c-89.333 0 -154.333 22.667 -195 68s-61 113.333 -61 204z" />
    <glyph glyph-name="V" unicode="V" horiz-adv-x="637" 
d="M41 705h33l238 -692h13l238 692h33l-242 -705h-71z" />
    <glyph glyph-name="W" unicode="W" horiz-adv-x="920" 
d="M41 705h31l164 -692h14l177 692h66l177 -692h14l164 692h31l-168 -705h-68l-176 692h-14l-176 -692h-68z" />
    <glyph glyph-name="X" unicode="X" horiz-adv-x="625" 
d="M41 0l249 341v24l-249 340h39l233 -323l232 323h39l-249 -340v-24l249 -341h-39l-232 324l-233 -324h-39z" />
    <glyph glyph-name="Y" unicode="Y" horiz-adv-x="620" 
d="M541 705h38l-251 -421v-284h-35v284l-252 421h38l225 -374v-37h13v37z" />
    <glyph glyph-name="Z" unicode="Z" horiz-adv-x="643" 
d="M61 0v76l507 591v13l-36 -3h-471v28h521v-76l-507 -591v-13l36 3h471v-28h-521z" />
    <glyph glyph-name="bracketleft" unicode="[" horiz-adv-x="413" 
d="M91 705h231v-41h-184v-773h184v-41h-231v855z" />
    <glyph glyph-name="backslash" unicode="\" horiz-adv-x="460" 
d="M104 814l285 -914l-33 -9l-285 914z" />
    <glyph glyph-name="bracketright" unicode="]" horiz-adv-x="413" 
d="M322 705v-855h-231v41h184v773h-184v41h231z" />
    <glyph glyph-name="asciicircum" unicode="^" horiz-adv-x="528" 
d="M392 393l-121 299h-13l-121 -299h-46l124 312h99l123 -312h-45z" />
    <glyph glyph-name="underscore" unicode="_" horiz-adv-x="581" 
d="M71 -60h439v-35h-439v35z" />
    <glyph glyph-name="grave" unicode="`" horiz-adv-x="449" 
d="M358 625l-10 -34l-257 75l10 34z" />
    <glyph glyph-name="a" unicode="a" horiz-adv-x="561" 
d="M61 138c0 39.333 12.5029 71.165 37.5029 95.498s63.5 38.5 115.5 42.5l208 16c-4 59.333 -20 103.833 -48 133.5s-66.333 44.5 -115 44.5c-45.333 0 -83.833 -12.333 -115.5 -37s-47.5 -65 -47.5 -121h-38c0 50 17.167 94.167 51.5 132.5s84.166 57.5 149.499 57.5
s114.666 -21.167 147.999 -63.5s50 -94.5 50 -156.5v-254h73v-28h-62c-14.667 0 -26.334 4.33301 -35.001 13s-13 20.334 -13 35.001v37l5 47h-13c-10 -38 -33.5 -71.167 -70.5 -99.5s-81.167 -42.5 -132.5 -42.5c-30.667 0 -56.5 5 -77.5 15s-36.167 23.333 -45.5 40
s-15.833 32.334 -19.5 47.001s-5.5 30 -5.5 46zM96.0029 135.999c0 -37.333 10.167 -66.333 30.5 -87s49.5 -31 87.5 -31c44 0 82.5 13.5 115.5 40.5s56.667 58.5 71 94.5s21.5 72 21.5 108l-205 -18c-43.333 -3.33301 -74.333 -13 -93 -29s-28 -42 -28 -78z" />
    <glyph glyph-name="b" unicode="b" horiz-adv-x="637" 
d="M81 0v735h35v-341l-3 -37h13c8.66699 42 33.5 76.667 74.5 104s88.167 41 141.5 41c66.667 0 122.334 -23.5 167.001 -70.5s67 -108.833 67 -185.5s-22.333 -138.5 -67 -185.5s-100.334 -70.5 -167.001 -70.5c-53.333 0 -100.5 13.5 -141.5 40.5
s-65.833 61.5 -74.5 103.5h-13l3 -36v-98h-35zM116 246c0 -75.333 21.167 -132.169 63.5 -170.502s94.166 -57.5 155.499 -57.5c60.667 0 110.167 18.833 148.5 56.5s57.5 94.834 57.5 171.501c0 76 -19.167 133 -57.5 171s-87.833 57 -148.5 57
c-61.333 0 -113.166 -19.167 -155.499 -57.5s-63.5 -95.166 -63.5 -170.499z" />
    <glyph glyph-name="c" unicode="c" horiz-adv-x="570" 
d="M61 246c0 69.333 20.665 129.333 61.998 180s99.333 76 174 76c16.667 0 33 -1.33301 49 -4s33.5 -8.16699 52.5 -16.5s35.667 -19 50 -32s27 -31 38 -54s18.167 -49.5 21.5 -79.5h-34c-16.667 105.333 -75.667 158 -177 158c-66 0 -116 -22 -150 -66s-51 -98 -51 -162
s17 -118 51 -162s84 -66 150 -66c101.333 0 160.333 52.667 177 158h34c-4 -37.333 -13.5 -69 -28.5 -95s-33.667 -45.167 -56 -57.5s-43.666 -21 -63.999 -26s-41.166 -7.5 -62.499 -7.5c-74.667 0 -132.667 25.167 -174 75.5s-62 110.5 -62 180.5z" />
    <glyph glyph-name="d" unicode="d" horiz-adv-x="638" 
d="M556 0h-35v98l4 36h-14c-8.66699 -42 -33.5 -76.5 -74.5 -103.5s-88.167 -40.5 -141.5 -40.5c-66.667 0 -122.334 23.5 -167.001 70.5s-67 108.833 -67 185.5s22.333 138.5 67 185.5s100.334 70.5 167.001 70.5c53.333 0 100.5 -13.667 141.5 -41s65.833 -62 74.5 -104
h14l-4 37v341h35v-735zM521 246c0 75.333 -21 132.169 -63 170.502s-94 57.5 -156 57.5c-60.667 0 -110.167 -19 -148.5 -57s-57.5 -95 -57.5 -171c0 -76.667 19.167 -133.834 57.5 -171.501s87.833 -56.5 148.5 -56.5c62 0 114 19.167 156 57.5s63 95.166 63 170.499z" />
    <glyph glyph-name="e" unicode="e" horiz-adv-x="575" 
d="M61 254c0 78 20.832 138.834 62.499 182.501s95.834 65.5 162.501 65.5c65.333 0 116.833 -21 154.5 -63s56.5 -101 56.5 -177v-20h-400c9.33301 -147.333 75.333 -221 198 -221c99.333 0 160.666 50 183.999 150h35c-7.33301 -24 -15.5 -45 -24.5 -63
s-21.667 -36.833 -38 -56.5s-37.666 -34.834 -63.999 -45.501s-57.166 -16 -92.499 -16c-78.667 0 -137.334 25 -176.001 75s-58 113 -58 189zM96.999 273.001h362c0 63.333 -15.333 112 -46 146s-73 51 -127 51s-99 -17.333 -135 -52s-54 -83 -54 -145z" />
    <glyph glyph-name="f" unicode="f" horiz-adv-x="406" 
d="M295 707c-35.333 0 -59.5 -8.16699 -72.5 -24.5s-19.5 -42.833 -19.5 -79.5v-111h144v-28h-144v-436h144v-28h-296v28h118v436h-118v28h118v111c0 88 40 132 120 132h86v-28h-80z" />
    <glyph glyph-name="g" unicode="g" horiz-adv-x="633" 
d="M557 492h44.002v-28h-47c-26.667 0 -51.667 -9 -75 -27c30.667 -38 46 -82 46 -132c0 -58 -20.5 -106.833 -61.5 -146.5s-105.167 -75.5 -192.5 -107.5c42 7.33301 81.5 11.333 118.5 12s67.833 -8.33301 92.5 -27s37 -46.334 37 -83.001
c0 -47.333 -31.167 -80.166 -93.5 -98.499s-171.5 -27.5 -327.5 -27.5v28c144.667 0 245.334 6 302.001 18s85 39.333 85 82c0 30.667 -12.833 52.334 -38.5 65.001s-58 16.834 -97 12.501s-76.5 -11.166 -112.5 -20.499s-69 -20.333 -99 -33l-17 37
c79.333 37.333 143 64.666 191 81.999v13c-72 -12.667 -131.833 -0.333984 -179.5 36.999s-71.5 89.666 -71.5 156.999c0 65.333 23.667 114.5 71 147.5s106.666 49.5 177.999 49.5c47.333 0 93.333 -14.667 138 -44l31.5 14l23 10.5c3.66699 1.66699 8.66699 3.5 15 5.5
s12.166 3.16699 17.499 3.5s12.666 0.5 21.999 0.5zM490.002 301c0 56 -18.333 98.833 -55 128.5s-83.667 44.5 -141 44.5c-58 0 -105.5 -14.833 -142.5 -44.5s-55.5 -72.5 -55.5 -128.5s18.5 -98.833 55.5 -128.5s84.5 -44.5 142.5 -44.5c57.333 0 104.333 14.833 141 44.5
s55 72.5 55 128.5z" />
    <glyph glyph-name="h" unicode="h" horiz-adv-x="561" 
d="M326 502c51.333 0 91.333 -15.833 120 -47.5s43 -75.834 43 -132.501v-322h-34v320c0 54 -11.667 93.167 -35 117.5s-58 36.5 -104 36.5c-57.333 0 -105 -22.667 -143 -68s-57 -100.666 -57 -165.999v-240h-35v735h35v-344l-3 -37h13c10 46 32.5 82.167 67.5 108.5
s79.167 39.5 132.5 39.5z" />
    <glyph glyph-name="i" unicode="i" horiz-adv-x="409" 
d="M202 602c-15.333 0 -28.833 5.49902 -40.5 16.499s-17.5 24.5 -17.5 40.5c0 15.333 5.83301 28.5 17.5 39.5s25.167 16.5 40.5 16.5c14.667 0 28 -5.5 40 -16.5s18 -24.167 18 -39.5s-6 -28.666 -18 -39.999s-25.333 -17 -40 -17zM61 -0.000976562v28h138v447l-91 -11v28
l83 10c14 1.33301 24 -0.166992 30 -4.5s9 -13.5 9 -27.5v-442h138v-28h-307z" />
    <glyph glyph-name="j" unicode="j" horiz-adv-x="243" 
d="M125 602c-15.333 0 -28.833 5.49902 -40.5 16.499s-17.5 24.5 -17.5 40.5c0 15.333 5.83301 28.5 17.5 39.5s25.167 16.5 40.5 16.5c14.667 0 28 -5.5 40 -16.5s18 -24.167 18 -39.5s-6 -28.666 -18 -39.999s-25.333 -17 -40 -17zM31 -173.001l80 147
c11.333 20.667 17 43.334 17 68.001v433l-97 -11v28l79 11c30 3.33301 45 -9.33398 45 -38.001v-435c0 -25.333 -5.66699 -48 -17 -68l-77 -135h-30z" />
    <glyph glyph-name="k" unicode="k" horiz-adv-x="497" 
d="M406 0l-191 253l-99 -60v-193h-35v735h35v-504l266 158l-14 103h34l14 -80c4 -22.667 -5 -40.667 -27 -54l-147 -89l204 -269h-40z" />
    <glyph glyph-name="l" unicode="l" horiz-adv-x="405" 
d="M51 0v28.001h139v690l-92 -11v28l69 11c20.667 3.33301 35.5 1.66602 44.5 -5.00098s13.5 -20 13.5 -40v-673h138v-28h-312z" />
    <glyph glyph-name="m" unicode="m" horiz-adv-x="871" 
d="M655 502c45.333 0 80.833 -15.832 106.5 -47.499s38.5 -77.834 38.5 -138.501v-316h-35v305c0 53.333 -8.83301 94.833 -26.5 124.5s-48.5 44.5 -92.5 44.5c-45.333 0 -85 -18.167 -119 -54.5s-55.667 -82.5 -65 -138.5v-281h-39v305
c0 53.333 -8.83301 94.833 -26.5 124.5s-48.5 44.5 -92.5 44.5c-52.667 0 -97.167 -23.667 -133.5 -71s-54.5 -105 -54.5 -173v-230h-35v492h35v-105l-3 -36h13c10 46 31.667 82.667 65 110s74 41 122 41c40.667 0 74.167 -13 100.5 -39s41.833 -63.333 46.5 -112h4
c10 45.333 32.167 81.833 66.5 109.5s75.833 41.5 124.5 41.5z" />
    <glyph glyph-name="n" unicode="n" horiz-adv-x="561" 
d="M316 474c-57.333 0 -105 -22.667 -143 -68s-57 -100.666 -57 -165.999v-240h-35v492h35v-101l-3 -37h13c10 46 32.5 82.167 67.5 108.5s79.167 39.5 132.5 39.5c51.333 0 91.333 -15.833 120 -47.5s43 -75.834 43 -132.501v-322h-34v320c0 54 -11.667 93.167 -35 117.5
s-58 36.5 -104 36.5z" />
    <glyph glyph-name="o" unicode="o" horiz-adv-x="620" 
d="M61 246c0 67.333 22.667 126.833 68 178.5s105.666 77.5 180.999 77.5s135.5 -25.833 180.5 -77.5s67.5 -111.167 67.5 -178.5s-22.5 -126.833 -67.5 -178.5s-105.167 -77.5 -180.5 -77.5s-135.666 25.833 -180.999 77.5s-68 111.167 -68 178.5zM96 246
c0 -62 18.833 -115.5 56.5 -160.5s90.167 -67.5 157.5 -67.5s119.833 22.5 157.5 67.5s56.5 98.5 56.5 160.5s-18.833 115.5 -56.5 160.5s-90.167 67.5 -157.5 67.5s-119.833 -22.5 -157.5 -67.5s-56.5 -98.5 -56.5 -160.5z" />
    <glyph glyph-name="p" unicode="p" horiz-adv-x="637" 
d="M81 492l35 0.000976562v-98l-3 -37h13c8.66699 42 33.334 76.667 74.001 104s87.667 41 141 41c71.333 0 128.333 -22.5 171 -67.5s64 -108.167 64 -189.5c0 -80.667 -21.5 -143.334 -64.5 -188.001s-99.833 -67 -170.5 -67c-53.333 0 -100.333 13.5 -141 40.5
s-65.334 61.5 -74.001 103.5h-13l3 -36v-275h-35v669zM116 245.001c0 -74.667 21.167 -131.167 63.5 -169.5s94.166 -57.5 155.499 -57.5c60 0 109.333 19.167 148 57.5s58 94.833 58 169.5c0 75.333 -19.333 132.333 -58 171s-88 58 -148 58
c-61.333 0 -113.166 -19.333 -155.499 -58s-63.5 -95.667 -63.5 -171z" />
    <glyph glyph-name="q" unicode="q" horiz-adv-x="638" 
d="M556 492v-669.001h-35v275l4 36h-14c-8.66699 -42 -33.334 -76.5 -74.001 -103.5s-87.667 -40.5 -141 -40.5c-70.667 0 -127.5 22.333 -170.5 67s-64.5 107.334 -64.5 188.001c0 81.333 21.333 144.5 64 189.5s99.667 67.5 171 67.5c53.333 0 100.333 -13.5 141 -40.5
s65.334 -61.833 74.001 -104.5h14l-4 37v98h35zM521 244.999c0 76 -21 133.167 -63 171.5s-94 57.5 -156 57.5c-60 0 -109.333 -19.333 -148 -58s-58 -95.667 -58 -171c0 -74.667 19.333 -131.167 58 -169.5s88 -57.5 148 -57.5c62 0 114 19.167 156 57.5
s63 94.833 63 169.5z" />
    <glyph glyph-name="r" unicode="r" horiz-adv-x="414" 
d="M81 0v443.998c0 20.667 4.66699 35.834 14 45.501s24 13.834 44 12.501l243 -10v-28l-266 11v-475h-35z" />
    <glyph glyph-name="s" unicode="s" horiz-adv-x="468" 
d="M427 118c0 -85.333 -57.333 -128 -172 -128c-136 0 -204 64.333 -204 193h35c0 -105.333 55.667 -158 167 -158c92.667 0 139 30 139 90c0 9.33301 -0.833008 18.166 -2.5 26.499s-5 16 -10 23l-13 18c-3.66699 5 -10.167 10.167 -19.5 15.5s-16.166 9.33301 -20.499 12
s-12.833 6.16699 -25.5 10.5l-25 8.5c-4 1.33301 -13.5 4.16602 -28.5 8.49902s-23.833 6.83301 -26.5 7.5c-50.667 15.333 -87.834 33.333 -111.501 54s-35.5 49.334 -35.5 86.001c0 36 14 64.5 42 85.5s66.667 31.5 116 31.5c34 0 63.333 -4.66699 88 -14
s43.167 -22 55.5 -38s21.166 -32.5 26.499 -49.5s8 -35.5 8 -55.5h-35c0 42 -11.833 72.833 -35.5 92.5s-59.5 29.5 -107.5 29.5c-36 0 -65.5 -6.5 -88.5 -19.5s-34.5 -33.5 -34.5 -61.5c0 -25.333 7.83301 -46.166 23.5 -62.499s42.834 -30.833 81.501 -43.5l37 -11.5
c18 -5.66699 30.833 -9.83398 38.5 -12.501s19.167 -7 34.5 -13s26.666 -11.333 33.999 -16s16.333 -11 27 -19s18.334 -16 23.001 -24s9 -17.667 13 -29s6 -23.666 6 -36.999z" />
    <glyph glyph-name="t" unicode="t" horiz-adv-x="389" 
d="M169 17l168 10.998v-28l-145 -10c-20 -1.33301 -34.667 2.83398 -44 12.501s-14 24.834 -14 45.501v416h-103v28h103v148l35 10v-158h148v-28h-148v-447z" />
    <glyph glyph-name="u" unicode="u" horiz-adv-x="551" 
d="M245 18c57.333 0 104.999 22.667 142.999 68s57 100.333 57 165v241h34v-492h-34v101l3 37h-13c-10 -45.333 -32.667 -81.333 -68 -108s-79.666 -40 -132.999 -40c-51.333 0 -91.333 15.667 -120 47s-43 75.333 -43 132v323h35v-320c0 -54 11.5 -93.167 34.5 -117.5
s57.833 -36.5 104.5 -36.5z" />
    <glyph glyph-name="v" unicode="v" horiz-adv-x="498" 
d="M434 492h32l-182 -492h-69l-184 492h33l179 -479h13z" />
    <glyph glyph-name="w" unicode="w" horiz-adv-x="807" 
d="M31 492h33l153 -479h14l137 479h70l138 -479h13l153 479h33l-159 -492h-67l-139 478h-13l-139 -478h-68z" />
    <glyph glyph-name="x" unicode="x" horiz-adv-x="527" 
d="M51 0l184 240v13l-184 239h41l172 -222l171 222h41l-184 -239v-13l184 -240h-41l-171 223l-172 -223h-41z" />
    <glyph glyph-name="y" unicode="y" horiz-adv-x="543" 
d="M467 492h34l-207 -502v-128c0 -32 -19.333 -47 -58 -45l-159 11v28l183 -13v147l-209 502h35l184 -452v-13h14v13z" />
    <glyph glyph-name="z" unicode="z" horiz-adv-x="553" 
d="M61 0v61l417 393v13l-36 -3h-381v28h431v-61l-417 -393v-13l36 3h381v-28h-431z" />
    <glyph glyph-name="braceleft" unicode="{" horiz-adv-x="551" 
d="M241 664l-37.002 3.00195v-13c34 -8.66699 63.667 -22.5 89 -41.5s44.333 -40.167 57 -63.5s22 -46 28 -68s9 -43.667 9 -65c0 -42.667 -12 -88 -36 -136c24 -48 36 -93.333 36 -136c0 -21.333 -3 -43 -9 -65s-15.333 -44.667 -28 -68s-31.667 -44.5 -57 -63.5
s-55 -32.833 -89 -41.5v-13l37 3h222v-41h-272v72c59.333 28.667 99.833 62.5 121.5 101.5s32.5 83.167 32.5 132.5c0 29.333 -4.33301 57.666 -13 84.999c-38 -56.667 -79.333 -85 -124 -85c-31.333 0 -59.166 10.833 -83.499 32.5s-36.5 50.5 -36.5 86.5
s12.333 64.833 37 86.5s52.334 32.5 83.001 32.5c44.667 0 86 -28.333 124 -85c8.66699 27.333 13 55.666 13 84.999c0 49.333 -10.833 93.5 -32.5 132.5s-62.167 72.833 -121.5 101.5v72h272v-41h-222zM207.998 205.002c20.667 0 40.667 6.6709 60 20.0039
s35.666 31.666 48.999 54.999c-13.333 23.333 -29.666 41.666 -48.999 54.999s-39.333 20 -60 20s-37.834 -7.33301 -51.501 -22s-20.5 -32.334 -20.5 -53.001s6.83301 -38.334 20.5 -53.001s30.834 -22 51.501 -22z" />
    <glyph glyph-name="bar" unicode="|" horiz-adv-x="217" 
d="M91 853h35v-1001h-35v1001z" />
    <glyph glyph-name="braceright" unicode="}" horiz-adv-x="557" 
d="M346 161c-44.667 0 -86.002 28.3311 -124.002 84.998c-8.66699 -27.333 -13 -55.666 -13 -84.999c0 -49.333 10.833 -93.5 32.5 -132.5s62.167 -72.833 121.5 -101.5v-72h-272v41h222l37 -3v13c-34 8.66699 -63.667 22.5 -89 41.5s-44.333 40.167 -57 63.5s-22 46 -28 68
s-9 43.667 -9 65c0 42.667 12 88 36 136c-24 48 -36 93.333 -36 136c0 21.333 3 43 9 65s15.333 44.667 28 68s31.667 44.5 57 63.5s55 32.833 89 41.5v13l-37 -3h-222v41h272v-72c-59.333 -28.667 -99.833 -62.5 -121.5 -101.5s-32.5 -83.167 -32.5 -132.5
c0 -29.333 4.33301 -57.666 13 -84.999c38 56.667 79.333 85 124 85c30.667 0 58.334 -10.833 83.001 -32.5s37 -50.5 37 -86.5s-12.167 -64.833 -36.5 -86.5s-52.166 -32.5 -83.499 -32.5zM345.998 354.998c-20.667 0 -40.667 -6.6709 -60 -20.0039
s-35.666 -31.666 -48.999 -54.999c13.333 -23.333 29.666 -41.666 48.999 -54.999s39.333 -20 60 -20s37.834 7.33301 51.501 22s20.5 32.334 20.5 53.001s-6.83301 38.334 -20.5 53.001s-30.834 22 -51.501 22z" />
    <glyph glyph-name="asciitilde" unicode="~" horiz-adv-x="625" 
d="M91 197c0 26.667 6.49805 47.999 19.498 63.999s26.5 26.167 40.5 30.5s28.667 6.5 44 6.5c32.667 0 74.834 -13.333 126.501 -40s90.834 -40 117.501 -40c40 0 60 22.333 60 67h35c0 -26.667 -6.5 -48.167 -19.5 -64.5s-26.333 -26.666 -40 -30.999
s-28.167 -6.5 -43.5 -6.5c-32.667 0 -75 13.333 -127 40s-91.333 40 -118 40c-40 0 -60 -22 -60 -66h-35z" />
    <glyph glyph-name="exclamdown" unicode="&#xa1;" horiz-adv-x="316" 
d="M157 502c17.333 0 32.833 -6.66699 46.5 -20s20.5 -29 20.5 -47s-6.83301 -33.667 -20.5 -47s-29.167 -20 -46.5 -20s-32.666 6.66699 -45.999 20s-20 29 -20 47s6.66699 33.667 20 47s28.666 20 45.999 20zM141 -213l-3 472h41l-3 -472h-35z" />
    <glyph glyph-name="cent" unicode="&#xa2;" horiz-adv-x="631" 
d="M337 123c95.333 4 151.001 56.6699 167.001 158.003h34c-3.33301 -36 -12.166 -66.667 -26.499 -92s-31.833 -44.333 -52.5 -57s-40.834 -21.834 -60.501 -27.501s-40.167 -8.83398 -61.5 -9.50098v-243l-42 1v244c-44 5.33301 -81.667 20.833 -113 46.5
s-54.333 56.334 -69 92.001s-22 74.167 -22 115.5c0 64 17.667 120.5 53 169.5s85.333 77.167 150 84.5v248l42 -1v-245c21.333 -0.666992 41.833 -3.83398 61.5 -9.50098s40 -14.834 61 -27.501s38.667 -31.667 53 -57s23.166 -56 26.499 -92h-34
c-16 101.333 -72 154 -168 158zM126.001 351.003c0 -58.667 14.332 -109.168 42.999 -151.501s70.667 -67.166 126 -74.499l-1 452c-55.333 -7.33301 -97.166 -32.333 -125.499 -75s-42.5 -93 -42.5 -151z" />
    <glyph glyph-name="sterling" unicode="&#xa3;" horiz-adv-x="587" 
d="M403 677c-66.667 6 -114.667 0.833008 -144 -15.5s-44 -48.833 -44 -97.5c0 -21.333 2.66699 -43.333 8 -66s12.333 -48.167 21 -76.5s15 -50.833 19 -67.5h193v-41h-186c2 -14.667 3 -30 3 -46c0 -51.333 -12.5 -95.5 -37.5 -132.5s-68.5 -69.167 -130.5 -96.5v-13l36 3
h355v-28h-405v84c98.667 37.333 148 95 148 173c0 18 -2 36.667 -6 56h-142v41h133c-2.66699 10 -7.33398 26.333 -14.001 49s-11.667 40.667 -15 54s-6.66602 29 -9.99902 47s-5 34 -5 48c0 36 5.83301 65.5 17.5 88.5s27.5 39 47.5 48s43.167 15 69.5 18
s54.5 2.5 84.5 -1.5l97 -10v-28z" />
    <glyph glyph-name="currency" unicode="&#xa4;" horiz-adv-x="779" 
d="M580 329c0 -46.667 -13.333 -87.002 -40 -121.002l147 -147l-30 -30l-147 147c-33.333 -27.333 -74 -41 -122 -41c-46.667 0 -87 13.333 -121 40l-146 -146l-30 30l146 146c-27.333 34.667 -41 75.334 -41 122.001s13.667 87.334 41 122.001l-146 146l30 30l146 -146
c34 26.667 74.333 40 121 40c48 0 88.667 -13.667 122 -41l147 147l30 -30l-147 -147c26.667 -34 40 -74.333 40 -121zM388 171.998c45.333 0 83 15.333 113 46s45 67.667 45 111s-15 80.5 -45 111.5s-67.667 46.5 -113 46.5s-82.833 -15.5 -112.5 -46.5
s-44.5 -68.167 -44.5 -111.5s14.833 -80.333 44.5 -111s67.167 -46 112.5 -46z" />
    <glyph glyph-name="yen" unicode="&#xa5;" horiz-adv-x="720" 
d="M629 705l-245 -411h152v-41h-158v-53h158v-42h-158v-158h-35v158h-158v42h158v53h-158v41h152l-246 411h38l225 -374v-37h13v37l224 374h38z" />
    <glyph glyph-name="brokenbar" unicode="&#xa6;" horiz-adv-x="217" 
d="M91 483v370h35v-370h-35zM126 222v-370h-35v370h35z" />
    <glyph glyph-name="section" unicode="&#xa7;" horiz-adv-x="570" 
d="M91 363c0 64 32.0059 106.666 96.0059 127.999c-40.667 22 -61 55.667 -61 101c0 36 14 65.5 42 88.5s66.333 34.5 115 34.5c65.333 0 111.5 -15.167 138.5 -45.5s40.5 -67.166 40.5 -110.499h-35c0 80.667 -47.667 121 -143 121c-82 0 -123 -27 -123 -81
c0 -29.333 7 -50.5 21 -63.5s41.667 -26.167 83 -39.5c5.33301 -2 15.166 -5.16699 29.499 -9.5l31 -9.5c6.33301 -2 16 -5.5 29 -10.5s22.667 -9 29 -12s14.666 -7.33301 24.999 -13s18.166 -10.834 23.499 -15.501l18.999 -17.5s12.666 -14.167 15.999 -21.5
s6.16602 -15.666 8.49902 -24.999s3.5 -19 3.5 -29c0 -64 -32 -106.667 -96 -128c40.667 -22 61 -55.667 61 -101c0 -36 -14 -65.5 -42 -88.5s-66.333 -34.5 -115 -34.5c-65.333 0 -111.5 15.167 -138.5 45.5s-40.5 67.166 -40.5 110.499h35c0 -81.333 47.667 -122 143 -122
c36.667 0 66.334 6.5 89.001 19.5s34 33.833 34 62.5s-7 49.5 -21 62.5s-41.667 26.167 -83 39.5l-32.5 10.5c-17.667 5.66699 -29.334 9.5 -35.001 11.5l-31 11.5c-15 5.66699 -25.5 10.334 -31.5 14.001l-26.5 15.5c-11.667 6.66699 -19.834 13.167 -24.501 19.5l-16.5 22
c-6.33301 8.33301 -10.666 17.5 -12.999 27.5s-3.5 20.667 -3.5 32zM129.006 376.999c0 -20 3.83398 -37.332 11.501 -51.999s19.667 -27 36 -37s32.5 -18.167 48.5 -24.5s36.667 -13.833 62 -22.5c4.66699 -1.33301 8 -2.33301 10 -3c42 -13.333 76.5 -11.333 103.5 6
s40.5 42.333 40.5 75c0 38.667 -14 67.5 -42 86.5s-70 36.5 -126 52.5c-42.667 12 -77.334 9.66699 -104.001 -7s-40 -41.334 -40 -74.001z" />
    <glyph glyph-name="dieresis" unicode="&#xa8;" horiz-adv-x="469" 
d="M148 602c-14.667 0 -27.834 5.66699 -39.501 17s-17.5 24.666 -17.5 39.999s5.83301 28.5 17.5 39.5s24.834 16.5 39.501 16.5s27.834 -5.5 39.501 -16.5s17.5 -24.167 17.5 -39.5s-5.83301 -28.666 -17.5 -39.999s-24.834 -17 -39.501 -17zM321 602
c-14.667 0 -27.667 5.66699 -39 17s-17 24.666 -17 39.999s5.66699 28.5 17 39.5s24.333 16.5 39 16.5s27.834 -5.5 39.501 -16.5s17.5 -24.167 17.5 -39.5s-5.83301 -28.666 -17.5 -39.999s-24.834 -17 -39.501 -17z" />
    <glyph glyph-name="copyright" unicode="&#xa9;" horiz-adv-x="1008" 
d="M504 -132c-120 0 -218.833 39.833 -296.5 119.5s-116.5 177.5 -116.5 293.5s38.833 213.833 116.5 293.5s176.5 119.5 296.5 119.5s218.833 -39.833 296.5 -119.5s116.5 -177.5 116.5 -293.5s-38.833 -213.833 -116.5 -293.5s-176.5 -119.5 -296.5 -119.5zM504 -104
c110.667 0 202.5 37.833 275.5 113.5s109.5 166.167 109.5 271.5s-36.5 195.833 -109.5 271.5s-164.833 113.5 -275.5 113.5s-202.5 -37.833 -275.5 -113.5s-109.5 -166.167 -109.5 -271.5s36.5 -195.833 109.5 -271.5s164.833 -113.5 275.5 -113.5zM272 282
c0 69.333 20.667 129.167 62 179.5s99.333 75.5 174 75.5c16.667 0 33 -1.33301 49 -4s33.5 -8 52.5 -16s35.667 -18.5 50 -31.5s27 -31 38 -54s18.167 -49.5 21.5 -79.5h-34c-16.667 104.667 -75.667 157 -177 157c-66 0 -116 -21.833 -150 -65.5s-51 -97.5 -51 -161.5
s17 -118 51 -162s84 -66 150 -66c101.333 0 160.333 52.333 177 157h34c-3.33301 -30 -10.5 -56.5 -21.5 -79.5s-23.667 -41 -38 -54s-31 -23.5 -50 -31.5s-36.5 -13.333 -52.5 -16s-32.333 -4 -49 -4c-74.667 0 -132.667 25.167 -174 75.5s-62 110.5 -62 180.5z" />
    <glyph glyph-name="guillemotleft" unicode="&#xab;" horiz-adv-x="615" 
d="M376 23l-32 -26l-253 251l253 250l32 -26l-227 -224zM524 23l-32 -26l-253 251l253 250l32 -26l-227 -224z" />
    <glyph glyph-name="logicalnot" unicode="&#xac;" horiz-adv-x="621" 
d="M495 347h35v-219h-35v167h-404v35h404v17z" />
    <glyph glyph-name="registered" unicode="&#xae;" horiz-adv-x="604" 
d="M302 302c-60.667 0 -111 20.5 -151 61.5s-60 90.833 -60 149.5s20 108.5 60 149.5s90.333 61.5 151 61.5s111 -20.5 151 -61.5s60 -90.833 60 -149.5s-20 -108.5 -60 -149.5s-90.333 -61.5 -151 -61.5zM302 330c51.333 0 94.666 18 129.999 54s53 79 53 129
s-17.667 93 -53 129s-78.666 54 -129.999 54s-94.666 -18 -129.999 -54s-53 -79 -53 -129s17.667 -93 53 -129s78.666 -54 129.999 -54zM213 407v214h84c69.333 0 104 -20.667 104 -62c0 -15.333 -4.33301 -26.333 -13 -33s-23.667 -11 -45 -13v-20h33
c16.667 0 25 -8.33301 25 -25v-61h-36v78h-116v-78h-36zM249 521l48 -0.000976562c17.333 0 29.833 0.333008 37.5 1s14.667 3.5 21 8.5s9.5 12.833 9.5 23.5c0 10 -3.16699 17.333 -9.5 22s-13.333 7.33398 -21 8.00098s-20.167 1 -37.5 1h-48v-64z" />
    <glyph glyph-name="macron" unicode="&#xaf;" horiz-adv-x="441" 
d="M91 661h258v-34h-258v34z" />
    <glyph glyph-name="degree" unicode="&#xb0;" horiz-adv-x="567" 
d="M283 361c-56.667 0 -102.834 18.5 -138.501 55.5s-53.5 82.5 -53.5 136.5s17.833 99.5 53.5 136.5s81.834 55.5 138.501 55.5s102.834 -18.5 138.501 -55.5s53.5 -82.5 53.5 -136.5s-17.833 -99.5 -53.5 -136.5s-81.834 -55.5 -138.501 -55.5zM283 396
c45.333 0 83 15.333 113 46s45 67.667 45 111s-15 80.333 -45 111s-67.667 46 -113 46s-82.833 -15.333 -112.5 -46s-44.5 -67.667 -44.5 -111s14.833 -80.333 44.5 -111s67.167 -46 112.5 -46z" />
    <glyph glyph-name="plusminus" unicode="&#xb1;" horiz-adv-x="621" 
d="M328 321h202v-34h-202v-144h-35v144h-202v34h202v146h35v-146zM91 40v35h439v-35h-439z" />
    <glyph glyph-name="acute" unicode="&#xb4;" horiz-adv-x="449" 
d="M91 625l257 75l10 -34l-257 -75z" />
    <glyph glyph-name="paragraph" unicode="&#xb6;" horiz-adv-x="603" 
d="M91 631c0 25.333 2.33301 48.3291 7 68.9961s13.5 40.834 26.5 60.501s30 36 51 49s49 23.5 84 31.5s75.833 12 122.5 12h35v-1001h-35v556c-58 0 -106.833 5.83301 -146.5 17.5s-69.5 28.334 -89.5 50.001s-34.167 44.834 -42.5 69.501s-12.5 53.334 -12.5 86.001z
M477 852.996h34v-1001h-34v1001z" />
    <glyph glyph-name="periodcentered" unicode="&#xb7;" horiz-adv-x="316" 
d="M158 179c-18 0 -33.667 6.5 -47 19.5s-20 28.833 -20 47.5c0 18 6.66699 33.5 20 46.5s29 19.5 47 19.5c17.333 0 32.833 -6.5 46.5 -19.5s20.5 -28.5 20.5 -46.5c0 -18.667 -6.83301 -34.5 -20.5 -47.5s-29.167 -19.5 -46.5 -19.5z" />
    <glyph glyph-name="cedilla" unicode="&#xb8;" horiz-adv-x="350" 
d="M206 -43c15.333 0 27.833 -4.49902 37.5 -13.499s14.5 -21.833 14.5 -38.5c0 -30.667 -12.333 -50.834 -37 -60.501s-68 -14.5 -130 -14.5v45c48.667 0 83 2 103 6s30 14 30 30c0 14.667 -7.66699 22 -23 22c-18 0 -39.667 -10.333 -65 -31l-26 50l55 48h42l-53 -56
c16 8.66699 33.333 13 52 13z" />
    <glyph glyph-name="guillemotright" unicode="&#xbb;" horiz-adv-x="615" 
d="M91 23l227 225l-227 224l32 26l253 -250l-253 -251zM239 23l227 225l-227 224l32 26l253 -250l-253 -251z" />
    <glyph glyph-name="onequarter" unicode="&#xbc;" horiz-adv-x="859" 
d="M549 814l33 -9l-285 -914l-33 9zM51 525c30.667 18 52.667 39.501 66 64.501s19 56.833 17 95.5h101v-395h-48v366l1 16h-6c-3.33301 -46 -13.5 -82.833 -30.5 -110.5s-45.833 -51.834 -86.5 -72.501zM496 92.001l-0.00195312 81.001
c46.667 27.333 83.334 58.5 110.001 93.5s45 77.833 55 128.5h48c-15.333 -108.667 -79.666 -194.334 -192.999 -257.001v-6l17 1h179v169h48v-169h48v-41h-48v-92h-48v92h-216z" />
    <glyph glyph-name="onehalf" unicode="&#xbd;" horiz-adv-x="919" 
d="M549 814l33 -9l-285 -914l-33 9zM51 525c30.667 18 52.667 39.501 66 64.501s19 56.833 17 95.5h101v-395h-48v366l1 16h-6c-3.33301 -46 -13.5 -82.833 -30.5 -110.5s-45.833 -51.834 -86.5 -72.501zM539 198.001c0 39.333 5.33203 73.168 15.999 101.501
s25.334 49.833 44.001 64.5s37.667 25.167 57 31.5s40 9.5 62 9.5c44.667 0 80.667 -10.833 108 -32.5s41 -54.834 41 -99.501c0 -110.667 -99.333 -187 -298 -229v-6l17 3h263v-41h-293v86c15.333 2 35.5 6.83301 60.5 14.5s53.667 18.667 86 33s59.833 33.833 82.5 58.5
s34 51.667 34 81c0 60.667 -32 91 -96 91c-43.333 0 -76.833 -12.667 -100.5 -38s-35.5 -68 -35.5 -128h-48z" />
    <glyph glyph-name="threequarters" unicode="&#xbe;" horiz-adv-x="972" 
d="M633 814l33 -9l-285 -914l-33 9zM51 444l47.998 0.000976562c0 -43.333 9.66699 -74 29 -92s50.333 -27 93 -27c71.333 0 107 26.333 107 79c0 29.333 -9 49.833 -27 61.5s-38 17.5 -60 17.5h-50v43h50c20.667 0 39.5 5 56.5 15s25.5 26.333 25.5 49
c0 45.333 -34 68 -102 68c-41.333 0 -71.166 -7.83301 -89.499 -23.5s-27.5 -39.834 -27.5 -72.501h-48c0 42.667 14.833 76.167 44.5 100.5s69.834 36.5 120.501 36.5c44 0 79.833 -10.333 107.5 -31s41.5 -46 41.5 -76c0 -21.333 -7.5 -39.666 -22.5 -54.999
s-35.167 -25.333 -60.5 -30v-6c26.667 -5.33301 48 -16.333 64 -33s24 -39 24 -67c0 -34.667 -14.333 -62.834 -43 -84.501s-65.667 -32.5 -111 -32.5c-52.667 0 -94.167 13.333 -124.5 40s-45.5 66.667 -45.5 120zM608.998 92.001l-0.00195312 81.001
c46.667 27.333 83.334 58.5 110.001 93.5s45 77.833 55 128.5h48c-15.333 -108.667 -79.666 -194.334 -192.999 -257.001v-6l17 1h179v169h48v-169h48v-41h-48v-92h-48v92h-216z" />
    <glyph glyph-name="questiondown" unicode="&#xbf;" horiz-adv-x="512" 
d="M269 502c18 0 33.667 -6.66699 47 -20s20 -29 20 -47s-6.66699 -33.667 -20 -47s-29 -20 -47 -20c-17.333 0 -32.833 6.66699 -46.5 20s-20.5 29 -20.5 47s6.83301 33.667 20.5 47s29.167 20 46.5 20zM441 5c0 -68.667 -17.166 -122.165 -51.499 -160.498
s-80.5 -57.5 -138.5 -57.5c-52.667 0 -94.167 14.833 -124.5 44.5s-45.5 72.834 -45.5 129.501c0 66 26.667 120.167 80 162.5s123 71.5 209 87.5v7h-224v41h237v-84c-0.666992 0 -12 -2.83301 -34 -8.5s-44 -13.334 -66 -23.001s-45.333 -22.334 -70 -38.001
s-44.834 -37.334 -60.501 -65.001s-23.5 -59.167 -23.5 -94.5c0 -78.667 40 -118 120 -118c96 0 144 59 144 177h48z" />
    <glyph glyph-name="Agrave" unicode="&#xc0;" horiz-adv-x="637" 
d="M449 838l-10 -34l-257 75l10 34zM563 0l-105 306h-279l-105 -306h-33l242 705h71l242 -705h-33zM189 334h259l-123 358h-13z" />
    <glyph glyph-name="Aacute" unicode="&#xc1;" horiz-adv-x="637" 
d="M455 879l-257 -75l-10 34l257 75zM563 0l-105 306h-279l-105 -306h-33l242 705h71l242 -705h-33zM189 334h259l-123 358h-13z" />
    <glyph glyph-name="Acircumflex" unicode="&#xc2;" horiz-adv-x="637" 
d="M319 888l-113 -104l-17 26l130 119l129 -119l-17 -26zM563 0l-105 306h-279l-105 -306h-33l242 705h71l242 -705h-33zM189 334h259l-123 358h-13z" />
    <glyph glyph-name="Atilde" unicode="&#xc3;" horiz-adv-x="637" 
d="M248 875c-32.667 0 -49 -25 -49 -75h-30c0 35.333 7.16699 61.666 21.5 78.999s31.5 26 51.5 26c18 0 34.5 -4.5 49.5 -13.5s26.5 -18.833 34.5 -29.5s17.5 -20.5 28.5 -29.5s22.167 -13.5 33.5 -13.5c13.333 0 24.833 5.83301 34.5 17.5s14.5 31.167 14.5 58.5h30
c0 -35.333 -7.16699 -61.666 -21.5 -78.999s-31.5 -26 -51.5 -26c-18 0 -34.5 4.5 -49.5 13.5s-26.5 18.667 -34.5 29s-17.5 20 -28.5 29s-22.167 13.5 -33.5 13.5zM563 0l-105 306h-279l-105 -306h-33l242 705h71l242 -705h-33zM189 334h259l-123 358h-13z" />
    <glyph glyph-name="Adieresis" unicode="&#xc4;" horiz-adv-x="637" 
d="M232 815c-14.667 0 -27.834 5.66699 -39.501 17s-17.5 24.666 -17.5 39.999s5.83301 28.5 17.5 39.5s24.834 16.5 39.501 16.5s27.834 -5.5 39.501 -16.5s17.5 -24.167 17.5 -39.5s-5.83301 -28.666 -17.5 -39.999s-24.834 -17 -39.501 -17zM405 815
c-14.667 0 -27.667 5.66699 -39 17s-17 24.666 -17 39.999s5.66699 28.5 17 39.5s24.333 16.5 39 16.5s27.834 -5.5 39.501 -16.5s17.5 -24.167 17.5 -39.5s-5.83301 -28.666 -17.5 -39.999s-24.834 -17 -39.501 -17zM563 0l-105 306h-279l-105 -306h-33l242 705h71
l242 -705h-33zM189 334h259l-123 358h-13z" />
    <glyph glyph-name="Aring" unicode="&#xc5;" horiz-adv-x="637" 
d="M317 779c-29.333 0 -52.833 9.66895 -70.5 29.002s-26.5 41.666 -26.5 66.999c0 24.667 8.83301 46.667 26.5 66s41.167 29 70.5 29c30 0 53.833 -9.66699 71.5 -29s26.5 -41.333 26.5 -66s-8.83301 -46.834 -26.5 -66.501s-41.5 -29.5 -71.5 -29.5zM317 938.002
c-18.667 0 -34.167 -6 -46.5 -18s-18.5 -27 -18.5 -45s6.16699 -33.167 18.5 -45.5s27.833 -18.5 46.5 -18.5c19.333 0 35.166 6.16699 47.499 18.5s18.5 27.5 18.5 45.5s-6.16699 33 -18.5 45s-28.166 18 -47.499 18zM563 0.00195312l-105 306h-279l-105 -306h-33l242 705
h71l242 -705h-33zM189 334.002h259l-123 358h-13z" />
    <glyph glyph-name="AE" unicode="&#xc6;" horiz-adv-x="940" 
d="M879 677h-362v-310h312v-28h-312v-311h362v-28h-397v303h-228l-176 -303h-37l410 705h428v-28zM270 331h212v361h-3z" />
    <glyph glyph-name="Ccedilla" unicode="&#xc7;" horiz-adv-x="754" 
d="M381 18c80 0 142.502 22.167 187.502 66.5s71.5 107.166 79.5 188.499h35c-10.667 -87.333 -41.834 -156 -93.501 -206s-118.834 -75.667 -201.501 -77l-44 -46c16 8.66699 33.333 13 52 13c15.333 0 27.833 -4.5 37.5 -13.5s14.5 -21.833 14.5 -38.5
c0 -30.667 -12.333 -50.834 -37 -60.501s-68 -14.5 -130 -14.5v45c48.667 0 83 2 103 6s30 14 30 30c0 14.667 -7.66699 22 -23 22c-18 0 -39.667 -10.333 -65 -31l-26 50l46 40c-86 8.66699 -153.333 46.334 -202 113.001s-73 149.334 -73 248.001
c0 105.333 27.667 192 83 260s131 102 227 102c84.667 0 153.5 -25 206.5 -75s84.833 -119 95.5 -207h-35c-8 81.333 -34.5 144 -79.5 188s-107.5 66 -187.5 66c-90.667 0 -159.167 -31.167 -205.5 -93.5s-69.5 -142.5 -69.5 -240.5c0 -98.667 23.167 -179.167 69.5 -241.5
s114.833 -93.5 205.5 -93.5z" />
    <glyph glyph-name="Egrave" unicode="&#xc8;" horiz-adv-x="539" 
d="M410 838l-10 -34l-257 75l10 34zM81 0v705h397v-28h-362v-310h312v-28h-312v-311h362v-28h-397z" />
    <glyph glyph-name="Eacute" unicode="&#xc9;" horiz-adv-x="539" 
d="M150 838l257 75l10 -34l-257 -75zM81 0v705h397v-28h-362v-310h312v-28h-312v-311h362v-28h-397z" />
    <glyph glyph-name="Ecircumflex" unicode="&#xca;" horiz-adv-x="539" 
d="M409 810l-17 -26l-112 104l-113 -104l-17 26l130 119zM81 0v705h397v-28h-362v-310h312v-28h-312v-311h362v-28h-397z" />
    <glyph glyph-name="Edieresis" unicode="&#xcb;" horiz-adv-x="539" 
d="M193 815c-14.667 0 -27.834 5.66699 -39.501 17s-17.5 24.666 -17.5 39.999s5.83301 28.5 17.5 39.5s24.834 16.5 39.501 16.5s27.834 -5.5 39.501 -16.5s17.5 -24.167 17.5 -39.5s-5.83301 -28.666 -17.5 -39.999s-24.834 -17 -39.501 -17zM366 815
c-14.667 0 -27.667 5.66699 -39 17s-17 24.666 -17 39.999s5.66699 28.5 17 39.5s24.333 16.5 39 16.5s27.834 -5.5 39.501 -16.5s17.5 -24.167 17.5 -39.5s-5.83301 -28.666 -17.5 -39.999s-24.834 -17 -39.501 -17zM81 0v705h397v-28h-362v-310h312v-28h-312v-311h362v-28
h-397z" />
    <glyph glyph-name="Igrave" unicode="&#xcc;" horiz-adv-x="489" 
d="M375 838l-10 -34l-257 75l10 34zM418 677h-156v-649h156v-28h-347v28h156v649h-156v28h347v-28z" />
    <glyph glyph-name="Iacute" unicode="&#xcd;" horiz-adv-x="489" 
d="M382 879l-257 -75l-10 34l257 75zM418 677h-156v-649h156v-28h-347v28h156v649h-156v28h347v-28z" />
    <glyph glyph-name="Icircumflex" unicode="&#xce;" horiz-adv-x="489" 
d="M245 888l-113 -104l-17 26l130 119l129 -119l-17 -26zM418 677h-156v-649h156v-28h-347v28h156v649h-156v28h347v-28z" />
    <glyph glyph-name="Idieresis" unicode="&#xcf;" horiz-adv-x="489" 
d="M158 815c-14.667 0 -27.834 5.66699 -39.501 17s-17.5 24.666 -17.5 39.999s5.83301 28.5 17.5 39.5s24.834 16.5 39.501 16.5s27.834 -5.5 39.501 -16.5s17.5 -24.167 17.5 -39.5s-5.83301 -28.666 -17.5 -39.999s-24.834 -17 -39.501 -17zM331 815
c-14.667 0 -27.667 5.66699 -39 17s-17 24.666 -17 39.999s5.66699 28.5 17 39.5s24.333 16.5 39 16.5s27.834 -5.5 39.501 -16.5s17.5 -24.167 17.5 -39.5s-5.83301 -28.666 -17.5 -39.999s-24.834 -17 -39.501 -17zM418 677h-156v-649h156v-28h-347v28h156v649h-156v28
h347v-28z" />
    <glyph glyph-name="Eth" unicode="&#xd0;" horiz-adv-x="742" 
d="M336 705c36 0 68.5 -2.33301 97.5 -7s58.833 -14.667 89.5 -30s56.334 -35.333 77.001 -60s37.667 -58.667 51 -102s20 -94.333 20 -153s-6.66699 -109.667 -20 -153s-30.333 -77.5 -51 -102.5s-46.334 -45.167 -77.001 -60.5s-60.5 -25.333 -89.5 -30s-61.5 -7 -97.5 -7
h-201v348h-64v34h64v323h201zM336 28c30 0 56.667 1.66797 80 5.00098s49.5 11.5 78.5 24.5s53.167 30.667 72.5 53s35.666 54.166 48.999 95.499s20 90.333 20 147s-6.66699 105.667 -20 147s-29.666 73 -48.999 95s-43.5 39.5 -72.5 52.5s-55.167 21.167 -78.5 24.5
s-50 5 -80 5h-167v-295h220v-34h-220v-320h167z" />
    <glyph glyph-name="Ntilde" unicode="&#xd1;" horiz-adv-x="717" 
d="M229 800c0 35.333 7.16699 61.666 21.5 78.999s31.5 26 51.5 26c18 0 34.5 -4.5 49.5 -13.5s26.5 -18.833 34.5 -29.5s17.5 -20.5 28.5 -29.5s22.167 -13.5 33.5 -13.5c13.333 0 24.833 5.83301 34.5 17.5s14.5 31.167 14.5 58.5h30
c0 -35.333 -7.16699 -61.666 -21.5 -78.999s-31.5 -26 -51.5 -26c-18 0 -34.5 4.5 -49.5 13.5s-26.5 18.667 -34.5 29s-17.5 20 -28.5 29s-22.167 13.5 -33.5 13.5c-32.667 0 -49 -25 -49 -75h-30zM81 0v705h75l435 -692h13l-3 34v658h34v-705h-75l-434 692h-13l3 -34v-658
h-35z" />
    <glyph glyph-name="Ograve" unicode="&#xd2;" horiz-adv-x="763" 
d="M512 838l-10 -34l-257 75l10 34zM71 353c0 105.333 27.833 192 83.5 260s131.5 102 227.5 102c95.333 0 170.833 -34 226.5 -102s83.5 -154.667 83.5 -260c0 -106 -27.833 -193 -83.5 -261s-131.167 -102 -226.5 -102c-96 0 -171.833 34 -227.5 102s-83.5 155 -83.5 261z
M106 353c0 -99.333 23.667 -180 71 -242s115.666 -93 204.999 -93s157.5 31 204.5 93s70.5 142.667 70.5 242c0 98.667 -23.5 179 -70.5 241s-115.167 93 -204.5 93s-157.666 -31 -204.999 -93s-71 -142.333 -71 -241z" />
    <glyph glyph-name="Oacute" unicode="&#xd3;" horiz-adv-x="763" 
d="M252 838l257 75l10 -34l-257 -75zM71 353c0 105.333 27.833 192 83.5 260s131.5 102 227.5 102c95.333 0 170.833 -34 226.5 -102s83.5 -154.667 83.5 -260c0 -106 -27.833 -193 -83.5 -261s-131.167 -102 -226.5 -102c-96 0 -171.833 34 -227.5 102s-83.5 155 -83.5 261
zM106 353c0 -99.333 23.667 -180 71 -242s115.666 -93 204.999 -93s157.5 31 204.5 93s70.5 142.667 70.5 242c0 98.667 -23.5 179 -70.5 241s-115.167 93 -204.5 93s-157.666 -31 -204.999 -93s-71 -142.333 -71 -241z" />
    <glyph glyph-name="Ocircumflex" unicode="&#xd4;" horiz-adv-x="763" 
d="M511 810l-17 -26l-112 104l-113 -104l-17 26l130 119zM71 353c0 105.333 27.833 192 83.5 260s131.5 102 227.5 102c95.333 0 170.833 -34 226.5 -102s83.5 -154.667 83.5 -260c0 -106 -27.833 -193 -83.5 -261s-131.167 -102 -226.5 -102c-96 0 -171.833 34 -227.5 102
s-83.5 155 -83.5 261zM106 353c0 -99.333 23.667 -180 71 -242s115.666 -93 204.999 -93s157.5 31 204.5 93s70.5 142.667 70.5 242c0 98.667 -23.5 179 -70.5 241s-115.167 93 -204.5 93s-157.666 -31 -204.999 -93s-71 -142.333 -71 -241z" />
    <glyph glyph-name="Otilde" unicode="&#xd5;" horiz-adv-x="763" 
d="M233 800c0 35.333 7.16699 61.666 21.5 78.999s31.5 26 51.5 26c18 0 34.5 -4.5 49.5 -13.5s26.5 -18.833 34.5 -29.5s17.5 -20.5 28.5 -29.5s22.167 -13.5 33.5 -13.5c13.333 0 24.833 5.83301 34.5 17.5s14.5 31.167 14.5 58.5h30
c0 -35.333 -7.16699 -61.666 -21.5 -78.999s-31.5 -26 -51.5 -26c-18 0 -34.5 4.5 -49.5 13.5s-26.5 18.667 -34.5 29s-17.5 20 -28.5 29s-22.167 13.5 -33.5 13.5c-32.667 0 -49 -25 -49 -75h-30zM71 353c0 105.333 27.833 192 83.5 260s131.5 102 227.5 102
c95.333 0 170.833 -34 226.5 -102s83.5 -154.667 83.5 -260c0 -106 -27.833 -193 -83.5 -261s-131.167 -102 -226.5 -102c-96 0 -171.833 34 -227.5 102s-83.5 155 -83.5 261zM106 353c0 -99.333 23.667 -180 71 -242s115.666 -93 204.999 -93s157.5 31 204.5 93
s70.5 142.667 70.5 242c0 98.667 -23.5 179 -70.5 241s-115.167 93 -204.5 93s-157.666 -31 -204.999 -93s-71 -142.333 -71 -241z" />
    <glyph glyph-name="Odieresis" unicode="&#xd6;" horiz-adv-x="763" 
d="M295 815c-14.667 0 -27.834 5.66699 -39.501 17s-17.5 24.666 -17.5 39.999s5.83301 28.5 17.5 39.5s24.834 16.5 39.501 16.5s27.834 -5.5 39.501 -16.5s17.5 -24.167 17.5 -39.5s-5.83301 -28.666 -17.5 -39.999s-24.834 -17 -39.501 -17zM468 815
c-14.667 0 -27.667 5.66699 -39 17s-17 24.666 -17 39.999s5.66699 28.5 17 39.5s24.333 16.5 39 16.5s27.834 -5.5 39.501 -16.5s17.5 -24.167 17.5 -39.5s-5.83301 -28.666 -17.5 -39.999s-24.834 -17 -39.501 -17zM71 353c0 105.333 27.833 192 83.5 260
s131.5 102 227.5 102c95.333 0 170.833 -34 226.5 -102s83.5 -154.667 83.5 -260c0 -106 -27.833 -193 -83.5 -261s-131.167 -102 -226.5 -102c-96 0 -171.833 34 -227.5 102s-83.5 155 -83.5 261zM106 353c0 -99.333 23.667 -180 71 -242s115.666 -93 204.999 -93
s157.5 31 204.5 93s70.5 142.667 70.5 242c0 98.667 -23.5 179 -70.5 241s-115.167 93 -204.5 93s-157.666 -31 -204.999 -93s-71 -142.333 -71 -241z" />
    <glyph glyph-name="multiply" unicode="&#xd7;" horiz-adv-x="518" 
d="M427 388l-143 -143l143 -143l-25 -25l-143 143l-143 -143l-24 25l143 143l-143 143l24 24l143 -143l143 143z" />
    <glyph glyph-name="Oslash" unicode="&#xd8;" horiz-adv-x="763" 
d="M576 646c77.333 -67.333 116 -165.332 116 -293.999c0 -106 -27.833 -193 -83.5 -261s-131.167 -102 -226.5 -102c-60 0 -113.667 14.667 -161 44l-51 -89l-36 21l53 92c-77.333 67.333 -116 165.666 -116 294.999c0 105.333 27.833 192 83.5 260s131.5 102 227.5 102
c58.667 0 112 -14.333 160 -43l51 88l37 -20zM106 352.001c0 -119.333 32 -209 96 -269l326 564c-40.667 26 -89.334 39 -146.001 39c-89.333 0 -157.666 -31 -204.999 -93s-71 -142.333 -71 -241zM382 17.001c89.333 0 157.5 31.001 204.5 93.001s70.5 142.667 70.5 242
c0 119.333 -32 208.666 -96 267.999l-326 -563c41.333 -26.667 90.333 -40 147 -40z" />
    <glyph glyph-name="Ugrave" unicode="&#xd9;" horiz-adv-x="634" 
d="M447 838l-10 -34l-257 75l10 34zM61 262v443h35v-465c0 -76 18.333 -132 55 -168s92 -54 166 -54s129.333 18 166 54s55 92 55 168v465h35v-443c0 -90 -20.5 -157.833 -61.5 -203.5s-105.833 -68.5 -194.5 -68.5c-89.333 0 -154.333 22.667 -195 68s-61 113.333 -61 204z
" />
    <glyph glyph-name="Uacute" unicode="&#xda;" horiz-adv-x="634" 
d="M187 838l257 75l10 -34l-257 -75zM61 262v443h35v-465c0 -76 18.333 -132 55 -168s92 -54 166 -54s129.333 18 166 54s55 92 55 168v465h35v-443c0 -90 -20.5 -157.833 -61.5 -203.5s-105.833 -68.5 -194.5 -68.5c-89.333 0 -154.333 22.667 -195 68s-61 113.333 -61 204
z" />
    <glyph glyph-name="Ucircumflex" unicode="&#xdb;" horiz-adv-x="634" 
d="M446 810l-17 -26l-112 104l-113 -104l-17 26l130 119zM61 262v443h35v-465c0 -76 18.333 -132 55 -168s92 -54 166 -54s129.333 18 166 54s55 92 55 168v465h35v-443c0 -90 -20.5 -157.833 -61.5 -203.5s-105.833 -68.5 -194.5 -68.5c-89.333 0 -154.333 22.667 -195 68
s-61 113.333 -61 204z" />
    <glyph glyph-name="Udieresis" unicode="&#xdc;" horiz-adv-x="634" 
d="M230 815c-14.667 0 -27.834 5.66699 -39.501 17s-17.5 24.666 -17.5 39.999s5.83301 28.5 17.5 39.5s24.834 16.5 39.501 16.5s27.834 -5.5 39.501 -16.5s17.5 -24.167 17.5 -39.5s-5.83301 -28.666 -17.5 -39.999s-24.834 -17 -39.501 -17zM403 815
c-14.667 0 -27.667 5.66699 -39 17s-17 24.666 -17 39.999s5.66699 28.5 17 39.5s24.333 16.5 39 16.5s27.834 -5.5 39.501 -16.5s17.5 -24.167 17.5 -39.5s-5.83301 -28.666 -17.5 -39.999s-24.834 -17 -39.501 -17zM61 262v443h35v-465c0 -76 18.333 -132 55 -168
s92 -54 166 -54s129.333 18 166 54s55 92 55 168v465h35v-443c0 -90 -20.5 -157.833 -61.5 -203.5s-105.833 -68.5 -194.5 -68.5c-89.333 0 -154.333 22.667 -195 68s-61 113.333 -61 204z" />
    <glyph glyph-name="Yacute" unicode="&#xdd;" horiz-adv-x="620" 
d="M180 838l257 75l10 -34l-257 -75zM541 705h38l-251 -421v-284h-35v284l-252 421h38l225 -374v-37h13v37z" />
    <glyph glyph-name="Thorn" unicode="&#xde;" horiz-adv-x="584" 
d="M245 573c93.333 0 163 -16.667 209 -50s69 -90 69 -170c0 -80.667 -23 -137.667 -69 -171s-115.667 -50 -209 -50h-129v-132h-35v705h35v-132h129zM242 160c36.667 0 68.667 2.66992 96 8.00293s53 14.666 77 27.999s42.167 33.166 54.5 59.499s18.5 58.833 18.5 97.5
s-6.16699 71 -18.5 97s-30.5 45.667 -54.5 59s-49.667 22.666 -77 27.999s-59.333 8 -96 8h-126v-385h126z" />
    <glyph glyph-name="germandbls" unicode="&#xdf;" horiz-adv-x="475" 
d="M172 0v28.001l97 -9c43.333 -4 75.833 6.16699 97.5 30.5s32.5 55.5 32.5 93.5c0 31.333 -5.16699 58 -15.5 80s-23.166 38.167 -38.499 48.5s-31.833 20.166 -49.5 29.499s-34.167 17.5 -49.5 24.5s-28.166 17.833 -38.499 32.5s-15.5 32.667 -15.5 54
c0 14.667 4.33301 28.167 13 40.5s19 23 31 32l36.5 28c12.333 9.66699 22.833 21.834 31.5 36.501s13 31 13 49c0 59.333 -28.667 89 -86 89c-38.667 0 -67.5 -10.5 -86.5 -31.5s-28.5 -64.167 -28.5 -129.5v-526h-35v533c0 34.667 4.5 64.667 13.5 90s21.333 44.333 37 57
s31.667 21.667 48 27s33.5 8 51.5 8c38 0 67.667 -11.5 89 -34.5s32 -51.833 32 -86.5c0 -18 -4.33301 -34.667 -13 -50s-19.167 -28.333 -31.5 -39l-37 -31.5c-12.333 -10.333 -22.833 -21.5 -31.5 -33.5s-13 -24.333 -13 -37c0 -15.333 7.16699 -28.5 21.5 -39.5
s31.666 -21 51.999 -30s40.666 -19.667 60.999 -32s37.666 -31.5 51.999 -57.5s21.5 -57.667 21.5 -95c0 -54 -15.667 -95.333 -47 -124s-72.666 -40.334 -123.999 -35.001z" />
    <glyph glyph-name="agrave" unicode="&#xe0;" horiz-adv-x="561" 
d="M399 625l-10 -34l-257 75l10 34zM61 138c0 39.333 12.5029 71.165 37.5029 95.498s63.5 38.5 115.5 42.5l208 16c-4 59.333 -20 103.833 -48 133.5s-66.333 44.5 -115 44.5c-45.333 0 -83.833 -12.333 -115.5 -37s-47.5 -65 -47.5 -121h-38
c0 50 17.167 94.167 51.5 132.5s84.166 57.5 149.499 57.5s114.666 -21.167 147.999 -63.5s50 -94.5 50 -156.5v-254h73v-28h-62c-14.667 0 -26.334 4.33301 -35.001 13s-13 20.334 -13 35.001v37l5 47h-13c-10 -38 -33.5 -71.167 -70.5 -99.5s-81.167 -42.5 -132.5 -42.5
c-30.667 0 -56.5 5 -77.5 15s-36.167 23.333 -45.5 40s-15.833 32.334 -19.5 47.001s-5.5 30 -5.5 46zM96.0029 135.999c0 -37.333 10.167 -66.333 30.5 -87s49.5 -31 87.5 -31c44 0 82.5 13.5 115.5 40.5s56.667 58.5 71 94.5s21.5 72 21.5 108l-205 -18
c-43.333 -3.33301 -74.333 -13 -93 -29s-28 -42 -28 -78z" />
    <glyph glyph-name="aacute" unicode="&#xe1;" horiz-adv-x="561" 
d="M139 625l257 75l10 -34l-257 -75zM61 138c0 39.333 12.5029 71.165 37.5029 95.498s63.5 38.5 115.5 42.5l208 16c-4 59.333 -20 103.833 -48 133.5s-66.333 44.5 -115 44.5c-45.333 0 -83.833 -12.333 -115.5 -37s-47.5 -65 -47.5 -121h-38
c0 50 17.167 94.167 51.5 132.5s84.166 57.5 149.499 57.5s114.666 -21.167 147.999 -63.5s50 -94.5 50 -156.5v-254h73v-28h-62c-14.667 0 -26.334 4.33301 -35.001 13s-13 20.334 -13 35.001v37l5 47h-13c-10 -38 -33.5 -71.167 -70.5 -99.5s-81.167 -42.5 -132.5 -42.5
c-30.667 0 -56.5 5 -77.5 15s-36.167 23.333 -45.5 40s-15.833 32.334 -19.5 47.001s-5.5 30 -5.5 46zM96.0029 135.999c0 -37.333 10.167 -66.333 30.5 -87s49.5 -31 87.5 -31c44 0 82.5 13.5 115.5 40.5s56.667 58.5 71 94.5s21.5 72 21.5 108l-205 -18
c-43.333 -3.33301 -74.333 -13 -93 -29s-28 -42 -28 -78z" />
    <glyph glyph-name="acircumflex" unicode="&#xe2;" horiz-adv-x="561" 
d="M398 597l-17 -26l-112 104l-113 -104l-17 26l130 119zM61 138c0 39.333 12.5029 71.165 37.5029 95.498s63.5 38.5 115.5 42.5l208 16c-4 59.333 -20 103.833 -48 133.5s-66.333 44.5 -115 44.5c-45.333 0 -83.833 -12.333 -115.5 -37s-47.5 -65 -47.5 -121h-38
c0 50 17.167 94.167 51.5 132.5s84.166 57.5 149.499 57.5s114.666 -21.167 147.999 -63.5s50 -94.5 50 -156.5v-254h73v-28h-62c-14.667 0 -26.334 4.33301 -35.001 13s-13 20.334 -13 35.001v37l5 47h-13c-10 -38 -33.5 -71.167 -70.5 -99.5s-81.167 -42.5 -132.5 -42.5
c-30.667 0 -56.5 5 -77.5 15s-36.167 23.333 -45.5 40s-15.833 32.334 -19.5 47.001s-5.5 30 -5.5 46zM96.0029 135.999c0 -37.333 10.167 -66.333 30.5 -87s49.5 -31 87.5 -31c44 0 82.5 13.5 115.5 40.5s56.667 58.5 71 94.5s21.5 72 21.5 108l-205 -18
c-43.333 -3.33301 -74.333 -13 -93 -29s-28 -42 -28 -78z" />
    <glyph glyph-name="atilde" unicode="&#xe3;" horiz-adv-x="561" 
d="M120 587c0 35.333 7.16699 61.666 21.5 78.999s31.5 26 51.5 26c18 0 34.5 -4.5 49.5 -13.5s26.5 -18.833 34.5 -29.5s17.5 -20.5 28.5 -29.5s22.167 -13.5 33.5 -13.5c13.333 0 24.833 5.83301 34.5 17.5s14.5 31.167 14.5 58.5h30
c0 -35.333 -7.16699 -61.666 -21.5 -78.999s-31.5 -26 -51.5 -26c-18 0 -34.5 4.5 -49.5 13.5s-26.5 18.667 -34.5 29s-17.5 20 -28.5 29s-22.167 13.5 -33.5 13.5c-32.667 0 -49 -25 -49 -75h-30zM61 138c0 39.333 12.5029 71.165 37.5029 95.498s63.5 38.5 115.5 42.5
l208 16c-4 59.333 -20 103.833 -48 133.5s-66.333 44.5 -115 44.5c-45.333 0 -83.833 -12.333 -115.5 -37s-47.5 -65 -47.5 -121h-38c0 50 17.167 94.167 51.5 132.5s84.166 57.5 149.499 57.5s114.666 -21.167 147.999 -63.5s50 -94.5 50 -156.5v-254h73v-28h-62
c-14.667 0 -26.334 4.33301 -35.001 13s-13 20.334 -13 35.001v37l5 47h-13c-10 -38 -33.5 -71.167 -70.5 -99.5s-81.167 -42.5 -132.5 -42.5c-30.667 0 -56.5 5 -77.5 15s-36.167 23.333 -45.5 40s-15.833 32.334 -19.5 47.001s-5.5 30 -5.5 46zM96.0029 135.999
c0 -37.333 10.167 -66.333 30.5 -87s49.5 -31 87.5 -31c44 0 82.5 13.5 115.5 40.5s56.667 58.5 71 94.5s21.5 72 21.5 108l-205 -18c-43.333 -3.33301 -74.333 -13 -93 -29s-28 -42 -28 -78z" />
    <glyph glyph-name="adieresis" unicode="&#xe4;" horiz-adv-x="561" 
d="M182 602c-14.667 0 -27.834 5.66699 -39.501 17s-17.5 24.666 -17.5 39.999s5.83301 28.5 17.5 39.5s24.834 16.5 39.501 16.5s27.834 -5.5 39.501 -16.5s17.5 -24.167 17.5 -39.5s-5.83301 -28.666 -17.5 -39.999s-24.834 -17 -39.501 -17zM355 602
c-14.667 0 -27.667 5.66699 -39 17s-17 24.666 -17 39.999s5.66699 28.5 17 39.5s24.333 16.5 39 16.5s27.834 -5.5 39.501 -16.5s17.5 -24.167 17.5 -39.5s-5.83301 -28.666 -17.5 -39.999s-24.834 -17 -39.501 -17zM61 138c0 39.333 12.5029 71.165 37.5029 95.498
s63.5 38.5 115.5 42.5l208 16c-4 59.333 -20 103.833 -48 133.5s-66.333 44.5 -115 44.5c-45.333 0 -83.833 -12.333 -115.5 -37s-47.5 -65 -47.5 -121h-38c0 50 17.167 94.167 51.5 132.5s84.166 57.5 149.499 57.5s114.666 -21.167 147.999 -63.5s50 -94.5 50 -156.5v-254
h73v-28h-62c-14.667 0 -26.334 4.33301 -35.001 13s-13 20.334 -13 35.001v37l5 47h-13c-10 -38 -33.5 -71.167 -70.5 -99.5s-81.167 -42.5 -132.5 -42.5c-30.667 0 -56.5 5 -77.5 15s-36.167 23.333 -45.5 40s-15.833 32.334 -19.5 47.001s-5.5 30 -5.5 46z
M96.0029 135.999c0 -37.333 10.167 -66.333 30.5 -87s49.5 -31 87.5 -31c44 0 82.5 13.5 115.5 40.5s56.667 58.5 71 94.5s21.5 72 21.5 108l-205 -18c-43.333 -3.33301 -74.333 -13 -93 -29s-28 -42 -28 -78z" />
    <glyph glyph-name="aring" unicode="&#xe5;" horiz-adv-x="561" 
d="M267 566c-29.333 0 -52.833 9.66895 -70.5 29.002s-26.5 41.666 -26.5 66.999c0 24.667 8.83301 46.667 26.5 66s41.167 29 70.5 29c30 0 53.833 -9.66699 71.5 -29s26.5 -41.333 26.5 -66s-8.83301 -46.834 -26.5 -66.501s-41.5 -29.5 -71.5 -29.5zM267 598.002
c19.333 0 35.166 6 47.499 18s18.5 27.333 18.5 46c0 18 -6.16699 33 -18.5 45s-28.166 18 -47.499 18c-18.667 0 -34.167 -6 -46.5 -18s-18.5 -27 -18.5 -45s6.16699 -33.167 18.5 -45.5s27.833 -18.5 46.5 -18.5zM61 138.002c0 39.333 12.5029 71.165 37.5029 95.498
s63.5 38.5 115.5 42.5l208 16c-4 59.333 -20 103.833 -48 133.5s-66.333 44.5 -115 44.5c-45.333 0 -83.833 -12.333 -115.5 -37s-47.5 -65 -47.5 -121h-38c0 50 17.167 94.167 51.5 132.5s84.166 57.5 149.499 57.5s114.666 -21.167 147.999 -63.5s50 -94.5 50 -156.5v-254
h73v-28h-62c-14.667 -0 -26.334 4.33301 -35.001 13s-13 20.334 -13 35.001v37l5 47h-13c-10 -38 -33.5 -71.167 -70.5 -99.5s-81.167 -42.5 -132.5 -42.5c-30.667 0 -56.5 5 -77.5 15s-36.167 23.333 -45.5 40s-15.833 32.334 -19.5 47.001s-5.5 30 -5.5 46z
M96.0029 136.001c0 -37.333 10.167 -66.333 30.5 -87s49.5 -31 87.5 -31c44 0 82.5 13.5 115.5 40.5s56.667 58.5 71 94.5s21.5 72 21.5 108l-205 -18c-43.333 -3.33301 -74.333 -13 -93 -29s-28 -42 -28 -78z" />
    <glyph glyph-name="ae" unicode="&#xe6;" horiz-adv-x="938" 
d="M842 171l35.0029 0.000976562c-6.66699 -23.333 -14.5 -44.166 -23.5 -62.499s-21.667 -37.333 -38 -57s-37.833 -34.834 -64.5 -45.501s-57.667 -16 -93 -16c-58 0 -105.333 14.333 -142 43s-62 67 -76 115c-20.667 -48 -50.334 -86.333 -89.001 -115
s-83.667 -43 -135 -43c-26 0 -48.833 3.5 -68.5 10.5s-34.834 15.667 -45.501 26s-19.167 22.666 -25.5 36.999s-10.5 27.333 -12.5 39s-3 23.5 -3 35.5c0 77.333 51 119.666 153 126.999l208 17c-4 59.333 -20.333 105.5 -49 138.5s-66.667 49.5 -114 49.5
c-45.333 0 -83.833 -12.333 -115.5 -37s-47.5 -65 -47.5 -121h-38c0 50 17.167 94.167 51.5 132.5s84.166 57.5 149.499 57.5c94 0 156.333 -44 187 -132c16.667 42.667 42.834 75.334 78.501 98.001s77.167 34 124.5 34c66 0 117.667 -21 155 -63s56 -101 56 -177v-20h-400
c9.33301 -147.333 75.333 -221 198 -221c99.333 0 160.666 50 183.999 150zM649.003 470.001c-50 0 -92.667 -15.1699 -128 -45.5029s-55.333 -73.166 -60 -128.499c0 -1.33301 0.166992 -3.66602 0.5 -6.99902s0.5 -5.66602 0.5 -6.99902l-1 -9h361
c0 63.333 -15.333 112 -46 146s-73 51 -127 51zM214.003 17.998c62.667 0 113 21.999 151 65.999s57 98.667 57 164l-205 -18c-42.667 -3.33301 -73.5 -12.166 -92.5 -26.499s-28.5 -36.5 -28.5 -66.5c0 -37.333 10.167 -66.5 30.5 -87.5s49.5 -31.5 87.5 -31.5z" />
    <glyph glyph-name="ccedilla" unicode="&#xe7;" horiz-adv-x="570" 
d="M297 18c101.333 0 160.331 52.6689 176.998 158.002h34c-4 -37.333 -13.5 -69 -28.5 -95s-33.667 -45.167 -56 -57.5s-43.666 -21 -63.999 -26s-41.166 -7.5 -62.499 -7.5l-44 -46c16 8.66699 33.333 13 52 13c15.333 0 27.833 -4.5 37.5 -13.5s14.5 -21.833 14.5 -38.5
c0 -30.667 -12.333 -50.834 -37 -60.501s-68 -14.5 -130 -14.5v45c48 0 82.167 2 102.5 6s30.5 14 30.5 30c0 14.667 -7.66699 22 -23 22c-18 0 -39.667 -10.333 -65 -31l-26 50l47 41c-62 9.33301 -110 38.166 -144 86.499s-51 103.833 -51 166.5
c0 69.333 20.667 129.333 62 180s99.333 76 174 76c16.667 0 33 -1.33301 49 -4s33.5 -8.16699 52.5 -16.5s35.667 -19 50 -32s27 -31 38 -54s18.167 -49.5 21.5 -79.5h-34c-16.667 105.333 -75.667 158 -177 158c-66 0 -116 -22 -150 -66s-51 -98 -51 -162s17 -118 51 -162
s84 -66 150 -66z" />
    <glyph glyph-name="egrave" unicode="&#xe8;" horiz-adv-x="575" 
d="M418 625l-10 -34l-257 75l10 34zM61 254c0 78 20.832 138.834 62.499 182.501s95.834 65.5 162.501 65.5c65.333 0 116.833 -21 154.5 -63s56.5 -101 56.5 -177v-20h-400c9.33301 -147.333 75.333 -221 198 -221c99.333 0 160.666 50 183.999 150h35
c-7.33301 -24 -15.5 -45 -24.5 -63s-21.667 -36.833 -38 -56.5s-37.666 -34.834 -63.999 -45.501s-57.166 -16 -92.499 -16c-78.667 0 -137.334 25 -176.001 75s-58 113 -58 189zM96.999 273.001h362c0 63.333 -15.333 112 -46 146s-73 51 -127 51s-99 -17.333 -135 -52
s-54 -83 -54 -145z" />
    <glyph glyph-name="eacute" unicode="&#xe9;" horiz-adv-x="575" 
d="M158 625l257 75l10 -34l-257 -75zM61 254c0 78 20.832 138.834 62.499 182.501s95.834 65.5 162.501 65.5c65.333 0 116.833 -21 154.5 -63s56.5 -101 56.5 -177v-20h-400c9.33301 -147.333 75.333 -221 198 -221c99.333 0 160.666 50 183.999 150h35
c-7.33301 -24 -15.5 -45 -24.5 -63s-21.667 -36.833 -38 -56.5s-37.666 -34.834 -63.999 -45.501s-57.166 -16 -92.499 -16c-78.667 0 -137.334 25 -176.001 75s-58 113 -58 189zM96.999 273.001h362c0 63.333 -15.333 112 -46 146s-73 51 -127 51s-99 -17.333 -135 -52
s-54 -83 -54 -145z" />
    <glyph glyph-name="ecircumflex" unicode="&#xea;" horiz-adv-x="575" 
d="M417 597l-17 -26l-112 104l-113 -104l-17 26l130 119zM61 254c0 78 20.832 138.834 62.499 182.501s95.834 65.5 162.501 65.5c65.333 0 116.833 -21 154.5 -63s56.5 -101 56.5 -177v-20h-400c9.33301 -147.333 75.333 -221 198 -221c99.333 0 160.666 50 183.999 150h35
c-7.33301 -24 -15.5 -45 -24.5 -63s-21.667 -36.833 -38 -56.5s-37.666 -34.834 -63.999 -45.501s-57.166 -16 -92.499 -16c-78.667 0 -137.334 25 -176.001 75s-58 113 -58 189zM96.999 273.001h362c0 63.333 -15.333 112 -46 146s-73 51 -127 51s-99 -17.333 -135 -52
s-54 -83 -54 -145z" />
    <glyph glyph-name="edieresis" unicode="&#xeb;" horiz-adv-x="575" 
d="M201 602c-14.667 0 -27.834 5.66699 -39.501 17s-17.5 24.666 -17.5 39.999s5.83301 28.5 17.5 39.5s24.834 16.5 39.501 16.5s27.834 -5.5 39.501 -16.5s17.5 -24.167 17.5 -39.5s-5.83301 -28.666 -17.5 -39.999s-24.834 -17 -39.501 -17zM374 602
c-14.667 0 -27.667 5.66699 -39 17s-17 24.666 -17 39.999s5.66699 28.5 17 39.5s24.333 16.5 39 16.5s27.834 -5.5 39.501 -16.5s17.5 -24.167 17.5 -39.5s-5.83301 -28.666 -17.5 -39.999s-24.834 -17 -39.501 -17zM61 254c0 78 20.832 138.834 62.499 182.501
s95.834 65.5 162.501 65.5c65.333 0 116.833 -21 154.5 -63s56.5 -101 56.5 -177v-20h-400c9.33301 -147.333 75.333 -221 198 -221c99.333 0 160.666 50 183.999 150h35c-7.33301 -24 -15.5 -45 -24.5 -63s-21.667 -36.833 -38 -56.5s-37.666 -34.834 -63.999 -45.501
s-57.166 -16 -92.499 -16c-78.667 0 -137.334 25 -176.001 75s-58 113 -58 189zM96.999 273.001h362c0 63.333 -15.333 112 -46 146s-73 51 -127 51s-99 -17.333 -135 -52s-54 -83 -54 -145z" />
    <glyph glyph-name="igrave" unicode="&#xec;" horiz-adv-x="409" 
d="M307 625l-10 -34l-257 75l10 34zM61 0v28h141v447l-94 -11v28l67 10c20 2.66699 33.833 -1 41.5 -11s11.5 -26 11.5 -48v-415h140v-28h-307z" />
    <glyph glyph-name="iacute" unicode="&#xed;" horiz-adv-x="403" 
d="M37 625l257 75l10 -34l-257 -75zM55 0v28h140v447l-93 -11v28l67 10c19.333 2.66699 32.833 -1 40.5 -11s11.5 -26 11.5 -48v-415h141v-28h-307z" />
    <glyph glyph-name="icircumflex" unicode="&#xee;" horiz-adv-x="404" 
d="M301 597l-17 -26l-113 104l-112 -104l-17 26l129 119zM56 0v28h140v447l-93 -11v28l67 10c19.333 2.66699 32.833 -1 40.5 -11s11.5 -26 11.5 -48v-415h141v-28h-307z" />
    <glyph glyph-name="idieresis" unicode="&#xef;" horiz-adv-x="403" 
d="M80 602c-14.667 0 -27.667 5.66699 -39 17s-17 24.666 -17 39.999s5.66699 28.5 17 39.5s24.333 16.5 39 16.5s27.834 -5.5 39.501 -16.5s17.5 -24.167 17.5 -39.5s-5.83301 -28.666 -17.5 -39.999s-24.834 -17 -39.501 -17zM253 602c-14.667 0 -27.667 5.66699 -39 17
s-17 24.666 -17 39.999s5.66699 28.5 17 39.5s24.333 16.5 39 16.5s27.834 -5.5 39.501 -16.5s17.5 -24.167 17.5 -39.5s-5.83301 -28.666 -17.5 -39.999s-24.834 -17 -39.501 -17zM55 0v28h140v447l-93 -11v28l67 10c19.333 2.66699 32.833 -1 40.5 -11s11.5 -26 11.5 -48
v-415h141v-28h-307z" />
    <glyph glyph-name="eth" unicode="&#xf0;" horiz-adv-x="620" 
d="M369 642c59.333 -36.667 105.831 -82.667 139.498 -138s50.5 -117 50.5 -185c0 -102.667 -22.667 -183.167 -68 -241.5s-106.666 -87.5 -183.999 -87.5c-79.333 0 -140.166 24 -182.499 72s-63.5 111.333 -63.5 190c0 74 22.167 134.167 66.5 180.5
s103.166 69.5 176.499 69.5c51.333 0 96.833 -15 136.5 -45s65.834 -72 78.501 -126h13l-3 37c-6 52.667 -26 101.167 -60 145.5s-77.667 81.833 -131 112.5l-134 -71l-13 28l114 60c-51.333 24 -106.333 40.667 -165 50v28c71.333 -8.66699 137.333 -29 198 -61l124 66
l13 -28zM304.998 18c68 0 121.5 23.334 160.5 70.001s58.5 101.334 58.5 164.001c0 64 -21.5 117 -64.5 159s-98.5 63 -166.5 63c-60 0 -107.833 -20.833 -143.5 -62.5s-53.5 -94.834 -53.5 -159.501c0 -74.667 17.667 -132.334 53 -173.001s87.333 -61 156 -61z" />
    <glyph glyph-name="ntilde" unicode="&#xf1;" horiz-adv-x="561" 
d="M158 587c0 35.333 7.16699 61.666 21.5 78.999s31.5 26 51.5 26c18 0 34.5 -4.5 49.5 -13.5s26.5 -18.833 34.5 -29.5s17.5 -20.5 28.5 -29.5s22.167 -13.5 33.5 -13.5c13.333 0 24.833 5.83301 34.5 17.5s14.5 31.167 14.5 58.5h30
c0 -35.333 -7.16699 -61.666 -21.5 -78.999s-31.5 -26 -51.5 -26c-18 0 -34.5 4.5 -49.5 13.5s-26.5 18.667 -34.5 29s-17.5 20 -28.5 29s-22.167 13.5 -33.5 13.5c-32.667 0 -49 -25 -49 -75h-30zM316 474c-57.333 0 -105 -22.667 -143 -68s-57 -100.666 -57 -165.999v-240
h-35v492h35v-101l-3 -37h13c10 46 32.5 82.167 67.5 108.5s79.167 39.5 132.5 39.5c51.333 0 91.333 -15.833 120 -47.5s43 -75.834 43 -132.501v-322h-34v320c0 54 -11.667 93.167 -35 117.5s-58 36.5 -104 36.5z" />
    <glyph glyph-name="ograve" unicode="&#xf2;" horiz-adv-x="620" 
d="M441 625l-10 -34l-257 75l10 34zM61 246c0 67.333 22.667 126.833 68 178.5s105.666 77.5 180.999 77.5s135.5 -25.833 180.5 -77.5s67.5 -111.167 67.5 -178.5s-22.5 -126.833 -67.5 -178.5s-105.167 -77.5 -180.5 -77.5s-135.666 25.833 -180.999 77.5
s-68 111.167 -68 178.5zM96 246c0 -62 18.833 -115.5 56.5 -160.5s90.167 -67.5 157.5 -67.5s119.833 22.5 157.5 67.5s56.5 98.5 56.5 160.5s-18.833 115.5 -56.5 160.5s-90.167 67.5 -157.5 67.5s-119.833 -22.5 -157.5 -67.5s-56.5 -98.5 -56.5 -160.5z" />
    <glyph glyph-name="oacute" unicode="&#xf3;" horiz-adv-x="620" 
d="M180 625l257 75l10 -34l-257 -75zM61 246c0 67.333 22.667 126.833 68 178.5s105.666 77.5 180.999 77.5s135.5 -25.833 180.5 -77.5s67.5 -111.167 67.5 -178.5s-22.5 -126.833 -67.5 -178.5s-105.167 -77.5 -180.5 -77.5s-135.666 25.833 -180.999 77.5
s-68 111.167 -68 178.5zM96 246c0 -62 18.833 -115.5 56.5 -160.5s90.167 -67.5 157.5 -67.5s119.833 22.5 157.5 67.5s56.5 98.5 56.5 160.5s-18.833 115.5 -56.5 160.5s-90.167 67.5 -157.5 67.5s-119.833 -22.5 -157.5 -67.5s-56.5 -98.5 -56.5 -160.5z" />
    <glyph glyph-name="ocircumflex" unicode="&#xf4;" horiz-adv-x="620" 
d="M440 597l-17 -26l-112 104l-113 -104l-17 26l130 119zM61 246c0 67.333 22.667 126.833 68 178.5s105.666 77.5 180.999 77.5s135.5 -25.833 180.5 -77.5s67.5 -111.167 67.5 -178.5s-22.5 -126.833 -67.5 -178.5s-105.167 -77.5 -180.5 -77.5
s-135.666 25.833 -180.999 77.5s-68 111.167 -68 178.5zM96 246c0 -62 18.833 -115.5 56.5 -160.5s90.167 -67.5 157.5 -67.5s119.833 22.5 157.5 67.5s56.5 98.5 56.5 160.5s-18.833 115.5 -56.5 160.5s-90.167 67.5 -157.5 67.5s-119.833 -22.5 -157.5 -67.5
s-56.5 -98.5 -56.5 -160.5z" />
    <glyph glyph-name="otilde" unicode="&#xf5;" horiz-adv-x="620" 
d="M161 587c0 35.333 7.16699 61.666 21.5 78.999s31.5 26 51.5 26c18 0 34.5 -4.5 49.5 -13.5s26.5 -18.833 34.5 -29.5s17.5 -20.5 28.5 -29.5s22.167 -13.5 33.5 -13.5c13.333 0 24.833 5.83301 34.5 17.5s14.5 31.167 14.5 58.5h30
c0 -35.333 -7.16699 -61.666 -21.5 -78.999s-31.5 -26 -51.5 -26c-18 0 -34.5 4.5 -49.5 13.5s-26.5 18.667 -34.5 29s-17.5 20 -28.5 29s-22.167 13.5 -33.5 13.5c-32.667 0 -49 -25 -49 -75h-30zM61 246c0 67.333 22.667 126.833 68 178.5s105.666 77.5 180.999 77.5
s135.5 -25.833 180.5 -77.5s67.5 -111.167 67.5 -178.5s-22.5 -126.833 -67.5 -178.5s-105.167 -77.5 -180.5 -77.5s-135.666 25.833 -180.999 77.5s-68 111.167 -68 178.5zM96 246c0 -62 18.833 -115.5 56.5 -160.5s90.167 -67.5 157.5 -67.5s119.833 22.5 157.5 67.5
s56.5 98.5 56.5 160.5s-18.833 115.5 -56.5 160.5s-90.167 67.5 -157.5 67.5s-119.833 -22.5 -157.5 -67.5s-56.5 -98.5 -56.5 -160.5z" />
    <glyph glyph-name="odieresis" unicode="&#xf6;" horiz-adv-x="620" 
d="M224 602c-14.667 0 -27.834 5.66699 -39.501 17s-17.5 24.666 -17.5 39.999s5.83301 28.5 17.5 39.5s24.834 16.5 39.501 16.5s27.834 -5.5 39.501 -16.5s17.5 -24.167 17.5 -39.5s-5.83301 -28.666 -17.5 -39.999s-24.834 -17 -39.501 -17zM397 602
c-14.667 0 -27.667 5.66699 -39 17s-17 24.666 -17 39.999s5.66699 28.5 17 39.5s24.333 16.5 39 16.5s27.834 -5.5 39.501 -16.5s17.5 -24.167 17.5 -39.5s-5.83301 -28.666 -17.5 -39.999s-24.834 -17 -39.501 -17zM61 246c0 67.333 22.667 126.833 68 178.5
s105.666 77.5 180.999 77.5s135.5 -25.833 180.5 -77.5s67.5 -111.167 67.5 -178.5s-22.5 -126.833 -67.5 -178.5s-105.167 -77.5 -180.5 -77.5s-135.666 25.833 -180.999 77.5s-68 111.167 -68 178.5zM96 246c0 -62 18.833 -115.5 56.5 -160.5s90.167 -67.5 157.5 -67.5
s119.833 22.5 157.5 67.5s56.5 98.5 56.5 160.5s-18.833 115.5 -56.5 160.5s-90.167 67.5 -157.5 67.5s-119.833 -22.5 -157.5 -67.5s-56.5 -98.5 -56.5 -160.5z" />
    <glyph glyph-name="divide" unicode="&#xf7;" horiz-adv-x="621" 
d="M311 345c-18 0 -33.5 6.5 -46.5 19.5s-19.5 28.833 -19.5 47.5c0 18 6.5 33.5 19.5 46.5s28.5 19.5 46.5 19.5c17.333 0 32.833 -6.5 46.5 -19.5s20.5 -28.5 20.5 -46.5c0 -18.667 -6.83301 -34.5 -20.5 -47.5s-29.167 -19.5 -46.5 -19.5zM91 258h439v-34h-439v34zM311 3
c-18 0 -33.5 6.5 -46.5 19.5s-19.5 28.833 -19.5 47.5s6.5 34.5 19.5 47.5s28.5 19.5 46.5 19.5c17.333 0 32.833 -6.66699 46.5 -20s20.5 -29 20.5 -47s-6.83301 -33.667 -20.5 -47s-29.167 -20 -46.5 -20z" />
    <glyph glyph-name="oslash" unicode="&#xf8;" horiz-adv-x="620" 
d="M454 456c32.667 -23.333 58.167 -53.999 76.5 -91.999s27.5 -77.333 27.5 -118c0 -67.333 -22.5 -126.833 -67.5 -178.5s-105.167 -77.5 -180.5 -77.5c-41.333 0 -78.666 8.33301 -111.999 25l-37 -63l-29 16l37 64c-34 24 -60.5 55.167 -79.5 93.5
s-28.5 78.5 -28.5 120.5c0 67.333 22.667 126.666 68 177.999s105.666 77 180.999 77c42 0 80.333 -9 115 -27l36 63l30 -16zM96 246.001c0 -82.667 29 -145.667 87 -189l228 393c-29.333 15.333 -63 23 -101 23c-67.333 0 -119.833 -22.333 -157.5 -67
s-56.5 -98 -56.5 -160zM310 18.001c67.333 0 119.833 22.332 157.5 66.999s56.5 98.334 56.5 161.001c0 37.333 -7.16699 72.5 -21.5 105.5s-35.5 59.833 -63.5 80.5l-227 -392c29.333 -14.667 62 -22 98 -22z" />
    <glyph glyph-name="ugrave" unicode="&#xf9;" horiz-adv-x="551" 
d="M419 625l-10 -34l-257 75l10 34zM245 18c57.333 0 104.999 22.667 142.999 68s57 100.333 57 165v241h34v-492h-34v101l3 37h-13c-10 -45.333 -32.667 -81.333 -68 -108s-79.666 -40 -132.999 -40c-51.333 0 -91.333 15.667 -120 47s-43 75.333 -43 132v323h35v-320
c0 -54 11.5 -93.167 34.5 -117.5s57.833 -36.5 104.5 -36.5z" />
    <glyph glyph-name="uacute" unicode="&#xfa;" horiz-adv-x="551" 
d="M159 625l257 75l10 -34l-257 -75zM245 18c57.333 0 104.999 22.667 142.999 68s57 100.333 57 165v241h34v-492h-34v101l3 37h-13c-10 -45.333 -32.667 -81.333 -68 -108s-79.666 -40 -132.999 -40c-51.333 0 -91.333 15.667 -120 47s-43 75.333 -43 132v323h35v-320
c0 -54 11.5 -93.167 34.5 -117.5s57.833 -36.5 104.5 -36.5z" />
    <glyph glyph-name="ucircumflex" unicode="&#xfb;" horiz-adv-x="551" 
d="M418 597l-17 -26l-112 104l-113 -104l-17 26l130 119zM245 18c57.333 0 104.999 22.667 142.999 68s57 100.333 57 165v241h34v-492h-34v101l3 37h-13c-10 -45.333 -32.667 -81.333 -68 -108s-79.666 -40 -132.999 -40c-51.333 0 -91.333 15.667 -120 47
s-43 75.333 -43 132v323h35v-320c0 -54 11.5 -93.167 34.5 -117.5s57.833 -36.5 104.5 -36.5z" />
    <glyph glyph-name="udieresis" unicode="&#xfc;" horiz-adv-x="551" 
d="M202 602c-14.667 0 -27.834 5.66699 -39.501 17s-17.5 24.666 -17.5 39.999s5.83301 28.5 17.5 39.5s24.834 16.5 39.501 16.5s27.834 -5.5 39.501 -16.5s17.5 -24.167 17.5 -39.5s-5.83301 -28.666 -17.5 -39.999s-24.834 -17 -39.501 -17zM375 602
c-14.667 0 -27.667 5.66699 -39 17s-17 24.666 -17 39.999s5.66699 28.5 17 39.5s24.333 16.5 39 16.5s27.834 -5.5 39.501 -16.5s17.5 -24.167 17.5 -39.5s-5.83301 -28.666 -17.5 -39.999s-24.834 -17 -39.501 -17zM245 18c57.333 0 104.999 22.667 142.999 68
s57 100.333 57 165v241h34v-492h-34v101l3 37h-13c-10 -45.333 -32.667 -81.333 -68 -108s-79.666 -40 -132.999 -40c-51.333 0 -91.333 15.667 -120 47s-43 75.333 -43 132v323h35v-320c0 -54 11.5 -93.167 34.5 -117.5s57.833 -36.5 104.5 -36.5z" />
    <glyph glyph-name="yacute" unicode="&#xfd;" horiz-adv-x="543" 
d="M414 666l-257 -75l-10 34l257 75zM467 492h34l-207 -502v-128c0 -32 -19.333 -47 -58 -45l-159 11v28l183 -13v147l-209 502h35l184 -452v-13h14v13z" />
    <glyph glyph-name="thorn" unicode="&#xfe;" horiz-adv-x="637" 
d="M341 502c71.333 0 128.333 -22.499 171 -67.499s64 -108.167 64 -189.5c0 -80.667 -21.5 -143.334 -64.5 -188.001s-99.833 -67 -170.5 -67c-53.333 0 -100.333 13.5 -141 40.5s-65.334 61.5 -74.001 103.5h-13l3 -36v-275h-35v912h35v-341l-3 -37h13
c8.66699 42 33.334 76.667 74.001 104s87.667 41 141 41zM335 18.001c60 0 109.333 19.167 148 57.5s58 94.833 58 169.5c0 75.333 -19.333 132.333 -58 171s-88 58 -148 58c-61.333 0 -113.166 -19.333 -155.499 -58s-63.5 -95.667 -63.5 -171
c0 -74.667 21.167 -131.167 63.5 -169.5s94.166 -57.5 155.499 -57.5z" />
    <glyph glyph-name="ydieresis" unicode="&#xff;" horiz-adv-x="543" 
d="M190 602c-14.667 0 -27.834 5.66699 -39.501 17s-17.5 24.666 -17.5 39.999s5.83301 28.5 17.5 39.5s24.834 16.5 39.501 16.5s27.834 -5.5 39.501 -16.5s17.5 -24.167 17.5 -39.5s-5.83301 -28.666 -17.5 -39.999s-24.834 -17 -39.501 -17zM363 602
c-14.667 0 -27.667 5.66699 -39 17s-17 24.666 -17 39.999s5.66699 28.5 17 39.5s24.333 16.5 39 16.5s27.834 -5.5 39.501 -16.5s17.5 -24.167 17.5 -39.5s-5.83301 -28.666 -17.5 -39.999s-24.834 -17 -39.501 -17zM467 492h34l-207 -502v-128c0 -32 -19.333 -47 -58 -45
l-159 11v28l183 -13v147l-209 502h35l184 -452v-13h14v13z" />
    <glyph glyph-name="Amacron" unicode="&#x100;" horiz-adv-x="637" 
d="M448 874v-34h-258v34h258zM563 0l-105 306h-279l-105 -306h-33l242 705h71l242 -705h-33zM189 334h259l-123 358h-13z" />
    <glyph glyph-name="amacron" unicode="&#x101;" horiz-adv-x="561" 
d="M140 661h258v-34h-258v34zM61 138c0 39.333 12.5029 71.165 37.5029 95.498s63.5 38.5 115.5 42.5l208 16c-4 59.333 -20 103.833 -48 133.5s-66.333 44.5 -115 44.5c-45.333 0 -83.833 -12.333 -115.5 -37s-47.5 -65 -47.5 -121h-38c0 50 17.167 94.167 51.5 132.5
s84.166 57.5 149.499 57.5s114.666 -21.167 147.999 -63.5s50 -94.5 50 -156.5v-254h73v-28h-62c-14.667 0 -26.334 4.33301 -35.001 13s-13 20.334 -13 35.001v37l5 47h-13c-10 -38 -33.5 -71.167 -70.5 -99.5s-81.167 -42.5 -132.5 -42.5c-30.667 0 -56.5 5 -77.5 15
s-36.167 23.333 -45.5 40s-15.833 32.334 -19.5 47.001s-5.5 30 -5.5 46zM96.0029 135.999c0 -37.333 10.167 -66.333 30.5 -87s49.5 -31 87.5 -31c44 0 82.5 13.5 115.5 40.5s56.667 58.5 71 94.5s21.5 72 21.5 108l-205 -18c-43.333 -3.33301 -74.333 -13 -93 -29
s-28 -42 -28 -78z" />
    <glyph glyph-name="Abreve" unicode="&#x102;" horiz-adv-x="637" 
d="M319 780c-94 0 -141 52 -141 156h35c0 -39.333 8.16699 -68.833 24.5 -88.5s43.5 -29.5 81.5 -29.5s65 9.83301 81 29.5s24 49.167 24 88.5h35c0 -104 -46.667 -156 -140 -156zM563 0l-105 306h-279l-105 -306h-33l242 705h71l242 -705h-33zM189 334h259l-123 358h-13z
" />
    <glyph glyph-name="abreve" unicode="&#x103;" horiz-adv-x="561" 
d="M409 723c0 -104 -46.667 -156 -140 -156c-94 0 -141 52 -141 156h35c0 -39.333 8.16699 -68.833 24.5 -88.5s43.5 -29.5 81.5 -29.5s65 9.83301 81 29.5s24 49.167 24 88.5h35zM61 138c0 39.333 12.5029 71.165 37.5029 95.498s63.5 38.5 115.5 42.5l208 16
c-4 59.333 -20 103.833 -48 133.5s-66.333 44.5 -115 44.5c-45.333 0 -83.833 -12.333 -115.5 -37s-47.5 -65 -47.5 -121h-38c0 50 17.167 94.167 51.5 132.5s84.166 57.5 149.499 57.5s114.666 -21.167 147.999 -63.5s50 -94.5 50 -156.5v-254h73v-28h-62
c-14.667 0 -26.334 4.33301 -35.001 13s-13 20.334 -13 35.001v37l5 47h-13c-10 -38 -33.5 -71.167 -70.5 -99.5s-81.167 -42.5 -132.5 -42.5c-30.667 0 -56.5 5 -77.5 15s-36.167 23.333 -45.5 40s-15.833 32.334 -19.5 47.001s-5.5 30 -5.5 46zM96.0029 135.999
c0 -37.333 10.167 -66.333 30.5 -87s49.5 -31 87.5 -31c44 0 82.5 13.5 115.5 40.5s56.667 58.5 71 94.5s21.5 72 21.5 108l-205 -18c-43.333 -3.33301 -74.333 -13 -93 -29s-28 -42 -28 -78z" />
    <glyph glyph-name="Aogonek" unicode="&#x104;" horiz-adv-x="637" 
d="M513 -152l216 22v-35l-205 -20c-20 -2 -33.667 3.5 -41 16.5s-6 28.167 4 45.5l73 124h3l-105 305h-279l-105 -306h-33l242 705h71l242 -705h-2zM189 334h259l-123 358h-13z" />
    <glyph glyph-name="aogonek" unicode="&#x105;" horiz-adv-x="561" 
d="M448 -152l216.003 21.999v-35l-205 -20c-20 -2 -33.667 3.5 -41 16.5s-6 28.167 4 45.5l72 123h-26c-14.667 0 -26.334 4.33301 -35.001 13s-13 20.334 -13 35.001v37l5 47h-13c-10 -38 -33.5 -71.167 -70.5 -99.5s-81.167 -42.5 -132.5 -42.5
c-30.667 0 -56.5 5 -77.5 15s-36.167 23.333 -45.5 40s-15.833 32.334 -19.5 47.001s-5.5 30 -5.5 46c0 39.333 12.5 71.166 37.5 95.499s63.5 38.5 115.5 42.5l208 16c-4 59.333 -20 103.833 -48 133.5s-66.333 44.5 -115 44.5c-45.333 0 -83.833 -12.333 -115.5 -37
s-47.5 -65 -47.5 -121h-38c0 50 17.167 94.167 51.5 132.5s84.166 57.5 149.499 57.5s114.666 -21.167 147.999 -63.5s50 -94.5 50 -156.5v-254h73v-28h-1zM214.003 17.999c44 0 82.5 13.5 115.5 40.5s56.667 58.5 71 94.5s21.5 72 21.5 108l-205 -18
c-43.333 -3.33301 -74.333 -13 -93 -29s-28 -42 -28 -78c0 -37.333 10.167 -66.333 30.5 -87s49.5 -31 87.5 -31z" />
    <glyph glyph-name="Cacute" unicode="&#x106;" horiz-adv-x="754" 
d="M252 838l257 75l10 -34l-257 -75zM71 353c0 105.333 27.667 192.001 83 260.001s131 102 227 102c84.667 0 153.5 -25 206.5 -75s84.833 -119 95.5 -207h-35c-8 81.333 -34.5 144 -79.5 188s-107.5 66 -187.5 66c-90.667 0 -159.167 -31.167 -205.5 -93.5
s-69.5 -142.5 -69.5 -240.5c0 -98.667 23.167 -179.167 69.5 -241.5s114.833 -93.5 205.5 -93.5c80 0 142.5 22.167 187.5 66.5s71.5 107.166 79.5 188.499h35c-10.667 -88 -42.5 -157.167 -95.5 -207.5s-121.833 -75.5 -206.5 -75.5c-96 0 -171.667 34 -227 102
s-83 155 -83 261z" />
    <glyph glyph-name="cacute" unicode="&#x107;" horiz-adv-x="570" 
d="M171 625l257 75l10 -34l-257 -75zM61 246c0 69.333 20.665 129.333 61.998 180s99.333 76 174 76c16.667 0 33 -1.33301 49 -4s33.5 -8.16699 52.5 -16.5s35.667 -19 50 -32s27 -31 38 -54s18.167 -49.5 21.5 -79.5h-34c-16.667 105.333 -75.667 158 -177 158
c-66 0 -116 -22 -150 -66s-51 -98 -51 -162s17 -118 51 -162s84 -66 150 -66c101.333 0 160.333 52.667 177 158h34c-4 -37.333 -13.5 -69 -28.5 -95s-33.667 -45.167 -56 -57.5s-43.666 -21 -63.999 -26s-41.166 -7.5 -62.499 -7.5c-74.667 0 -132.667 25.167 -174 75.5
s-62 110.5 -62 180.5z" />
    <glyph glyph-name="Cdotaccent" unicode="&#x10a;" horiz-adv-x="754" 
d="M381 815c-14.667 0 -27.834 5.66699 -39.501 17s-17.5 24.666 -17.5 39.999s5.83301 28.5 17.5 39.5s24.834 16.5 39.501 16.5s27.834 -5.5 39.501 -16.5s17.5 -24.167 17.5 -39.5s-5.83301 -28.666 -17.5 -39.999s-24.834 -17 -39.501 -17zM71 353
c0 105.333 27.667 192.001 83 260.001s131 102 227 102c84.667 0 153.5 -25 206.5 -75s84.833 -119 95.5 -207h-35c-8 81.333 -34.5 144 -79.5 188s-107.5 66 -187.5 66c-90.667 0 -159.167 -31.167 -205.5 -93.5s-69.5 -142.5 -69.5 -240.5
c0 -98.667 23.167 -179.167 69.5 -241.5s114.833 -93.5 205.5 -93.5c80 0 142.5 22.167 187.5 66.5s71.5 107.166 79.5 188.499h35c-10.667 -88 -42.5 -157.167 -95.5 -207.5s-121.833 -75.5 -206.5 -75.5c-96 0 -171.667 34 -227 102s-83 155 -83 261z" />
    <glyph glyph-name="cdotaccent" unicode="&#x10b;" horiz-adv-x="570" 
d="M301 602c-14.667 0 -27.834 5.66699 -39.501 17s-17.5 24.666 -17.5 39.999s5.83301 28.5 17.5 39.5s24.834 16.5 39.501 16.5s27.834 -5.5 39.501 -16.5s17.5 -24.167 17.5 -39.5s-5.83301 -28.666 -17.5 -39.999s-24.834 -17 -39.501 -17zM61 246
c0 69.333 20.665 129.333 61.998 180s99.333 76 174 76c16.667 0 33 -1.33301 49 -4s33.5 -8.16699 52.5 -16.5s35.667 -19 50 -32s27 -31 38 -54s18.167 -49.5 21.5 -79.5h-34c-16.667 105.333 -75.667 158 -177 158c-66 0 -116 -22 -150 -66s-51 -98 -51 -162
s17 -118 51 -162s84 -66 150 -66c101.333 0 160.333 52.667 177 158h34c-4 -37.333 -13.5 -69 -28.5 -95s-33.667 -45.167 -56 -57.5s-43.666 -21 -63.999 -26s-41.166 -7.5 -62.499 -7.5c-74.667 0 -132.667 25.167 -174 75.5s-62 110.5 -62 180.5z" />
    <glyph glyph-name="Ccaron" unicode="&#x10c;" horiz-adv-x="754" 
d="M511 901l-129 -119l-130 119l17 26l113 -104l112 104zM71 353c0 105.333 27.667 192.001 83 260.001s131 102 227 102c84.667 0 153.5 -25 206.5 -75s84.833 -119 95.5 -207h-35c-8 81.333 -34.5 144 -79.5 188s-107.5 66 -187.5 66
c-90.667 0 -159.167 -31.167 -205.5 -93.5s-69.5 -142.5 -69.5 -240.5c0 -98.667 23.167 -179.167 69.5 -241.5s114.833 -93.5 205.5 -93.5c80 0 142.5 22.167 187.5 66.5s71.5 107.166 79.5 188.499h35c-10.667 -88 -42.5 -157.167 -95.5 -207.5
s-121.833 -75.5 -206.5 -75.5c-96 0 -171.667 34 -227 102s-83 155 -83 261z" />
    <glyph glyph-name="ccaron" unicode="&#x10d;" horiz-adv-x="570" 
d="M431 688l-129 -119l-130 119l17 26l113 -104l112 104zM61 246c0 69.333 20.665 129.333 61.998 180s99.333 76 174 76c16.667 0 33 -1.33301 49 -4s33.5 -8.16699 52.5 -16.5s35.667 -19 50 -32s27 -31 38 -54s18.167 -49.5 21.5 -79.5h-34
c-16.667 105.333 -75.667 158 -177 158c-66 0 -116 -22 -150 -66s-51 -98 -51 -162s17 -118 51 -162s84 -66 150 -66c101.333 0 160.333 52.667 177 158h34c-4 -37.333 -13.5 -69 -28.5 -95s-33.667 -45.167 -56 -57.5s-43.666 -21 -63.999 -26s-41.166 -7.5 -62.499 -7.5
c-74.667 0 -132.667 25.167 -174 75.5s-62 110.5 -62 180.5z" />
    <glyph glyph-name="Dcaron" unicode="&#x10e;" horiz-adv-x="689" 
d="M418 901l-129 -119l-130 119l17 26l113 -104l112 104zM283 705c36 0 68.499 -2.33301 97.499 -7s58.667 -14.5 89 -29.5s55.833 -35 76.5 -60s37.667 -59.167 51 -102.5s20 -94.333 20 -153s-6.66699 -109.667 -20 -153s-30.166 -77.5 -50.499 -102.5
s-45.833 -45.167 -76.5 -60.5s-60.5 -25.333 -89.5 -30s-61.5 -7 -97.5 -7h-202v705h202zM282.999 28c30 0 56.667 1.66797 80 5.00098s49.5 11.5 78.5 24.5s53.167 30.667 72.5 53s35.666 54.166 48.999 95.499s20 90.333 20 147s-6.66699 105.667 -20 147
s-29.666 73 -48.999 95s-43.5 39.5 -72.5 52.5s-55.167 21.167 -78.5 24.5s-50 5 -80 5h-167v-649h167z" />
    <glyph glyph-name="dcaron" unicode="&#x10f;" horiz-adv-x="705" 
d="M556 0h-35v98l4 36h-14c-8.66699 -42 -33.5 -76.5 -74.5 -103.5s-88.167 -40.5 -141.5 -40.5c-66.667 0 -122.334 23.5 -167.001 70.5s-67 108.833 -67 185.5s22.333 138.5 67 185.5s100.334 70.5 167.001 70.5c53.333 0 100.5 -13.667 141.5 -41s65.833 -62 74.5 -104
h14l-4 37v341h35v-735zM606 722h35v-214h-35v214zM521 246c0 75.333 -21 132.169 -63 170.502s-94 57.5 -156 57.5c-60.667 0 -110.167 -19 -148.5 -57s-57.5 -95 -57.5 -171c0 -76.667 19.167 -133.834 57.5 -171.501s87.833 -56.5 148.5 -56.5c62 0 114 19.167 156 57.5
s63 95.166 63 170.499z" />
    <glyph glyph-name="Dcroat" unicode="&#x110;" horiz-adv-x="742" 
d="M336 705c36 0 68.5 -2.33301 97.5 -7s58.833 -14.667 89.5 -30s56.334 -35.333 77.001 -60s37.667 -58.667 51 -102s20 -94.333 20 -153s-6.66699 -109.667 -20 -153s-30.333 -77.5 -51 -102.5s-46.334 -45.167 -77.001 -60.5s-60.5 -25.333 -89.5 -30s-61.5 -7 -97.5 -7
h-201v348h-64v34h64v323h201zM336 28c30 0 56.667 1.66797 80 5.00098s49.5 11.5 78.5 24.5s53.167 30.667 72.5 53s35.666 54.166 48.999 95.499s20 90.333 20 147s-6.66699 105.667 -20 147s-29.666 73 -48.999 95s-43.5 39.5 -72.5 52.5s-55.167 21.167 -78.5 24.5
s-50 5 -80 5h-167v-295h220v-34h-220v-320h167z" />
    <glyph glyph-name="dcroat" unicode="&#x111;" horiz-adv-x="667" 
d="M616 671v-35h-60v-636h-35v98l4 36h-14c-8.66699 -42 -33.5 -76.5 -74.5 -103.5s-88.167 -40.5 -141.5 -40.5c-66.667 0 -122.334 23.5 -167.001 70.5s-67 108.833 -67 185.5s22.333 138.5 67 185.5s100.334 70.5 167.001 70.5c53.333 0 100.5 -13.667 141.5 -41
s65.833 -62 74.5 -104h14l-4 37v242h-138v35h138v64h35v-64h60zM302 18c62 0 114 19.1699 156 57.5029s63 95.166 63 170.499s-21 132.166 -63 170.499s-94 57.5 -156 57.5c-60.667 0 -110.167 -19 -148.5 -57s-57.5 -95 -57.5 -171
c0 -76.667 19.167 -133.834 57.5 -171.501s87.833 -56.5 148.5 -56.5z" />
    <glyph glyph-name="Emacron" unicode="&#x112;" horiz-adv-x="539" 
d="M151 874h258v-34h-258v34zM81 0v705h397v-28h-362v-310h312v-28h-312v-311h362v-28h-397z" />
    <glyph glyph-name="emacron" unicode="&#x113;" horiz-adv-x="575" 
d="M159 661h258v-34h-258v34zM61 254c0 78 20.832 138.834 62.499 182.501s95.834 65.5 162.501 65.5c65.333 0 116.833 -21 154.5 -63s56.5 -101 56.5 -177v-20h-400c9.33301 -147.333 75.333 -221 198 -221c99.333 0 160.666 50 183.999 150h35
c-7.33301 -24 -15.5 -45 -24.5 -63s-21.667 -36.833 -38 -56.5s-37.666 -34.834 -63.999 -45.501s-57.166 -16 -92.499 -16c-78.667 0 -137.334 25 -176.001 75s-58 113 -58 189zM96.999 273.001h362c0 63.333 -15.333 112 -46 146s-73 51 -127 51s-99 -17.333 -135 -52
s-54 -83 -54 -145z" />
    <glyph glyph-name="Edotaccent" unicode="&#x116;" horiz-adv-x="539" 
d="M279 815c-14.667 0 -27.834 5.66699 -39.501 17s-17.5 24.666 -17.5 39.999s5.83301 28.5 17.5 39.5s24.834 16.5 39.501 16.5s27.834 -5.5 39.501 -16.5s17.5 -24.167 17.5 -39.5s-5.83301 -28.666 -17.5 -39.999s-24.834 -17 -39.501 -17zM81 0v705h397v-28h-362v-310
h312v-28h-312v-311h362v-28h-397z" />
    <glyph glyph-name="edotaccent" unicode="&#x117;" horiz-adv-x="575" 
d="M287 602c-14.667 0 -27.834 5.66699 -39.501 17s-17.5 24.666 -17.5 39.999s5.83301 28.5 17.5 39.5s24.834 16.5 39.501 16.5s27.834 -5.5 39.501 -16.5s17.5 -24.167 17.5 -39.5s-5.83301 -28.666 -17.5 -39.999s-24.834 -17 -39.501 -17zM61 254
c0 78 20.832 138.834 62.499 182.501s95.834 65.5 162.501 65.5c65.333 0 116.833 -21 154.5 -63s56.5 -101 56.5 -177v-20h-400c9.33301 -147.333 75.333 -221 198 -221c99.333 0 160.666 50 183.999 150h35c-7.33301 -24 -15.5 -45 -24.5 -63s-21.667 -36.833 -38 -56.5
s-37.666 -34.834 -63.999 -45.501s-57.166 -16 -92.499 -16c-78.667 0 -137.334 25 -176.001 75s-58 113 -58 189zM96.999 273.001h362c0 63.333 -15.333 112 -46 146s-73 51 -127 51s-99 -17.333 -135 -52s-54 -83 -54 -145z" />
    <glyph glyph-name="Eogonek" unicode="&#x118;" horiz-adv-x="539" 
d="M478 677h-362v-310h312v-28h-312v-311h362v-28h-143l-81 -152l216 22v-35l-205 -20c-20 -2 -33.667 3.5 -41 16.5s-6 28.167 4 45.5l72 123h-219v705h397v-28z" />
    <glyph glyph-name="eogonek" unicode="&#x119;" horiz-adv-x="575" 
d="M358 -3l-79.999 -149l216 22v-35l-205 -20c-20 -2 -33.667 3.5 -41 16.5s-6 28.167 4 45.5l67 114c-5.33301 -0.666992 -13.333 -1 -24 -1c-78.667 0 -137.334 25 -176.001 75s-58 113 -58 189c0 78 20.833 138.833 62.5 182.5s95.834 65.5 162.501 65.5
c65.333 0 116.833 -21 154.5 -63s56.5 -101 56.5 -177v-20h-400c9.33301 -147.333 75.333 -221 198 -221c99.333 0 160.666 50 183.999 150h35c-28.667 -97.333 -80.667 -155.333 -156 -174zM286.001 470c-54 0 -99 -17.333 -135 -52s-54 -83 -54 -145h362
c0 63.333 -15.333 112 -46 146s-73 51 -127 51z" />
    <glyph glyph-name="Ecaron" unicode="&#x11a;" horiz-adv-x="539" 
d="M409 901l-129 -119l-130 119l17 26l113 -104l112 104zM81 0v705h397v-28h-362v-310h312v-28h-312v-311h362v-28h-397z" />
    <glyph glyph-name="ecaron" unicode="&#x11b;" horiz-adv-x="575" 
d="M417 688l-129 -119l-130 119l17 26l113 -104l112 104zM61 254c0 78 20.832 138.834 62.499 182.501s95.834 65.5 162.501 65.5c65.333 0 116.833 -21 154.5 -63s56.5 -101 56.5 -177v-20h-400c9.33301 -147.333 75.333 -221 198 -221c99.333 0 160.666 50 183.999 150h35
c-7.33301 -24 -15.5 -45 -24.5 -63s-21.667 -36.833 -38 -56.5s-37.666 -34.834 -63.999 -45.501s-57.166 -16 -92.499 -16c-78.667 0 -137.334 25 -176.001 75s-58 113 -58 189zM96.999 273.001h362c0 63.333 -15.333 112 -46 146s-73 51 -127 51s-99 -17.333 -135 -52
s-54 -83 -54 -145z" />
    <glyph glyph-name="Gbreve" unicode="&#x11e;" horiz-adv-x="770" 
d="M523 936c0 -104 -46.667 -156 -140 -156c-94 0 -141 52 -141 156h35c0 -39.333 8.16699 -68.833 24.5 -88.5s43.5 -29.5 81.5 -29.5s65 9.83301 81 29.5s24 49.167 24 88.5h35zM71 353c0 104.667 28.498 191.168 85.498 259.501s134.833 102.5 233.5 102.5
c158 0 249 -87.333 273 -262h-35c-8.66699 73.333 -31.667 130.666 -69 171.999s-93.666 62 -168.999 62c-90.667 0 -160.667 -31.667 -210 -95s-74 -143 -74 -239c0 -48 4.33301 -91.333 13 -130s22.5 -73.834 41.5 -105.501s45.5 -56.167 79.5 -73.5s74.667 -26 122 -26
c82.667 0 143.167 25.667 181.5 77s55.833 130.333 52.5 237h-288v34h336c16.667 0 28.334 -2.83301 35.001 -8.5s10 -15.167 10 -28.5v-329h-39v275l4 78h-14c-0.666992 -127.333 -24 -219.666 -70 -276.999s-114.667 -86 -206 -86c-66 0 -121.5 16.5 -166.5 49.5
s-77.333 76 -97 129s-29.5 114.5 -29.5 184.5z" />
    <glyph glyph-name="gbreve" unicode="&#x11f;" horiz-adv-x="633" 
d="M294 567c-94 0 -141 52 -141 156h35c0 -39.333 8.16699 -68.833 24.5 -88.5s43.5 -29.5 81.5 -29.5s65 9.83301 81 29.5s24 49.167 24 88.5h35c0 -104 -46.667 -156 -140 -156zM557 492h44.002v-28h-47c-26.667 0 -51.667 -9 -75 -27c30.667 -38 46 -82 46 -132
c0 -58 -20.5 -106.833 -61.5 -146.5s-105.167 -75.5 -192.5 -107.5c42 7.33301 81.5 11.333 118.5 12s67.833 -8.33301 92.5 -27s37 -46.334 37 -83.001c0 -47.333 -31.167 -80.166 -93.5 -98.499s-171.5 -27.5 -327.5 -27.5v28c144.667 0 245.334 6 302.001 18
s85 39.333 85 82c0 30.667 -12.833 52.334 -38.5 65.001s-58 16.834 -97 12.501s-76.5 -11.166 -112.5 -20.499s-69 -20.333 -99 -33l-17 37c79.333 37.333 143 64.666 191 81.999v13c-72 -12.667 -131.833 -0.333984 -179.5 36.999s-71.5 89.666 -71.5 156.999
c0 65.333 23.667 114.5 71 147.5s106.666 49.5 177.999 49.5c47.333 0 93.333 -14.667 138 -44l31.5 14l23 10.5c3.66699 1.66699 8.66699 3.5 15 5.5s12.166 3.16699 17.499 3.5s12.666 0.5 21.999 0.5zM490.002 301c0 56 -18.333 98.833 -55 128.5s-83.667 44.5 -141 44.5
c-58 0 -105.5 -14.833 -142.5 -44.5s-55.5 -72.5 -55.5 -128.5s18.5 -98.833 55.5 -128.5s84.5 -44.5 142.5 -44.5c57.333 0 104.333 14.833 141 44.5s55 72.5 55 128.5z" />
    <glyph glyph-name="Gdotaccent" unicode="&#x120;" horiz-adv-x="770" 
d="M382 815c-14.667 0 -27.834 5.66699 -39.501 17s-17.5 24.666 -17.5 39.999s5.83301 28.5 17.5 39.5s24.834 16.5 39.501 16.5s27.834 -5.5 39.501 -16.5s17.5 -24.167 17.5 -39.5s-5.83301 -28.666 -17.5 -39.999s-24.834 -17 -39.501 -17zM71 353
c0 104.667 28.498 191.168 85.498 259.501s134.833 102.5 233.5 102.5c158 0 249 -87.333 273 -262h-35c-8.66699 73.333 -31.667 130.666 -69 171.999s-93.666 62 -168.999 62c-90.667 0 -160.667 -31.667 -210 -95s-74 -143 -74 -239c0 -48 4.33301 -91.333 13 -130
s22.5 -73.834 41.5 -105.501s45.5 -56.167 79.5 -73.5s74.667 -26 122 -26c82.667 0 143.167 25.667 181.5 77s55.833 130.333 52.5 237h-288v34h336c16.667 0 28.334 -2.83301 35.001 -8.5s10 -15.167 10 -28.5v-329h-39v275l4 78h-14
c-0.666992 -127.333 -24 -219.666 -70 -276.999s-114.667 -86 -206 -86c-66 0 -121.5 16.5 -166.5 49.5s-77.333 76 -97 129s-29.5 114.5 -29.5 184.5z" />
    <glyph glyph-name="gdotaccent" unicode="&#x121;" horiz-adv-x="633" 
d="M293 602c-14.667 0 -27.834 5.66699 -39.501 17s-17.5 24.666 -17.5 39.999s5.83301 28.5 17.5 39.5s24.834 16.5 39.501 16.5s27.834 -5.5 39.501 -16.5s17.5 -24.167 17.5 -39.5s-5.83301 -28.666 -17.5 -39.999s-24.834 -17 -39.501 -17zM557 492h44.002v-28h-47
c-26.667 0 -51.667 -9 -75 -27c30.667 -38 46 -82 46 -132c0 -58 -20.5 -106.833 -61.5 -146.5s-105.167 -75.5 -192.5 -107.5c42 7.33301 81.5 11.333 118.5 12s67.833 -8.33301 92.5 -27s37 -46.334 37 -83.001c0 -47.333 -31.167 -80.166 -93.5 -98.499
s-171.5 -27.5 -327.5 -27.5v28c144.667 0 245.334 6 302.001 18s85 39.333 85 82c0 30.667 -12.833 52.334 -38.5 65.001s-58 16.834 -97 12.501s-76.5 -11.166 -112.5 -20.499s-69 -20.333 -99 -33l-17 37c79.333 37.333 143 64.666 191 81.999v13
c-72 -12.667 -131.833 -0.333984 -179.5 36.999s-71.5 89.666 -71.5 156.999c0 65.333 23.667 114.5 71 147.5s106.666 49.5 177.999 49.5c47.333 0 93.333 -14.667 138 -44l31.5 14l23 10.5c3.66699 1.66699 8.66699 3.5 15 5.5s12.166 3.16699 17.499 3.5
s12.666 0.5 21.999 0.5zM490.002 301c0 56 -18.333 98.833 -55 128.5s-83.667 44.5 -141 44.5c-58 0 -105.5 -14.833 -142.5 -44.5s-55.5 -72.5 -55.5 -128.5s18.5 -98.833 55.5 -128.5s84.5 -44.5 142.5 -44.5c57.333 0 104.333 14.833 141 44.5s55 72.5 55 128.5z" />
    <glyph glyph-name="uni0122" unicode="&#x122;" horiz-adv-x="770" 
d="M71 353c0 104.667 28.498 191.168 85.498 259.501s134.833 102.5 233.5 102.5c158 0 249 -87.333 273 -262h-35c-8.66699 73.333 -31.667 130.666 -69 171.999s-93.666 62 -168.999 62c-90.667 0 -160.667 -31.667 -210 -95s-74 -143 -74 -239
c0 -48 4.33301 -91.333 13 -130s22.5 -73.834 41.5 -105.501s45.5 -56.167 79.5 -73.5s74.667 -26 122 -26c82.667 0 143.167 25.667 181.5 77s55.833 130.333 52.5 237h-288v34h336c16.667 0 28.334 -2.83301 35.001 -8.5s10 -15.167 10 -28.5v-329h-39v275l4 78h-14
c-0.666992 -127.333 -24 -219.666 -70 -276.999s-114.667 -86 -206 -86c-66 0 -121.5 16.5 -166.5 49.5s-77.333 76 -97 129s-29.5 114.5 -29.5 184.5zM343.998 -48.999l31 -10l-47 -162l-32 10z" />
    <glyph glyph-name="uni0123" unicode="&#x123;" horiz-adv-x="633" 
d="M367 748l-46 -160l-39 13l47 159zM557 492h44.002v-28h-47c-26.667 0 -51.667 -9 -75 -27c30.667 -38 46 -82 46 -132c0 -58 -20.5 -106.833 -61.5 -146.5s-105.167 -75.5 -192.5 -107.5c42 7.33301 81.5 11.333 118.5 12s67.833 -8.33301 92.5 -27
s37 -46.334 37 -83.001c0 -47.333 -31.167 -80.166 -93.5 -98.499s-171.5 -27.5 -327.5 -27.5v28c144.667 0 245.334 6 302.001 18s85 39.333 85 82c0 30.667 -12.833 52.334 -38.5 65.001s-58 16.834 -97 12.501s-76.5 -11.166 -112.5 -20.499s-69 -20.333 -99 -33l-17 37
c79.333 37.333 143 64.666 191 81.999v13c-72 -12.667 -131.833 -0.333984 -179.5 36.999s-71.5 89.666 -71.5 156.999c0 65.333 23.667 114.5 71 147.5s106.666 49.5 177.999 49.5c47.333 0 93.333 -14.667 138 -44l31.5 14l23 10.5c3.66699 1.66699 8.66699 3.5 15 5.5
s12.166 3.16699 17.499 3.5s12.666 0.5 21.999 0.5zM490.002 301c0 56 -18.333 98.833 -55 128.5s-83.667 44.5 -141 44.5c-58 0 -105.5 -14.833 -142.5 -44.5s-55.5 -72.5 -55.5 -128.5s18.5 -98.833 55.5 -128.5s84.5 -44.5 142.5 -44.5c57.333 0 104.333 14.833 141 44.5
s55 72.5 55 128.5z" />
    <glyph glyph-name="Hbar" unicode="&#x126;" horiz-adv-x="745" 
d="M693 590v-28h-60v-562h-34v337h-453v-337h-35v562h-60v28h60v115h35v-115h453v115h34v-115h60zM599 365v197h-453v-197h453z" />
    <glyph glyph-name="hbar" unicode="&#x127;" horiz-adv-x="587" 
d="M353 502c51.333 0 91.333 -15.833 120 -47.5s43 -75.834 43 -132.501v-322h-35v320c0 54 -11.5 93.167 -34.5 117.5s-57.5 36.5 -103.5 36.5c-58 0 -105.833 -22.667 -143.5 -68s-56.5 -100.666 -56.5 -165.999v-240h-35v636h-47v35h47v64h35v-64h152v-35h-152v-245
l-4 -37h14c10 46 32.5 82.167 67.5 108.5s79.167 39.5 132.5 39.5z" />
    <glyph glyph-name="Imacron" unicode="&#x12a;" horiz-adv-x="489" 
d="M374 874v-34h-258v34h258zM418 677h-156v-649h156v-28h-347v28h156v649h-156v28h347v-28z" />
    <glyph glyph-name="imacron" unicode="&#x12b;" horiz-adv-x="404" 
d="M40 661h258v-34h-258v34zM56 0v28h141v447l-94 -11v28l67 10c20 2.66699 33.833 -1 41.5 -11s11.5 -26 11.5 -48v-415h140v-28h-307z" />
    <glyph glyph-name="Iogonek" unicode="&#x12e;" horiz-adv-x="489" 
d="M226 -152l216 22v-35l-205 -20c-20 -2 -33.667 3.5 -41 16.5s-6 28.167 4 45.5l72 123h-201v28h156v649h-156v28h347v-28h-156v-649h156v-28h-111z" />
    <glyph glyph-name="iogonek" unicode="&#x12f;" horiz-adv-x="409" 
d="M176 602c-14.667 0 -27.834 5.66699 -39.501 17s-17.5 24.666 -17.5 39.999s5.83301 28.5 17.5 39.5s24.834 16.5 39.501 16.5s27.834 -5.5 39.501 -16.5s17.5 -24.167 17.5 -39.5s-5.83301 -28.666 -17.5 -39.999s-24.834 -17 -39.501 -17zM368 0h-145l-81 -152l216 22
v-35l-205 -20c-20 -2 -33.667 3.5 -41 16.5s-6 28.167 4 45.5l72 123h-127v28h141v447l-94 -11v28l67 10c20 2.66699 33.833 -1 41.5 -11s11.5 -26 11.5 -48v-415h140v-28z" />
    <glyph glyph-name="Idotaccent" unicode="&#x130;" horiz-adv-x="489" 
d="M244 815c-14.667 0 -27.834 5.66699 -39.501 17s-17.5 24.666 -17.5 39.999s5.83301 28.5 17.5 39.5s24.834 16.5 39.501 16.5s27.834 -5.5 39.501 -16.5s17.5 -24.167 17.5 -39.5s-5.83301 -28.666 -17.5 -39.999s-24.834 -17 -39.501 -17zM418 677h-156v-649h156v-28
h-347v28h156v649h-156v28h347v-28z" />
    <glyph glyph-name="dotlessi" unicode="&#x131;" horiz-adv-x="409" 
d="M61 0v28h141v447l-94 -11v28l67 10c20 2.66699 33.833 -1 41.5 -11s11.5 -26 11.5 -48v-415h140v-28h-307z" />
    <glyph glyph-name="uni0136" unicode="&#x136;" horiz-adv-x="612" 
d="M570 705l-433 -352l433 -353h-48l-406 331v-331h-35v705h35v-331l406 331h48zM231 -211l48 162l31 -10l-47 -162z" />
    <glyph glyph-name="uni0137" unicode="&#x137;" horiz-adv-x="497" 
d="M242 269l204 -269h-40l-191 253l-99 -60v-193h-35v735h35v-504l266 158l-14 103h34l14 -80c4 -22.667 -5 -40.667 -27 -54zM196 -211l48 162l31 -10l-47 -162z" />
    <glyph glyph-name="Lacute" unicode="&#x139;" horiz-adv-x="517" 
d="M83 838l256 76l10 -34l-257 -76zM124 -10c-14 -0.666992 -25 3.16699 -33 11.5s-12 19.5 -12 33.5v670h35v-687l361 10v-28z" />
    <glyph glyph-name="lacute" unicode="&#x13a;" horiz-adv-x="397" 
d="M49 868l257 76l10 -34l-257 -76zM44 0l-0.000976562 28.001h139v690l-92 -11v28l69 11c20.667 3.33301 35.334 1.66602 44.001 -5.00098s13 -20 13 -40v-673h139v-28h-312z" />
    <glyph glyph-name="uni013B" unicode="&#x13b;" horiz-adv-x="519" 
d="M126 -10c-14 -0.666992 -25 3.16699 -33 11.5s-12 19.5 -12 33.5v670h35v-687l362 10v-28zM285 -48.999l31 -10l-47 -162l-32 10z" />
    <glyph glyph-name="uni013C" unicode="&#x13c;" horiz-adv-x="405" 
d="M51 0v28.001h139v690l-92 -11v28l69 11c20.667 3.33301 35.5 1.66602 44.5 -5.00098s13.5 -20 13.5 -40v-673h138v-28h-312zM188 -48.999l31 -10l-47 -162l-32 10z" />
    <glyph glyph-name="Lcaron" unicode="&#x13d;" horiz-adv-x="529" 
d="M216 722h34v-214h-34v214zM126 -10c-14 -0.666992 -25 3.16699 -33 11.5s-12 19.5 -12 33.5v670h35v-687l362 10v-28z" />
    <glyph glyph-name="lcaron" unicode="&#x13e;" horiz-adv-x="397" 
d="M51 0v28.001h139v690l-92 -11v28l69 11c20.667 3.33301 35.5 1.66602 44.5 -5.00098s13.5 -20 13.5 -40v-673h138v-28h-312zM308 722.001h35v-214h-35v214z" />
    <glyph glyph-name="Lslash" unicode="&#x141;" horiz-adv-x="568" 
d="M155 18l362 10.001v-28l-352 -10c-14 -0.666992 -25 3.16602 -33 11.499s-12 19.5 -12 33.5v277l-50 -13l-9 34l59 16v356h35v-347l196 53l9 -34l-205 -55v-304z" />
    <glyph glyph-name="lslash" unicode="&#x142;" horiz-adv-x="405" 
d="M225 351v-322.999h138v-28h-312v28h139v314l-131 -35l-9 34l140 38v339l-92 -11v28l69 11c20.667 3.33301 35.5 1.66602 44.5 -5.00098s13.5 -20 13.5 -40v-313l131 35l9 -34z" />
    <glyph glyph-name="Nacute" unicode="&#x143;" horiz-adv-x="717" 
d="M248 838l257 75l10 -34l-257 -75zM81 0v705h75l435 -692h13l-3 34v658h34v-705h-75l-434 692h-13l3 -34v-658h-35z" />
    <glyph glyph-name="nacute" unicode="&#x144;" horiz-adv-x="561" 
d="M177 625l257 75l10 -34l-257 -75zM316 474c-57.333 0 -105 -22.667 -143 -68s-57 -100.666 -57 -165.999v-240h-35v492h35v-101l-3 -37h13c10 46 32.5 82.167 67.5 108.5s79.167 39.5 132.5 39.5c51.333 0 91.333 -15.833 120 -47.5s43 -75.834 43 -132.501v-322h-34v320
c0 54 -11.667 93.167 -35 117.5s-58 36.5 -104 36.5z" />
    <glyph glyph-name="uni0145" unicode="&#x145;" horiz-adv-x="717" 
d="M81 0v705h75l435 -692h13l-3 34v658h34v-705h-75l-434 692h-13l3 -34v-658h-35zM337 -49l31 -10l-47 -162l-32 10z" />
    <glyph glyph-name="uni0146" unicode="&#x146;" horiz-adv-x="561" 
d="M316 474c-57.333 0 -105 -22.667 -143 -68s-57 -100.666 -57 -165.999v-240h-35v492h35v-101l-3 -37h13c10 46 32.5 82.167 67.5 108.5s79.167 39.5 132.5 39.5c51.333 0 91.333 -15.833 120 -47.5s43 -75.834 43 -132.501v-322h-34v320c0 54 -11.667 93.167 -35 117.5
s-58 36.5 -104 36.5zM262 -49l31 -10l-47 -162l-32 10z" />
    <glyph glyph-name="Ncaron" unicode="&#x147;" horiz-adv-x="717" 
d="M508 901l-129 -119l-130 119l17 26l113 -104l112 104zM81 0v705h75l435 -692h13l-3 34v658h34v-705h-75l-434 692h-13l3 -34v-658h-35z" />
    <glyph glyph-name="ncaron" unicode="&#x148;" horiz-adv-x="561" 
d="M436 688l-129 -119l-130 119l17 26l113 -104l112 104zM316 474c-57.333 0 -105 -22.667 -143 -68s-57 -100.666 -57 -165.999v-240h-35v492h35v-101l-3 -37h13c10 46 32.5 82.167 67.5 108.5s79.167 39.5 132.5 39.5c51.333 0 91.333 -15.833 120 -47.5
s43 -75.834 43 -132.501v-322h-34v320c0 54 -11.667 93.167 -35 117.5s-58 36.5 -104 36.5z" />
    <glyph glyph-name="Eng" unicode="&#x14a;" horiz-adv-x="717" 
d="M601 705h34v-846c0 -32.667 -19.333 -48 -58 -46l-159 11v28l183 -11v159h-41l-434 692h-13l3 -34v-658h-35v705h75l435 -692h13l-3 34v658z" />
    <glyph glyph-name="eng" unicode="&#x14b;" horiz-adv-x="561" 
d="M326 502c51.333 0 91.333 -15.833 120 -47.5s43 -75.834 43 -132.501v-463c0 -32.667 -19.333 -48 -58 -46l-159 11v28l183 -11v479c0 54 -11.667 93.167 -35 117.5s-58 36.5 -104 36.5c-57.333 0 -105 -22.667 -143 -68s-57 -100.666 -57 -165.999v-240h-35v492h35v-101
l-3 -37h13c10 46 32.5 82.167 67.5 108.5s79.167 39.5 132.5 39.5z" />
    <glyph glyph-name="Omacron" unicode="&#x14c;" horiz-adv-x="763" 
d="M253 874h258v-34h-258v34zM71 353c0 105.333 27.833 192 83.5 260s131.5 102 227.5 102c95.333 0 170.833 -34 226.5 -102s83.5 -154.667 83.5 -260c0 -106 -27.833 -193 -83.5 -261s-131.167 -102 -226.5 -102c-96 0 -171.833 34 -227.5 102s-83.5 155 -83.5 261z
M106 353c0 -99.333 23.667 -180 71 -242s115.666 -93 204.999 -93s157.5 31 204.5 93s70.5 142.667 70.5 242c0 98.667 -23.5 179 -70.5 241s-115.167 93 -204.5 93s-157.666 -31 -204.999 -93s-71 -142.333 -71 -241z" />
    <glyph glyph-name="omacron" unicode="&#x14d;" horiz-adv-x="620" 
d="M182 661h258v-34h-258v34zM61 246c0 67.333 22.667 126.833 68 178.5s105.666 77.5 180.999 77.5s135.5 -25.833 180.5 -77.5s67.5 -111.167 67.5 -178.5s-22.5 -126.833 -67.5 -178.5s-105.167 -77.5 -180.5 -77.5s-135.666 25.833 -180.999 77.5s-68 111.167 -68 178.5
zM96 246c0 -62 18.833 -115.5 56.5 -160.5s90.167 -67.5 157.5 -67.5s119.833 22.5 157.5 67.5s56.5 98.5 56.5 160.5s-18.833 115.5 -56.5 160.5s-90.167 67.5 -157.5 67.5s-119.833 -22.5 -157.5 -67.5s-56.5 -98.5 -56.5 -160.5z" />
    <glyph glyph-name="Ohungarumlaut" unicode="&#x150;" horiz-adv-x="763" 
d="M300 806l108 120l24 -28l-108 -118zM414 806l108 120l24 -28l-108 -118zM71 353c0 105.333 27.833 192 83.5 260s131.5 102 227.5 102c95.333 0 170.833 -34 226.5 -102s83.5 -154.667 83.5 -260c0 -106 -27.833 -193 -83.5 -261s-131.167 -102 -226.5 -102
c-96 0 -171.833 34 -227.5 102s-83.5 155 -83.5 261zM106 353c0 -99.333 23.667 -180 71 -242s115.666 -93 204.999 -93s157.5 31 204.5 93s70.5 142.667 70.5 242c0 98.667 -23.5 179 -70.5 241s-115.167 93 -204.5 93s-157.666 -31 -204.999 -93s-71 -142.333 -71 -241z
" />
    <glyph glyph-name="ohungarumlaut" unicode="&#x151;" horiz-adv-x="620" 
d="M229 593l108 120l24 -28l-108 -118zM343 593l108 120l24 -28l-108 -118zM61 246c0 67.333 22.667 126.833 68 178.5s105.666 77.5 180.999 77.5s135.5 -25.833 180.5 -77.5s67.5 -111.167 67.5 -178.5s-22.5 -126.833 -67.5 -178.5s-105.167 -77.5 -180.5 -77.5
s-135.666 25.833 -180.999 77.5s-68 111.167 -68 178.5zM96 246c0 -62 18.833 -115.5 56.5 -160.5s90.167 -67.5 157.5 -67.5s119.833 22.5 157.5 67.5s56.5 98.5 56.5 160.5s-18.833 115.5 -56.5 160.5s-90.167 67.5 -157.5 67.5s-119.833 -22.5 -157.5 -67.5
s-56.5 -98.5 -56.5 -160.5z" />
    <glyph glyph-name="OE" unicode="&#x152;" horiz-adv-x="1125" 
d="M1063 677h-361v-310h311v-28h-311v-311h361v-28h-396v197c-22.667 -64 -58.5 -114.5 -107.5 -151.5s-108.167 -55.5 -177.5 -55.5c-96 0 -171.833 34 -227.5 102s-83.5 155 -83.5 261c0 105.333 27.833 192 83.5 260s131.5 102 227.5 102
c69.333 0 128.5 -18.5 177.5 -55.5s84.833 -87.5 107.5 -151.5v197h396v-28zM382 18c89.333 0 157.5 31 204.5 93s70.5 142.667 70.5 242c0 98.667 -23.5 179 -70.5 241s-115.167 93 -204.5 93s-157.666 -31 -204.999 -93s-71 -142.333 -71 -241
c0 -99.333 23.667 -180 71 -242s115.666 -93 204.999 -93z" />
    <glyph glyph-name="oe" unicode="&#x153;" horiz-adv-x="1037" 
d="M941 171h35.001c-6.66699 -23.333 -14.5 -44.166 -23.5 -62.499s-21.667 -37.333 -38 -57s-37.833 -34.834 -64.5 -45.501s-57.667 -16 -93 -16c-58 0 -105.167 14.167 -141.5 42.5s-61.833 66.5 -76.5 114.5c-18 -46 -46.833 -83.667 -86.5 -113s-87.167 -44 -142.5 -44
c-75.333 0 -135.666 25.833 -180.999 77.5s-68 111.167 -68 178.5s22.667 126.833 68 178.5s105.666 77.5 180.999 77.5c54.667 0 101.5 -14 140.5 -42s67.833 -64.667 86.5 -110c15.333 48.667 41.5 86.167 78.5 112.5s81.167 39.5 132.5 39.5c66 0 117.667 -21 155 -63
s56 -101 56 -177v-20h-400c9.33301 -147.333 75.333 -221 198 -221c99.333 0 160.666 50 183.999 150zM310.001 18c67.333 0 119.833 22.5 157.5 67.5s56.5 98.5 56.5 160.5s-18.833 115.5 -56.5 160.5s-90.167 67.5 -157.5 67.5s-119.833 -22.5 -157.5 -67.5
s-56.5 -98.5 -56.5 -160.5s18.833 -115.5 56.5 -160.5s90.167 -67.5 157.5 -67.5zM748.001 470c-54 0 -99 -17.333 -135 -52s-54 -83 -54 -145h362c0 63.333 -15.333 112 -46 146s-73 51 -127 51z" />
    <glyph glyph-name="Racute" unicode="&#x154;" horiz-adv-x="633" 
d="M172 838l257 75l10 -34l-257 -75zM81 0v705h211c88.667 0 152.667 -13.833 192 -41.5s59 -79.5 59 -155.5c0 -100 -34.333 -157 -103 -171v-14h74c15.333 0 25.5 -2.33301 30.5 -7s7.5 -13.667 7.5 -27v-289h-35v304h-401v-304h-35zM116 332l176.002 -0.000976562
c38 0 68.667 1.83301 92 5.5s45.166 11.334 65.499 23.001s35.166 29.334 44.499 53.001s14 54.167 14 91.5c0 38 -4.5 68.667 -13.5 92s-24 40.666 -45 51.999s-43 18.833 -66 22.5s-53.5 5.5 -91.5 5.5h-176v-345z" />
    <glyph glyph-name="racute" unicode="&#x155;" horiz-adv-x="410" 
d="M112 625l257 75l9 -34l-256 -75zM77 0v443.998c0 20.667 4.66699 35.834 14 45.501s24 13.834 44 12.501l243 -10v-28l-266 11v-475h-35z" />
    <glyph glyph-name="uni0156" unicode="&#x156;" horiz-adv-x="633" 
d="M81 0v705h211c88.667 0 152.667 -13.833 192 -41.5s59 -79.5 59 -155.5c0 -100 -34.333 -157 -103 -171v-14h74c15.333 0 25.5 -2.33301 30.5 -7s7.5 -13.667 7.5 -27v-289h-35v304h-401v-304h-35zM116 332l176.002 -0.000976562c38 0 68.667 1.83301 92 5.5
s45.166 11.334 65.499 23.001s35.166 29.334 44.499 53.001s14 54.167 14 91.5c0 38 -4.5 68.667 -13.5 92s-24 40.666 -45 51.999s-43 18.833 -66 22.5s-53.5 5.5 -91.5 5.5h-176v-345zM310.002 -49.001l31 -10l-47 -162l-32 10z" />
    <glyph glyph-name="uni0157" unicode="&#x157;" horiz-adv-x="417" 
d="M85 0v444.001c0 21.333 4.5 36.666 13.5 45.999s23.833 13.333 44.5 12l243 -10v-28l-266 11v-475h-35zM74 -48.999l31 -10l-47 -162l-32 10z" />
    <glyph glyph-name="Rcaron" unicode="&#x158;" horiz-adv-x="633" 
d="M431 901l-129 -119l-130 119l17 26l113 -104l112 104zM81 0v705h211c88.667 0 152.667 -13.833 192 -41.5s59 -79.5 59 -155.5c0 -100 -34.333 -157 -103 -171v-14h74c15.333 0 25.5 -2.33301 30.5 -7s7.5 -13.667 7.5 -27v-289h-35v304h-401v-304h-35zM116 332
l176.002 -0.000976562c38 0 68.667 1.83301 92 5.5s45.166 11.334 65.499 23.001s35.166 29.334 44.499 53.001s14 54.167 14 91.5c0 38 -4.5 68.667 -13.5 92s-24 40.666 -45 51.999s-43 18.833 -66 22.5s-53.5 5.5 -91.5 5.5h-176v-345z" />
    <glyph glyph-name="rcaron" unicode="&#x159;" horiz-adv-x="409" 
d="M372 688l-129 -119l-130 119l17 26l113 -104l112 104zM78 0v443.998c0 20.667 4.66699 35.834 14 45.501s24 13.834 44 12.501l243 -10v-28l-266 11v-475h-35z" />
    <glyph glyph-name="Sacute" unicode="&#x15a;" horiz-adv-x="655" 
d="M198 838l257 75l10 -34l-257 -75zM604 169c0 -54.667 -18.6611 -98.1611 -55.9941 -130.494s-103 -48.5 -197 -48.5c-58.667 0 -108 6.5 -148 19.5s-70.833 32 -92.5 57s-37 52.833 -46 83.5s-13.5 67 -13.5 109h35c0 -39.333 4.5 -73.5 13.5 -102.5
s21.167 -52.167 36.5 -69.5s34.666 -31.333 57.999 -42s47.166 -17.834 71.499 -21.501s52.166 -5.5 83.499 -5.5c70.667 0 125 10.833 163 32.5s57 59.167 57 112.5c0 17.333 -2.5 33.166 -7.5 47.499s-10.5 26.666 -16.5 36.999s-15.833 20.333 -29.5 30
s-25 17.167 -34 22.5s-23.333 11.5 -43 18.5s-33.834 11.833 -42.501 14.5s-24.5 6.83398 -47.5 12.501s-37.833 9.5 -44.5 11.5c-73.333 20.667 -128.5 45.5 -165.5 74.5s-55.5 69.5 -55.5 121.5c0 108 77.667 162 233 162c48 0 89.833 -7.5 125.5 -22.5
s62.667 -34.667 81 -59s31.666 -49.5 39.999 -75.5s12.5 -52.667 12.5 -80h-35c0 66.667 -21.333 118.167 -64 154.5s-96 54.5 -160 54.5c-132 0 -198 -44 -198 -132c0 -24 4.83301 -45 14.5 -63s25 -33.667 46 -47s42 -24.166 63 -32.499s48.5 -17.5 82.5 -27.5
c8 -2.66699 22 -6.83398 42 -12.501s34.167 -9.83398 42.5 -12.501s21.166 -7 38.499 -13s29.833 -10.833 37.5 -14.5s18.5 -9.16699 32.5 -16.5s24.167 -14 30.5 -20s13.833 -13.833 22.5 -23.5s15 -19.334 19 -29.001s7.5 -20.834 10.5 -33.501s4.5 -26.334 4.5 -41.001z
" />
    <glyph glyph-name="sacute" unicode="&#x15b;" horiz-adv-x="468" 
d="M110 625l257 75l10 -34l-257 -75zM427 118c0 -85.333 -57.333 -128 -172 -128c-136 0 -204 64.333 -204 193h35c0 -105.333 55.667 -158 167 -158c92.667 0 139 30 139 90c0 9.33301 -0.833008 18.166 -2.5 26.499s-5 16 -10 23l-13 18
c-3.66699 5 -10.167 10.167 -19.5 15.5s-16.166 9.33301 -20.499 12s-12.833 6.16699 -25.5 10.5l-25 8.5c-4 1.33301 -13.5 4.16602 -28.5 8.49902s-23.833 6.83301 -26.5 7.5c-50.667 15.333 -87.834 33.333 -111.501 54s-35.5 49.334 -35.5 86.001c0 36 14 64.5 42 85.5
s66.667 31.5 116 31.5c34 0 63.333 -4.66699 88 -14s43.167 -22 55.5 -38s21.166 -32.5 26.499 -49.5s8 -35.5 8 -55.5h-35c0 42 -11.833 72.833 -35.5 92.5s-59.5 29.5 -107.5 29.5c-36 0 -65.5 -6.5 -88.5 -19.5s-34.5 -33.5 -34.5 -61.5
c0 -25.333 7.83301 -46.166 23.5 -62.499s42.834 -30.833 81.501 -43.5l37 -11.5c18 -5.66699 30.833 -9.83398 38.5 -12.501s19.167 -7 34.5 -13s26.666 -11.333 33.999 -16s16.333 -11 27 -19s18.334 -16 23.001 -24s9 -17.667 13 -29s6 -23.666 6 -36.999z" />
    <glyph glyph-name="Scedilla" unicode="&#x15e;" horiz-adv-x="655" 
d="M351 -10l-11.9941 0.00683594l-44 -46c16 8.66699 33.333 13 52 13c15.333 0 27.833 -4.5 37.5 -13.5s14.5 -21.833 14.5 -38.5c0 -30.667 -12.333 -50.834 -37 -60.501s-68 -14.5 -130 -14.5v45c48 0 82.167 2 102.5 6s30.5 14 30.5 30c0 14.667 -7.66699 22 -23 22
c-18 0 -39.667 -10.333 -65 -31l-26 50l46 40c-92 7.33301 -156 33.833 -192 79.5s-54 108.167 -54 187.5h35c0 -39.333 4.5 -73.5 13.5 -102.5s21.167 -52.167 36.5 -69.5s34.666 -31.333 57.999 -42s47.166 -17.834 71.499 -21.501s52.166 -5.5 83.499 -5.5
c70.667 0 125 10.833 163 32.5s57 59.167 57 112.5c0 17.333 -2.5 33.166 -7.5 47.499s-10.5 26.666 -16.5 36.999s-15.833 20.333 -29.5 30s-25 17.167 -34 22.5s-23.333 11.5 -43 18.5s-33.834 11.833 -42.501 14.5s-24.5 6.83398 -47.5 12.501s-37.833 9.5 -44.5 11.5
c-73.333 20.667 -128.5 45.5 -165.5 74.5s-55.5 69.5 -55.5 121.5c0 108 77.667 162 233 162c48 0 89.833 -7.5 125.5 -22.5s62.667 -34.667 81 -59s31.666 -49.5 39.999 -75.5s12.5 -52.667 12.5 -80h-35c0 66.667 -21.333 118.167 -64 154.5s-96 54.5 -160 54.5
c-132 0 -198 -44 -198 -132c0 -24 4.83301 -45 14.5 -63s25 -33.667 46 -47s42 -24.166 63 -32.499s48.5 -17.5 82.5 -27.5c8 -2.66699 22 -6.83398 42 -12.501s34.167 -9.83398 42.5 -12.501s21.166 -7 38.499 -13s29.833 -10.833 37.5 -14.5s18.5 -9.16699 32.5 -16.5
s24.167 -14 30.5 -20s13.833 -13.833 22.5 -23.5s15 -19.334 19 -29.001s7.5 -20.834 10.5 -33.501s4.5 -26.334 4.5 -41.001c0 -54.667 -18.667 -98.167 -56 -130.5s-103 -48.5 -197 -48.5z" />
    <glyph glyph-name="scedilla" unicode="&#x15f;" horiz-adv-x="468" 
d="M255 -10l-5 0.000976562l-44 -46c16 8.66699 33.333 13 52 13c15.333 0 27.833 -4.5 37.5 -13.5s14.5 -21.833 14.5 -38.5c0 -30.667 -12.333 -50.834 -37 -60.501s-68 -14.5 -130 -14.5v45c48.667 0 83 2 103 6s30 14 30 30c0 14.667 -7.66699 22 -23 22
c-18 0 -39.667 -10.333 -65 -31l-26 50l47 41c-105.333 14 -158 77.333 -158 190h35c0 -105.333 55.667 -158 167 -158c92.667 0 139 30 139 90c0 9.33301 -0.833008 18.166 -2.5 26.499s-5 16 -10 23l-13 18c-3.66699 5 -10.167 10.167 -19.5 15.5
s-16.166 9.33301 -20.499 12s-12.833 6.16699 -25.5 10.5l-25 8.5c-4 1.33301 -13.5 4.16602 -28.5 8.49902s-23.833 6.83301 -26.5 7.5c-50.667 15.333 -87.834 33.333 -111.501 54s-35.5 49.334 -35.5 86.001c0 36 14 64.5 42 85.5s66.667 31.5 116 31.5
c34 0 63.333 -4.66699 88 -14s43.167 -22 55.5 -38s21.166 -32.5 26.499 -49.5s8 -35.5 8 -55.5h-35c0 42 -11.833 72.833 -35.5 92.5s-59.5 29.5 -107.5 29.5c-36 0 -65.5 -6.5 -88.5 -19.5s-34.5 -33.5 -34.5 -61.5c0 -25.333 7.83301 -46.166 23.5 -62.499
s42.834 -30.833 81.501 -43.5l37 -11.5c18 -5.66699 30.833 -9.83398 38.5 -12.501s19.167 -7 34.5 -13s26.666 -11.333 33.999 -16s16.333 -11 27 -19s18.334 -16 23.001 -24s9 -17.667 13 -29s6 -23.666 6 -36.999c0 -85.333 -57.333 -128 -172 -128z" />
    <glyph glyph-name="Scaron" unicode="&#x160;" horiz-adv-x="655" 
d="M457 901l-129 -119l-130 119l17 26l113 -104l112 104zM604 169c0 -54.667 -18.6611 -98.1611 -55.9941 -130.494s-103 -48.5 -197 -48.5c-58.667 0 -108 6.5 -148 19.5s-70.833 32 -92.5 57s-37 52.833 -46 83.5s-13.5 67 -13.5 109h35c0 -39.333 4.5 -73.5 13.5 -102.5
s21.167 -52.167 36.5 -69.5s34.666 -31.333 57.999 -42s47.166 -17.834 71.499 -21.501s52.166 -5.5 83.499 -5.5c70.667 0 125 10.833 163 32.5s57 59.167 57 112.5c0 17.333 -2.5 33.166 -7.5 47.499s-10.5 26.666 -16.5 36.999s-15.833 20.333 -29.5 30
s-25 17.167 -34 22.5s-23.333 11.5 -43 18.5s-33.834 11.833 -42.501 14.5s-24.5 6.83398 -47.5 12.501s-37.833 9.5 -44.5 11.5c-73.333 20.667 -128.5 45.5 -165.5 74.5s-55.5 69.5 -55.5 121.5c0 108 77.667 162 233 162c48 0 89.833 -7.5 125.5 -22.5
s62.667 -34.667 81 -59s31.666 -49.5 39.999 -75.5s12.5 -52.667 12.5 -80h-35c0 66.667 -21.333 118.167 -64 154.5s-96 54.5 -160 54.5c-132 0 -198 -44 -198 -132c0 -24 4.83301 -45 14.5 -63s25 -33.667 46 -47s42 -24.166 63 -32.499s48.5 -17.5 82.5 -27.5
c8 -2.66699 22 -6.83398 42 -12.501s34.167 -9.83398 42.5 -12.501s21.166 -7 38.499 -13s29.833 -10.833 37.5 -14.5s18.5 -9.16699 32.5 -16.5s24.167 -14 30.5 -20s13.833 -13.833 22.5 -23.5s15 -19.334 19 -29.001s7.5 -20.834 10.5 -33.501s4.5 -26.334 4.5 -41.001z
" />
    <glyph glyph-name="scaron" unicode="&#x161;" horiz-adv-x="468" 
d="M369 688l-129 -119l-130 119l17 26l113 -104l112 104zM427 118c0 -85.333 -57.333 -128 -172 -128c-136 0 -204 64.333 -204 193h35c0 -105.333 55.667 -158 167 -158c92.667 0 139 30 139 90c0 9.33301 -0.833008 18.166 -2.5 26.499s-5 16 -10 23l-13 18
c-3.66699 5 -10.167 10.167 -19.5 15.5s-16.166 9.33301 -20.499 12s-12.833 6.16699 -25.5 10.5l-25 8.5c-4 1.33301 -13.5 4.16602 -28.5 8.49902s-23.833 6.83301 -26.5 7.5c-50.667 15.333 -87.834 33.333 -111.501 54s-35.5 49.334 -35.5 86.001c0 36 14 64.5 42 85.5
s66.667 31.5 116 31.5c34 0 63.333 -4.66699 88 -14s43.167 -22 55.5 -38s21.166 -32.5 26.499 -49.5s8 -35.5 8 -55.5h-35c0 42 -11.833 72.833 -35.5 92.5s-59.5 29.5 -107.5 29.5c-36 0 -65.5 -6.5 -88.5 -19.5s-34.5 -33.5 -34.5 -61.5
c0 -25.333 7.83301 -46.166 23.5 -62.499s42.834 -30.833 81.501 -43.5l37 -11.5c18 -5.66699 30.833 -9.83398 38.5 -12.501s19.167 -7 34.5 -13s26.666 -11.333 33.999 -16s16.333 -11 27 -19s18.334 -16 23.001 -24s9 -17.667 13 -29s6 -23.666 6 -36.999z" />
    <glyph glyph-name="uni0162" unicode="&#x162;" horiz-adv-x="644" 
d="M592 677l-252 0.000976562v-677h2l-53 -56c16 8.66699 33.333 13 52 13c15.333 0 27.833 -4.5 37.5 -13.5s14.5 -21.833 14.5 -38.5c0 -30.667 -12.333 -50.834 -37 -60.501s-68 -14.5 -130 -14.5v45c48 0 82.167 2 102.5 6s30.5 14 30.5 30c0 14.667 -7.66699 22 -23 22
c-18 0 -39.667 -10.333 -65 -31l-26 50l55 48h5v677h-254v28h541v-28z" />
    <glyph glyph-name="uni0163" unicode="&#x163;" horiz-adv-x="389" 
d="M337 0l-78 -5.00098l-48 -51c16 8.66699 33.333 13 52 13c15.333 0 27.833 -4.5 37.5 -13.5s14.5 -21.833 14.5 -38.5c0 -30.667 -12.333 -50.834 -37 -60.501s-68 -14.5 -130 -14.5v45c48 0 82.167 2 102.5 6s30.5 14 30.5 30c0 14.667 -7.66699 22 -23 22
c-18 0 -39.667 -10.333 -65 -31l-26 50l45 39l-20 -1c-20 -1.33301 -34.667 2.83398 -44 12.501s-14 24.834 -14 45.501v416h-103v28h103v148l35 10v-158h148v-28h-148v-447l168 11v-28z" />
    <glyph glyph-name="Tcaron" unicode="&#x164;" horiz-adv-x="644" 
d="M452 901l-129 -119l-130 119l17 26l113 -104l112 104zM592 705v-28h-252v-677h-35v677h-254v28h541z" />
    <glyph glyph-name="tcaron" unicode="&#x165;" horiz-adv-x="389" 
d="M268 735v-180h-35v180h35zM169 17l168 10.998v-28l-145 -10c-20 -1.33301 -34.667 2.83398 -44 12.501s-14 24.834 -14 45.501v416h-103v28h103v148l35 10v-158h148v-28h-148v-447z" />
    <glyph glyph-name="Tbar" unicode="&#x166;" horiz-adv-x="644" 
d="M592 677h-252v-285h158v-34h-158v-358h-35v358h-158v34h158v285h-254v28h541v-28z" />
    <glyph glyph-name="tbar" unicode="&#x167;" horiz-adv-x="389" 
d="M169 17l168 10.998v-28l-145 -10c-20 -1.33301 -34.667 2.83398 -44 12.501s-14 24.834 -14 45.501v243h-83v27h83v146h-103v28h103v148l35 10v-158h148v-28h-148v-146h114v-27h-114v-274z" />
    <glyph glyph-name="Umacron" unicode="&#x16a;" horiz-adv-x="634" 
d="M188 874h258v-34h-258v34zM61 262v443h35v-465c0 -76 18.333 -132 55 -168s92 -54 166 -54s129.333 18 166 54s55 92 55 168v465h35v-443c0 -90 -20.5 -157.833 -61.5 -203.5s-105.833 -68.5 -194.5 -68.5c-89.333 0 -154.333 22.667 -195 68s-61 113.333 -61 204z" />
    <glyph glyph-name="umacron" unicode="&#x16b;" horiz-adv-x="551" 
d="M160 661h258v-34h-258v34zM245 18c57.333 0 104.999 22.667 142.999 68s57 100.333 57 165v241h34v-492h-34v101l3 37h-13c-10 -45.333 -32.667 -81.333 -68 -108s-79.666 -40 -132.999 -40c-51.333 0 -91.333 15.667 -120 47s-43 75.333 -43 132v323h35v-320
c0 -54 11.5 -93.167 34.5 -117.5s57.833 -36.5 104.5 -36.5z" />
    <glyph glyph-name="Uring" unicode="&#x16e;" horiz-adv-x="634" 
d="M315 779c-29.333 0 -52.833 9.66895 -70.5 29.002s-26.5 41.666 -26.5 66.999c0 24.667 8.83301 46.667 26.5 66s41.167 29 70.5 29c30 0 53.833 -9.66699 71.5 -29s26.5 -41.333 26.5 -66s-8.83301 -46.834 -26.5 -66.501s-41.5 -29.5 -71.5 -29.5zM315 811.002
c19.333 0 35.166 6.16699 47.499 18.5s18.5 27.5 18.5 45.5s-6.16699 33 -18.5 45s-28.166 18 -47.499 18c-18.667 0 -34.167 -6 -46.5 -18s-18.5 -27 -18.5 -45s6.16699 -33.167 18.5 -45.5s27.833 -18.5 46.5 -18.5zM61 262.002v443h35v-465c0 -76 18.333 -132 55 -168
s92 -54 166 -54s129.333 18 166 54s55 92 55 168v465h35v-443c0 -90 -20.5 -157.833 -61.5 -203.5s-105.833 -68.5 -194.5 -68.5c-89.333 0 -154.333 22.667 -195 68s-61 113.333 -61 204z" />
    <glyph glyph-name="uring" unicode="&#x16f;" horiz-adv-x="551" 
d="M287 566c-29.333 0 -52.833 9.66895 -70.5 29.002s-26.5 41.666 -26.5 66.999c0 24.667 8.83301 46.667 26.5 66s41.167 29 70.5 29c30 0 53.833 -9.66699 71.5 -29s26.5 -41.333 26.5 -66s-8.83301 -46.834 -26.5 -66.501s-41.5 -29.5 -71.5 -29.5zM287 598.002
c19.333 0 35.166 6 47.499 18s18.5 27.333 18.5 46c0 18 -6.16699 33 -18.5 45s-28.166 18 -47.499 18c-18.667 0 -34.167 -6 -46.5 -18s-18.5 -27 -18.5 -45s6.16699 -33.167 18.5 -45.5s27.833 -18.5 46.5 -18.5zM245 18.002c57.333 0 104.999 22.667 142.999 68
s57 100.333 57 165v241h34v-492h-34v101l3 37h-13c-10 -45.333 -32.667 -81.333 -68 -108s-79.666 -40 -132.999 -40c-51.333 0 -91.333 15.667 -120 47s-43 75.333 -43 132v323h35v-320c0 -54 11.5 -93.167 34.5 -117.5s57.833 -36.5 104.5 -36.5z" />
    <glyph glyph-name="Uhungarumlaut" unicode="&#x170;" horiz-adv-x="634" 
d="M235 806l108 120l24 -28l-108 -118zM349 806l108 120l24 -28l-108 -118zM61 262v443h35v-465c0 -76 18.333 -132 55 -168s92 -54 166 -54s129.333 18 166 54s55 92 55 168v465h35v-443c0 -90 -20.5 -157.833 -61.5 -203.5s-105.833 -68.5 -194.5 -68.5
c-89.333 0 -154.333 22.667 -195 68s-61 113.333 -61 204z" />
    <glyph glyph-name="uhungarumlaut" unicode="&#x171;" horiz-adv-x="551" 
d="M207 593l108 120l24 -28l-108 -118zM321 593l108 120l24 -28l-108 -118zM245 18c57.333 0 104.999 22.667 142.999 68s57 100.333 57 165v241h34v-492h-34v101l3 37h-13c-10 -45.333 -32.667 -81.333 -68 -108s-79.666 -40 -132.999 -40
c-51.333 0 -91.333 15.667 -120 47s-43 75.333 -43 132v323h35v-320c0 -54 11.5 -93.167 34.5 -117.5s57.833 -36.5 104.5 -36.5z" />
    <glyph glyph-name="Uogonek" unicode="&#x172;" horiz-adv-x="634" 
d="M573 262c0 -146 -54.333 -233.333 -163 -262l-82 -152l216 22v-35l-205 -20c-20 -2 -33.667 3.5 -41 16.5s-6 28.167 4 45.5l68 116c-16 -2 -33.667 -3 -53 -3c-89.333 0 -154.333 22.667 -195 68s-61 113.333 -61 204v443h35v-465c0 -76 18.333 -132 55 -168
s92 -54 166 -54s129.333 18 166 54s55 92 55 168v465h35v-443z" />
    <glyph glyph-name="uogonek" unicode="&#x173;" horiz-adv-x="551" 
d="M397 -152l215.999 22v-35l-205 -20c-20 -2 -33.667 3.5 -41 16.5s-6 28.167 4 45.5l73 124h1v100l3 37h-13c-10 -45.333 -32.667 -81.333 -68 -108s-79.666 -40 -132.999 -40c-51.333 0 -91.333 15.667 -120 47s-43 75.333 -43 132v323h35v-320
c0 -54 11.5 -93.167 34.5 -117.5s57.833 -36.5 104.5 -36.5c57.333 0 105 22.667 143 68s57 100.333 57 165v241h34v-492h-1z" />
    <glyph glyph-name="Wcircumflex" unicode="&#x174;" horiz-adv-x="920" 
d="M589 810l-17 -26l-112 104l-113 -104l-17 26l130 119zM41 705h31l164 -692h14l177 692h66l177 -692h14l164 692h31l-168 -705h-68l-176 692h-14l-176 -692h-68z" />
    <glyph glyph-name="wcircumflex" unicode="&#x175;" horiz-adv-x="807" 
d="M533 597l-17 -26l-112 104l-113 -104l-17 26l130 119zM31 492h33l153 -479h14l137 479h70l138 -479h13l153 479h33l-159 -492h-67l-139 478h-13l-139 -478h-68z" />
    <glyph glyph-name="Ycircumflex" unicode="&#x176;" horiz-adv-x="620" 
d="M440 810l-17 -26l-112 104l-113 -104l-17 26l130 119zM541 705h38l-251 -421v-284h-35v284l-252 421h38l225 -374v-37h13v37z" />
    <glyph glyph-name="ycircumflex" unicode="&#x177;" horiz-adv-x="543" 
d="M277 675l-113 -104l-17 26l130 119l129 -119l-17 -26zM467 492h34l-207 -502v-128c0 -32 -19.333 -47 -58 -45l-159 11v28l183 -13v147l-209 502h35l184 -452v-13h14v13z" />
    <glyph glyph-name="Ydieresis" unicode="&#x178;" horiz-adv-x="620" 
d="M224 815c-14.667 0 -27.834 5.66699 -39.501 17s-17.5 24.666 -17.5 39.999s5.83301 28.5 17.5 39.5s24.834 16.5 39.501 16.5s27.834 -5.5 39.501 -16.5s17.5 -24.167 17.5 -39.5s-5.83301 -28.666 -17.5 -39.999s-24.834 -17 -39.501 -17zM397 815
c-14.667 0 -27.667 5.66699 -39 17s-17 24.666 -17 39.999s5.66699 28.5 17 39.5s24.333 16.5 39 16.5s27.834 -5.5 39.501 -16.5s17.5 -24.167 17.5 -39.5s-5.83301 -28.666 -17.5 -39.999s-24.834 -17 -39.501 -17zM541 705h38l-251 -421v-284h-35v284l-252 421h38
l225 -374v-37h13v37z" />
    <glyph glyph-name="Zacute" unicode="&#x179;" horiz-adv-x="643" 
d="M192 838l257 75l10 -34l-257 -75zM61 0v76l507 591v13l-36 -3h-471v28h521v-76l-507 -591v-13l36 3h471v-28h-521z" />
    <glyph glyph-name="zacute" unicode="&#x17a;" horiz-adv-x="553" 
d="M147 625l257 75l10 -34l-257 -75zM61 0v61l417 393v13l-36 -3h-381v28h431v-61l-417 -393v-13l36 3h381v-28h-431z" />
    <glyph glyph-name="Zdotaccent" unicode="&#x17b;" horiz-adv-x="643" 
d="M321 815c-14.667 0 -27.834 5.66699 -39.501 17s-17.5 24.666 -17.5 39.999s5.83301 28.5 17.5 39.5s24.834 16.5 39.501 16.5s27.834 -5.5 39.501 -16.5s17.5 -24.167 17.5 -39.5s-5.83301 -28.666 -17.5 -39.999s-24.834 -17 -39.501 -17zM61 0v76l507 591v13l-36 -3
h-471v28h521v-76l-507 -591v-13l36 3h471v-28h-521z" />
    <glyph glyph-name="zdotaccent" unicode="&#x17c;" horiz-adv-x="553" 
d="M276 602c-14.667 0 -27.834 5.66699 -39.501 17s-17.5 24.666 -17.5 39.999s5.83301 28.5 17.5 39.5s24.834 16.5 39.501 16.5s27.834 -5.5 39.501 -16.5s17.5 -24.167 17.5 -39.5s-5.83301 -28.666 -17.5 -39.999s-24.834 -17 -39.501 -17zM61 0v61l417 393v13l-36 -3
h-381v28h431v-61l-417 -393v-13l36 3h381v-28h-431z" />
    <glyph glyph-name="Zcaron" unicode="&#x17d;" horiz-adv-x="643" 
d="M451 901l-129 -119l-130 119l17 26l113 -104l112 104zM61 0v76l507 591v13l-36 -3h-471v28h521v-76l-507 -591v-13l36 3h471v-28h-521z" />
    <glyph glyph-name="zcaron" unicode="&#x17e;" horiz-adv-x="553" 
d="M406 688l-129 -119l-130 119l17 26l113 -104l112 104zM61 0v61l417 393v13l-36 -3h-381v28h431v-61l-417 -393v-13l36 3h381v-28h-431z" />
    <glyph glyph-name="uni0218" unicode="&#x218;" horiz-adv-x="655" 
d="M604 169c0 -54.667 -18.6611 -98.1611 -55.9941 -130.494s-103 -48.5 -197 -48.5c-58.667 0 -108 6.5 -148 19.5s-70.833 32 -92.5 57s-37 52.833 -46 83.5s-13.5 67 -13.5 109h35c0 -39.333 4.5 -73.5 13.5 -102.5s21.167 -52.167 36.5 -69.5s34.666 -31.333 57.999 -42
s47.166 -17.834 71.499 -21.501s52.166 -5.5 83.499 -5.5c70.667 0 125 10.833 163 32.5s57 59.167 57 112.5c0 17.333 -2.5 33.166 -7.5 47.499s-10.5 26.666 -16.5 36.999s-15.833 20.333 -29.5 30s-25 17.167 -34 22.5s-23.333 11.5 -43 18.5
s-33.834 11.833 -42.501 14.5s-24.5 6.83398 -47.5 12.501s-37.833 9.5 -44.5 11.5c-73.333 20.667 -128.5 45.5 -165.5 74.5s-55.5 69.5 -55.5 121.5c0 108 77.667 162 233 162c48 0 89.833 -7.5 125.5 -22.5s62.667 -34.667 81 -59s31.666 -49.5 39.999 -75.5
s12.5 -52.667 12.5 -80h-35c0 66.667 -21.333 118.167 -64 154.5s-96 54.5 -160 54.5c-132 0 -198 -44 -198 -132c0 -24 4.83301 -45 14.5 -63s25 -33.667 46 -47s42 -24.166 63 -32.499s48.5 -17.5 82.5 -27.5c8 -2.66699 22 -6.83398 42 -12.501
s34.167 -9.83398 42.5 -12.501s21.166 -7 38.499 -13s29.833 -10.833 37.5 -14.5s18.5 -9.16699 32.5 -16.5s24.167 -14 30.5 -20s13.833 -13.833 22.5 -23.5s15 -19.334 19 -29.001s7.5 -20.834 10.5 -33.501s4.5 -26.334 4.5 -41.001zM307.006 -48.9941l31 -10l-47 -162
l-32 10z" />
    <glyph glyph-name="uni0219" unicode="&#x219;" horiz-adv-x="468" 
d="M427 118c0 -85.333 -57.333 -128 -172 -128c-136 0 -204 64.333 -204 193h35c0 -105.333 55.667 -158 167 -158c92.667 0 139 30 139 90c0 9.33301 -0.833008 18.166 -2.5 26.499s-5 16 -10 23l-13 18c-3.66699 5 -10.167 10.167 -19.5 15.5s-16.166 9.33301 -20.499 12
s-12.833 6.16699 -25.5 10.5l-25 8.5c-4 1.33301 -13.5 4.16602 -28.5 8.49902s-23.833 6.83301 -26.5 7.5c-50.667 15.333 -87.834 33.333 -111.501 54s-35.5 49.334 -35.5 86.001c0 36 14 64.5 42 85.5s66.667 31.5 116 31.5c34 0 63.333 -4.66699 88 -14
s43.167 -22 55.5 -38s21.166 -32.5 26.499 -49.5s8 -35.5 8 -55.5h-35c0 42 -11.833 72.833 -35.5 92.5s-59.5 29.5 -107.5 29.5c-36 0 -65.5 -6.5 -88.5 -19.5s-34.5 -33.5 -34.5 -61.5c0 -25.333 7.83301 -46.166 23.5 -62.499s42.834 -30.833 81.501 -43.5l37 -11.5
c18 -5.66699 30.833 -9.83398 38.5 -12.501s19.167 -7 34.5 -13s26.666 -11.333 33.999 -16s16.333 -11 27 -19s18.334 -16 23.001 -24s9 -17.667 13 -29s6 -23.666 6 -36.999zM218 -49l31 -10l-47 -162l-32 10z" />
    <glyph glyph-name="uni021A" unicode="&#x21a;" horiz-adv-x="644" 
d="M592 705v-28h-252v-677h-35v677h-254v28h541zM253 -211l48 162l31 -10l-47 -162z" />
    <glyph glyph-name="uni021B" unicode="&#x21b;" horiz-adv-x="389" 
d="M169 17l168 10.998v-28l-145 -10c-20 -1.33301 -34.667 2.83398 -44 12.501s-14 24.834 -14 45.501v416h-103v28h103v148l35 10v-158h148v-28h-148v-447zM175 -211.002l48 162l31 -10l-47 -162z" />
    <glyph glyph-name="circumflex" unicode="&#x2c6;" horiz-adv-x="441" 
d="M350 597l-17 -26l-112 104l-113 -104l-17 26l130 119z" />
    <glyph glyph-name="caron" unicode="&#x2c7;" horiz-adv-x="441" 
d="M350 688l-129 -119l-130 119l17 26l113 -104l112 104z" />
    <glyph glyph-name="breve" unicode="&#x2d8;" horiz-adv-x="463" 
d="M372 723c0 -104 -46.667 -156 -140 -156c-94 0 -141 52 -141 156h35c0 -39.333 8.16699 -68.833 24.5 -88.5s43.5 -29.5 81.5 -29.5s65 9.83301 81 29.5s24 49.167 24 88.5h35z" />
    <glyph glyph-name="dotaccent" unicode="&#x2d9;" horiz-adv-x="296" 
d="M148 602c-14.667 0 -27.834 5.66699 -39.501 17s-17.5 24.666 -17.5 39.999s5.83301 28.5 17.5 39.5s24.834 16.5 39.501 16.5s27.834 -5.5 39.501 -16.5s17.5 -24.167 17.5 -39.5s-5.83301 -28.666 -17.5 -39.999s-24.834 -17 -39.501 -17z" />
    <glyph glyph-name="ring" unicode="&#x2da;" horiz-adv-x="339" 
d="M188 566c-29.333 0 -52.833 9.66895 -70.5 29.002s-26.5 41.666 -26.5 66.999c0 24.667 8.83301 46.667 26.5 66s41.167 29 70.5 29c30 0 53.833 -9.66699 71.5 -29s26.5 -41.333 26.5 -66s-8.83301 -46.834 -26.5 -66.501s-41.5 -29.5 -71.5 -29.5zM188 598.002
c20 0 35.999 6 47.999 18s18 27.333 18 46c0 18 -6.16699 33 -18.5 45s-28.166 18 -47.499 18c-18.667 0 -34.167 -6 -46.5 -18s-18.5 -27 -18.5 -45s6.16699 -33.167 18.5 -45.5s27.833 -18.5 46.5 -18.5z" />
    <glyph glyph-name="ogonek" unicode="&#x2db;" horiz-adv-x="432" 
d="M340 -130v-35l-205 -20c-20 -2 -33.667 3.5 -41 16.5s-6 28.167 4 45.5l73 124h35l-82 -153z" />
    <glyph glyph-name="tilde" unicode="&#x2dc;" horiz-adv-x="480" 
d="M91 590c0 35.333 7.16699 61.666 21.5 78.999s31.5 26 51.5 26c18 0 34.5 -4.5 49.5 -13.5s26.5 -18.833 34.5 -29.5s17.5 -20.5 28.5 -29.5s22.167 -13.5 33.5 -13.5c13.333 0 24.833 5.83301 34.5 17.5s14.5 31.167 14.5 58.5h30
c0 -35.333 -7.16699 -61.666 -21.5 -78.999s-31.5 -26 -51.5 -26c-18 0 -34.5 4.5 -49.5 13.5s-26.5 18.667 -34.5 29s-17.5 20 -28.5 29s-22.167 13.5 -33.5 13.5c-32.667 0 -49 -25 -49 -75h-30z" />
    <glyph glyph-name="hungarumlaut" unicode="&#x2dd;" horiz-adv-x="429" 
d="M91 593l108 120l24 -28l-108 -118zM205 593l108 120l24 -28l-108 -118z" />
    <glyph glyph-name="gravecomb" unicode="&#x300;" horiz-adv-x="0" 
d="M-91 625l-10 -34l-257 75l10 34z" />
    <glyph glyph-name="acutecomb" unicode="&#x301;" horiz-adv-x="0" 
d="M-358 625l257 75l10 -34l-257 -75z" />
    <glyph glyph-name="uni0302" unicode="&#x302;" horiz-adv-x="0" 
d="M-91 597l-17 -26l-112 104l-113 -104l-17 26l130 119z" />
    <glyph glyph-name="tildecomb" unicode="&#x303;" horiz-adv-x="0" 
d="M-389 590c0 35.333 7.16699 61.666 21.5 78.999s31.5 26 51.5 26c18 0 34.5 -4.5 49.5 -13.5s26.5 -18.833 34.5 -29.5s17.5 -20.5 28.5 -29.5s22.167 -13.5 33.5 -13.5c13.333 0 24.833 5.83301 34.5 17.5s14.5 31.167 14.5 58.5h30
c0 -35.333 -7.16699 -61.666 -21.5 -78.999s-31.5 -26 -51.5 -26c-18 0 -34.5 4.5 -49.5 13.5s-26.5 18.667 -34.5 29s-17.5 20 -28.5 29s-22.167 13.5 -33.5 13.5c-32.667 0 -49 -25 -49 -75h-30z" />
    <glyph glyph-name="uni0304" unicode="&#x304;" horiz-adv-x="0" 
d="M-350 661h258v-34h-258v34z" />
    <glyph glyph-name="uni0306" unicode="&#x306;" horiz-adv-x="0" 
d="M-91 723c0 -104 -46.667 -156 -140 -156c-94 0 -141 52 -141 156h35c0 -39.333 8.16699 -68.833 24.5 -88.5s43.5 -29.5 81.5 -29.5s65 9.83301 81 29.5s24 49.167 24 88.5h35z" />
    <glyph glyph-name="uni0307" unicode="&#x307;" horiz-adv-x="0" 
d="M-148 602c-14.667 0 -27.834 5.66699 -39.501 17s-17.5 24.666 -17.5 39.999s5.83301 28.5 17.5 39.5s24.834 16.5 39.501 16.5s27.834 -5.5 39.501 -16.5s17.5 -24.167 17.5 -39.5s-5.83301 -28.666 -17.5 -39.999s-24.834 -17 -39.501 -17z" />
    <glyph glyph-name="uni0308" unicode="&#x308;" horiz-adv-x="0" 
d="M-321 602c-14.667 0 -27.834 5.66699 -39.501 17s-17.5 24.666 -17.5 39.999s5.83301 28.5 17.5 39.5s24.834 16.5 39.501 16.5s27.834 -5.5 39.501 -16.5s17.5 -24.167 17.5 -39.5s-5.83301 -28.666 -17.5 -39.999s-24.834 -17 -39.501 -17zM-148 602
c-14.667 0 -27.667 5.66699 -39 17s-17 24.666 -17 39.999s5.66699 28.5 17 39.5s24.333 16.5 39 16.5s27.834 -5.5 39.501 -16.5s17.5 -24.167 17.5 -39.5s-5.83301 -28.666 -17.5 -39.999s-24.834 -17 -39.501 -17z" />
    <glyph glyph-name="uni030A" unicode="&#x30a;" horiz-adv-x="0" 
d="M-190 566c-29.333 0 -52.833 9.66895 -70.5 29.002s-26.5 41.666 -26.5 66.999c0 24.667 8.83301 46.667 26.5 66s41.167 29 70.5 29c30 0 53.833 -9.66699 71.5 -29s26.5 -41.333 26.5 -66s-8.83301 -46.834 -26.5 -66.501s-41.5 -29.5 -71.5 -29.5zM-190 598.002
c20 0 35.999 6 47.999 18s18 27.333 18 46c0 18 -6.16699 33 -18.5 45s-28.166 18 -47.499 18c-18.667 0 -34.167 -6 -46.5 -18s-18.5 -27 -18.5 -45s6.16699 -33.167 18.5 -45.5s27.833 -18.5 46.5 -18.5z" />
    <glyph glyph-name="uni030B" unicode="&#x30b;" horiz-adv-x="0" 
d="M-338 593l108 120l24 -28l-108 -118zM-224 593l108 120l24 -28l-108 -118z" />
    <glyph glyph-name="uni030C" unicode="&#x30c;" horiz-adv-x="0" 
d="M-91 688l-129 -119l-130 119l17 26l113 -104l112 104z" />
    <glyph glyph-name="uni0312" unicode="&#x312;" horiz-adv-x="0" 
d="M-130 760l38 -12l-46 -160l-39 13z" />
    <glyph glyph-name="uni0326" unicode="&#x326;" horiz-adv-x="0" 
d="M-127 -49l31 -10l-47 -162l-32 10z" />
    <glyph glyph-name="uni0327" unicode="&#x327;" horiz-adv-x="0" 
d="M-144 -43c15.333 0 27.833 -4.49902 37.5 -13.499s14.5 -21.833 14.5 -38.5c0 -30.667 -12.333 -50.834 -37 -60.501s-68 -14.5 -130 -14.5v45c48.667 0 83 2 103 6s30 14 30 30c0 14.667 -7.66699 22 -23 22c-18 0 -39.667 -10.333 -65 -31l-26 50l55 48h42l-53 -56
c16 8.66699 33.333 13 52 13z" />
    <glyph glyph-name="uni0328" unicode="&#x328;" horiz-adv-x="0" 
d="M-92 -130v-35l-205 -20c-20 -2 -33.667 3.5 -41 16.5s-6 28.167 4 45.5l73 124h35l-82 -153z" />
    <glyph glyph-name="uni0400" unicode="&#x400;" horiz-adv-x="539" 
d="M410 838l-10 -34l-257 75l10 34zM81 0v705h397v-28h-362v-310h312v-28h-312v-311h362v-28h-397z" />
    <glyph glyph-name="uni0401" unicode="&#x401;" horiz-adv-x="539" 
d="M193 815c-14.667 0 -27.834 5.66699 -39.501 17s-17.5 24.666 -17.5 39.999s5.83301 28.5 17.5 39.5s24.834 16.5 39.501 16.5s27.834 -5.5 39.501 -16.5s17.5 -24.167 17.5 -39.5s-5.83301 -28.666 -17.5 -39.999s-24.834 -17 -39.501 -17zM366 815
c-14.667 0 -27.667 5.66699 -39 17s-17 24.666 -17 39.999s5.66699 28.5 17 39.5s24.333 16.5 39 16.5s27.834 -5.5 39.501 -16.5s17.5 -24.167 17.5 -39.5s-5.83301 -28.666 -17.5 -39.999s-24.834 -17 -39.501 -17zM81 0v705h397v-28h-362v-310h312v-28h-312v-311h362v-28
h-397z" />
    <glyph glyph-name="uni0402" unicode="&#x402;" horiz-adv-x="771" 
d="M475 430c86 10.667 146.667 -1.49805 182 -36.498s53 -89.833 53 -164.5c0 -85.333 -21 -144.833 -63 -178.5s-100.667 -50.5 -176 -50.5v28c42 0 77 4.66699 105 14s49 23.666 63 42.999s23.5 40.5 28.5 63.5s7.5 51.167 7.5 84.5c0 68 -16.333 116.167 -49 144.5
s-84 37.166 -154 26.499l-140 -20v-384h-35v677h-256v28h547v-28h-256v-265z" />
    <glyph glyph-name="uni0403" unicode="&#x403;" horiz-adv-x="514" 
d="M151 838l257 75l10 -34l-257 -75zM81 0v705h381v-28h-346v-677h-35z" />
    <glyph glyph-name="uni0404" unicode="&#x404;" horiz-adv-x="754" 
d="M381 18c80 0 142.499 22.1689 187.499 66.502s71.5 107.166 79.5 188.499h35c-10.667 -88 -42.5 -157.167 -95.5 -207.5s-121.833 -75.5 -206.5 -75.5c-96 0 -171.667 34 -227 102s-83 155 -83 261c0 105.333 27.667 192 83 260s131 102 227 102
c84.667 0 153.5 -25 206.5 -75s84.833 -119 95.5 -207h-35c-8 81.333 -34.5 144 -79.5 188s-107.5 66 -187.5 66c-59.333 0 -110 -14.5 -152 -43.5s-72.667 -67 -92 -114s-29.666 -101.167 -30.999 -162.5h321v-28h-321c2 -94.667 26.167 -171.834 72.5 -231.501
s113.833 -89.5 202.5 -89.5z" />
    <glyph glyph-name="uni0405" unicode="&#x405;" horiz-adv-x="655" 
d="M604 169c0 -54.667 -18.6611 -98.1611 -55.9941 -130.494s-103 -48.5 -197 -48.5c-58.667 0 -108 6.5 -148 19.5s-70.833 32 -92.5 57s-37 52.833 -46 83.5s-13.5 67 -13.5 109h35c0 -39.333 4.5 -73.5 13.5 -102.5s21.167 -52.167 36.5 -69.5s34.666 -31.333 57.999 -42
s47.166 -17.834 71.499 -21.501s52.166 -5.5 83.499 -5.5c70.667 0 125 10.833 163 32.5s57 59.167 57 112.5c0 17.333 -2.5 33.166 -7.5 47.499s-10.5 26.666 -16.5 36.999s-15.833 20.333 -29.5 30s-25 17.167 -34 22.5s-23.333 11.5 -43 18.5
s-33.834 11.833 -42.501 14.5s-24.5 6.83398 -47.5 12.501s-37.833 9.5 -44.5 11.5c-73.333 20.667 -128.5 45.5 -165.5 74.5s-55.5 69.5 -55.5 121.5c0 108 77.667 162 233 162c48 0 89.833 -7.5 125.5 -22.5s62.667 -34.667 81 -59s31.666 -49.5 39.999 -75.5
s12.5 -52.667 12.5 -80h-35c0 66.667 -21.333 118.167 -64 154.5s-96 54.5 -160 54.5c-132 0 -198 -44 -198 -132c0 -24 4.83301 -45 14.5 -63s25 -33.667 46 -47s42 -24.166 63 -32.499s48.5 -17.5 82.5 -27.5c8 -2.66699 22 -6.83398 42 -12.501
s34.167 -9.83398 42.5 -12.501s21.166 -7 38.499 -13s29.833 -10.833 37.5 -14.5s18.5 -9.16699 32.5 -16.5s24.167 -14 30.5 -20s13.833 -13.833 22.5 -23.5s15 -19.334 19 -29.001s7.5 -20.834 10.5 -33.501s4.5 -26.334 4.5 -41.001z" />
    <glyph glyph-name="uni0406" unicode="&#x406;" horiz-adv-x="489" 
d="M418 677h-156v-649h156v-28h-347v28h156v649h-156v28h347v-28z" />
    <glyph glyph-name="uni0407" unicode="&#x407;" horiz-adv-x="489" 
d="M158 815c-14.667 0 -27.834 5.66699 -39.501 17s-17.5 24.666 -17.5 39.999s5.83301 28.5 17.5 39.5s24.834 16.5 39.501 16.5s27.834 -5.5 39.501 -16.5s17.5 -24.167 17.5 -39.5s-5.83301 -28.666 -17.5 -39.999s-24.834 -17 -39.501 -17zM331 815
c-14.667 0 -27.667 5.66699 -39 17s-17 24.666 -17 39.999s5.66699 28.5 17 39.5s24.333 16.5 39 16.5s27.834 -5.5 39.501 -16.5s17.5 -24.167 17.5 -39.5s-5.83301 -28.666 -17.5 -39.999s-24.834 -17 -39.501 -17zM418 677h-156v-649h156v-28h-347v28h156v649h-156v28
h347v-28z" />
    <glyph glyph-name="uni0408" unicode="&#x408;" horiz-adv-x="435" 
d="M194 -10l-153 10v28l153 -10c56.667 -3.33301 93.334 15.167 110.001 55.5s25 123.833 25 250.5v363l-168 -10v28l158 10c14 0.666992 25 -3.16602 33 -11.499s12 -19.5 12 -33.5v-326v-7v-60c0 -13.333 -0.333008 -31.5 -1 -54.5s-1.83398 -40.5 -3.50098 -52.5
l-6.5 -45.5c-2.66699 -18.333 -6.16699 -32.333 -10.5 -42l-15.5 -33.5c-6 -12.667 -13.167 -22 -21.5 -28s-17.833 -12.167 -28.5 -18.5s-23 -10.333 -37 -12s-29.333 -1.83398 -46 -0.500977z" />
    <glyph glyph-name="uni0409" unicode="&#x409;" horiz-adv-x="1050" 
d="M737 422c86 0 149.331 -16.335 189.998 -49.002s61 -87 61 -163c0 -75.333 -20.333 -129.166 -61 -161.499s-104 -48.5 -190 -48.5h-190v677h-314c0 -42 -0.166992 -76.667 -0.5 -104s-0.833008 -60.5 -1.5 -99.5s-2 -71.333 -4 -97s-4.5 -55 -7.5 -88
s-7 -60.167 -12 -81.5s-11 -44.166 -18 -68.499s-15.167 -44 -24.5 -59s-20 -29 -32 -42s-25.667 -22.5 -41 -28.5s-32.333 -9 -51 -9v28c25.333 0 47.5 7.66699 66.5 23s34 41 45 77s19.833 70.167 26.5 102.5s11.334 79 14.001 140s4.33398 110 5.00098 147
s1 91.833 1 164.5v5.5v5.5v6v6h382v-283h156zM736.998 27.998c34.667 0 64.167 2.33105 88.5 6.99805s46.833 13.334 67.5 26.001s36 31.334 46 56.001s15 55.667 15 93c0 71.333 -18.167 119.833 -54.5 145.5s-90.5 38.5 -162.5 38.5h-156v-366h156z" />
    <glyph glyph-name="uni040A" unicode="&#x40a;" horiz-adv-x="1072" 
d="M759 422c86 0 149.333 -16.334 190 -49.001s61 -87 61 -163c0 -75.333 -20.333 -129.166 -61 -161.499s-104 -48.5 -190 -48.5h-190v337h-453v-337h-35v705h35v-340h453v340h34v-283h156zM759 27.999c34.667 0 64.167 2.33105 88.5 6.99805s46.833 13.334 67.5 26.001
s36 31.334 46 56.001s15 55.667 15 93c0 71.333 -18.167 119.833 -54.5 145.5s-90.5 38.5 -162.5 38.5h-156v-366h156z" />
    <glyph glyph-name="uni040B" unicode="&#x40b;" horiz-adv-x="799" 
d="M660 441c38.667 2 58 -17.667 58 -59v-382h-35v414l-435 -21v-393h-35v677h-172v28h560v-28h-353v-256z" />
    <glyph glyph-name="uni040C" unicode="&#x40c;" horiz-adv-x="583" 
d="M432 879l-257 -75l-10 34l257 75zM427 677l-205 -282c-4 -5.33301 -7 -9 -9 -11l328 -384h-42l-310 367c-6 -2 -12.667 -3 -20 -3h-53v-364h-35v705h35v-309h69l201 277c14 21.333 31.667 32 53 32h109v-28h-121z" />
    <glyph glyph-name="uni040D" unicode="&#x40d;" horiz-adv-x="717" 
d="M462 838l-10 -34l-257 75l10 34zM636 0h-35v658l3 34h-13l-434 -692h-75v705h34v-658l-3 -34h13l435 692h75v-705z" />
    <glyph glyph-name="uni040F" unicode="&#x40f;" horiz-adv-x="645" 
d="M529 705h34v-705h-223v-127h-35v127h-224v705h35v-677h413v677z" />
    <glyph glyph-name="uni0410" unicode="&#x410;" horiz-adv-x="637" 
d="M563 0l-105 306h-279l-105 -306h-33l242 705h71l242 -705h-33zM189 334h259l-123 358h-13z" />
    <glyph glyph-name="uni0411" unicode="&#x411;" horiz-adv-x="594" 
d="M272 422c86 0 149.333 -16.334 190 -49.001s61 -87 61 -163c0 -75.333 -20.333 -129.166 -61 -161.499s-104 -48.5 -190 -48.5h-191v705h374v-28h-339v-255h156zM272 27.999c34.667 0 64.167 2.33105 88.5 6.99805s46.666 13.334 66.999 26.001s35.5 31.334 45.5 56.001
s15 55.667 15 93c0 72 -18.167 120.667 -54.5 146s-90.166 38 -161.499 38h-156v-366h156z" />
    <glyph glyph-name="uni0412" unicode="&#x412;" horiz-adv-x="613" 
d="M81 0l0.000976562 705h150c86 0 150.667 -12.5 194 -37.5s65 -70.167 65 -135.5c0 -42 -11.833 -77.667 -35.5 -107s-53.167 -45 -88.5 -47v-14c54.667 -0.666992 97.667 -16.5 129 -47.5s47 -74.167 47 -129.5c0 -64.667 -20.333 -112 -61 -142
s-102.334 -45 -185.001 -45h-215zM116.001 381h107.998c78.667 0 136.834 10.333 174.501 31s56.5 59.667 56.5 117c0 26.667 -3.66699 49.167 -11 67.5s-16.666 32.833 -27.999 43.5s-27.666 18.667 -48.999 24s-42.333 8.83301 -63 10.5s-47.334 2.5 -80.001 2.5h-108
v-296zM115.999 28l173 0.000976562c73.333 0 128 11.667 164 35s54 65.666 54 126.999c0 108.667 -72.667 163 -218 163h-173v-325z" />
    <glyph glyph-name="uni0413" unicode="&#x413;" horiz-adv-x="514" 
d="M81 0v705h381v-28h-346v-677h-35z" />
    <glyph glyph-name="uni0414" unicode="&#x414;" horiz-adv-x="691" 
d="M650 28l-0.000976562 -154.998h-35v127h-539v-127h-35v155h66c30.667 99.333 51.334 198.166 62.001 296.499s16 225.166 16 380.499h399v-677h66zM141.999 28.002h407v649h-330c-0.666992 -147.333 -6.16699 -268.333 -16.5 -363s-30.5 -190 -60.5 -286z" />
    <glyph glyph-name="uni0415" unicode="&#x415;" horiz-adv-x="539" 
d="M81 0v705h397v-28h-362v-310h312v-28h-312v-311h362v-28h-397z" />
    <glyph glyph-name="uni0416" unicode="&#x416;" horiz-adv-x="981" 
d="M819 677l-204.998 -282l-9 -12l335 -383h-39l-323 366c-6.66699 -1.33301 -12.334 -2 -17.001 -2h-53v-364h-35v364h-52c-4.66699 0 -10.334 0.666992 -17.001 2l-323 -366h-40l336 383c-2.66699 2.66699 -6 6.66699 -10 12l-205 282h-121v28h109
c21.333 0 39 -10.667 53 -32l202 -277h68v309h35v-309h69l201 277c14 21.333 31.667 32 53 32h109v-28h-121z" />
    <glyph glyph-name="uni0417" unicode="&#x417;" horiz-adv-x="649" 
d="M71 269h35.002c0 -87.333 19.333 -151 58 -191s96.667 -60 174 -60c136.667 0 205 62 205 186c0 51.333 -13.833 90.5 -41.5 117.5s-66.834 40.5 -117.501 40.5h-98v28h98c48.667 0 85.667 12.167 111 36.5s38 56.833 38 97.5c0 108.667 -65 163 -195 163
c-148 0 -222 -69.333 -222 -208h-35c0 74 21 131.833 63 173.5s106.667 62.5 194 62.5c78.667 0 136.667 -17.5 174 -52.5s56 -78.833 56 -131.5c0 -38 -9.16699 -70.5 -27.5 -97.5s-48.5 -43.833 -90.5 -50.5v-13c85.333 -20.667 128 -78 128 -172
c0 -63.333 -19.833 -113.833 -59.5 -151.5s-99.834 -56.5 -180.501 -56.5c-178 0 -267 93 -267 279z" />
    <glyph glyph-name="uni0418" unicode="&#x418;" horiz-adv-x="717" 
d="M636 0h-35v658l3 34h-13l-434 -692h-75v705h34v-658l-3 -34h13l435 692h75v-705z" />
    <glyph glyph-name="uni0419" unicode="&#x419;" horiz-adv-x="717" 
d="M472 936c0 -104 -46.667 -156 -140 -156c-94 0 -141 52 -141 156h35c0 -39.333 8.16699 -68.833 24.5 -88.5s43.5 -29.5 81.5 -29.5s65 9.83301 81 29.5s24 49.167 24 88.5h35zM636 0h-35v658l3 34h-13l-434 -692h-75v705h34v-658l-3 -34h13l435 692h75v-705z" />
    <glyph glyph-name="uni041A" unicode="&#x41a;" horiz-adv-x="583" 
d="M427 677l-205 -282c-4 -5.33301 -7 -9 -9 -11l328 -384h-42l-310 367c-6 -2 -12.667 -3 -20 -3h-53v-364h-35v705h35v-309h69l201 277c14 21.333 31.667 32 53 32h109v-28h-121z" />
    <glyph glyph-name="uni041B" unicode="&#x41b;" horiz-adv-x="663" 
d="M581 705l-0.00195312 -705.001h-34v677h-314c0 -42 -0.166992 -76.667 -0.5 -104s-0.833008 -60.5 -1.5 -99.5s-2 -71.333 -4 -97s-4.5 -55 -7.5 -88s-7 -60.167 -12 -81.5s-11 -44.166 -18 -68.499s-15.167 -44 -24.5 -59s-20 -29 -32 -42s-25.667 -22.5 -41 -28.5
s-32.333 -9 -51 -9v28c25.333 0 47.5 7.66699 66.5 23s34 41 45 77s19.833 70.167 26.5 102.5s11.334 79 14.001 140s4.33398 110 5.00098 147s1 91.833 1 164.5v5.5v5.5v6v6h382z" />
    <glyph glyph-name="uni041C" unicode="&#x41c;" horiz-adv-x="841" 
d="M81 0v705h74l259 -692h13l259 692h74v-705h-35v658l4 34h-14l-255 -692h-78l-256 692h-13l3 -34v-658h-35z" />
    <glyph glyph-name="uni041D" unicode="&#x41d;" horiz-adv-x="685" 
d="M569 705h34v-705h-34v337h-453v-337h-35v705h35v-340h453v340z" />
    <glyph glyph-name="uni041E" unicode="&#x41e;" horiz-adv-x="763" 
d="M71 353c0 105.333 27.833 192 83.5 260s131.5 102 227.5 102c95.333 0 170.833 -34 226.5 -102s83.5 -154.667 83.5 -260c0 -106 -27.833 -193 -83.5 -261s-131.167 -102 -226.5 -102c-96 0 -171.833 34 -227.5 102s-83.5 155 -83.5 261zM106 353
c0 -99.333 23.667 -180 71 -242s115.666 -93 204.999 -93s157.5 31 204.5 93s70.5 142.667 70.5 242c0 98.667 -23.5 179 -70.5 241s-115.167 93 -204.5 93s-157.666 -31 -204.999 -93s-71 -142.333 -71 -241z" />
    <glyph glyph-name="uni041F" unicode="&#x41f;" horiz-adv-x="651" 
d="M570 705v-705h-35v677h-419v-677h-35v705h489z" />
    <glyph glyph-name="uni0420" unicode="&#x420;" horiz-adv-x="584" 
d="M245 705c93.333 0 163 -16.666 209 -49.999s69 -90 69 -170c0 -80.667 -23 -137.834 -69 -171.501s-115.667 -50.5 -209 -50.5h-129v-263h-35v705h164zM242 291.001c37.333 0 69.5 2.50195 96.5 7.50195s52.5 14.167 76.5 27.5s42.167 33.166 54.5 59.499
s18.5 59.5 18.5 99.5c0 39.333 -6.16699 72.166 -18.5 98.499s-30.5 46 -54.5 59s-49.5 22 -76.5 27s-59.167 7.5 -96.5 7.5h-126v-386h126z" />
    <glyph glyph-name="uni0421" unicode="&#x421;" horiz-adv-x="754" 
d="M71 353c0 105.333 27.667 192.001 83 260.001s131 102 227 102c84.667 0 153.5 -25 206.5 -75s84.833 -119 95.5 -207h-35c-8 81.333 -34.5 144 -79.5 188s-107.5 66 -187.5 66c-90.667 0 -159.167 -31.167 -205.5 -93.5s-69.5 -142.5 -69.5 -240.5
c0 -98.667 23.167 -179.167 69.5 -241.5s114.833 -93.5 205.5 -93.5c80 0 142.5 22.167 187.5 66.5s71.5 107.166 79.5 188.499h35c-10.667 -88 -42.5 -157.167 -95.5 -207.5s-121.833 -75.5 -206.5 -75.5c-96 0 -171.667 34 -227 102s-83 155 -83 261z" />
    <glyph glyph-name="uni0422" unicode="&#x422;" horiz-adv-x="644" 
d="M592 705v-28h-252v-677h-35v677h-254v28h541z" />
    <glyph glyph-name="uni0423" unicode="&#x423;" horiz-adv-x="616" 
d="M540 705h35l-244 -498v-172c0 -32 -19.333 -47 -58 -45l-199 11v28l222 -11v189l-245 498h36l220 -449v-13h13v13z" />
    <glyph glyph-name="uni0424" unicode="&#x424;" horiz-adv-x="786" 
d="M735 351c0 -69.333 -25.5 -127.666 -76.5 -174.999s-132.5 -72.666 -244.5 -75.999v-100h-41v100c-112.667 3.33301 -194.5 28.666 -245.5 75.999s-76.5 105.666 -76.5 174.999c0 68.667 25.5 126.667 76.5 174s132.833 72.666 245.5 75.999v104h41v-104
c112 -3.33301 193.5 -28.666 244.5 -75.999s76.5 -105.333 76.5 -174zM414 128c54.667 1.33301 101.5 8.66797 140.5 22.001s68.667 31 89 53s34.833 45 43.5 69s13 50.333 13 79c0 28 -4.33301 54 -13 78s-23.167 47 -43.5 69s-50 39.667 -89 53
s-85.833 20.666 -140.5 21.999v-445zM86 351.002c0 -28.667 4.5 -55 13.5 -79s23.667 -47 44 -69s50 -39.5 89 -52.5s85.833 -20.5 140.5 -22.5v445c-54.667 -2 -101.667 -9.5 -141 -22.5s-69 -30.5 -89 -52.5s-34.5 -45 -43.5 -69s-13.5 -50 -13.5 -78z" />
    <glyph glyph-name="uni0425" unicode="&#x425;" horiz-adv-x="625" 
d="M41 0l249 341v24l-249 340h39l233 -323l232 323h39l-249 -340v-24l249 -341h-39l-232 324l-233 -324h-39z" />
    <glyph glyph-name="uni0426" unicode="&#x426;" horiz-adv-x="726" 
d="M630 28c14 0 25 -4 33 -12s12 -19 12 -33v-110h-35v127h-559v705h35v-677h419v677h35v-677h60z" />
    <glyph glyph-name="uni0427" unicode="&#x427;" horiz-adv-x="667" 
d="M551 705h35v-705h-35v284l-412 -20c-38.667 -2 -58 17.667 -58 59v382h35v-414l435 21v393z" />
    <glyph glyph-name="uni0428" unicode="&#x428;" horiz-adv-x="915" 
d="M799 705h35v-705h-753v705h35v-677h324v677h35v-677h324v677z" />
    <glyph glyph-name="uni0429" unicode="&#x429;" horiz-adv-x="990" 
d="M894 28c14 0 25 -4 33 -12s12 -19 12 -33v-110h-35v127h-823v705h35v-677h324v677h35v-677h324v677h35v-677h60z" />
    <glyph glyph-name="uni042A" unicode="&#x42a;" horiz-adv-x="678" 
d="M365 422c86 0 149.333 -16.334 190 -49.001s61 -87 61 -163c0 -75.333 -20.333 -129.166 -61 -161.499s-104 -48.5 -190 -48.5h-190v677h-134v28h168v-283h156zM365 27.999c34.667 0 64.167 2.33105 88.5 6.99805s46.833 13.334 67.5 26.001s36 31.334 46 56.001
s15 55.667 15 93c0 71.333 -18.167 119.833 -54.5 145.5s-90.5 38.5 -162.5 38.5h-156v-366h156z" />
    <glyph glyph-name="uni042B" unicode="&#x42b;" horiz-adv-x="743" 
d="M116 705v-283.001h156c86 0 149.333 -16.333 190 -49s61 -87 61 -163c0 -75.333 -20.333 -129.166 -61 -161.499s-104 -48.5 -190 -48.5h-191v705h35zM627 704.999h34v-705h-34v705zM116 27.999l156 -0.00195312c34.667 0 64.167 2.33301 88.5 7
s46.666 13.334 66.999 26.001s35.5 31.334 45.5 56.001s15 55.667 15 93c0 72 -18.167 120.667 -54.5 146s-90.166 38 -161.499 38h-156v-366z" />
    <glyph glyph-name="uni042C" unicode="&#x42c;" horiz-adv-x="584" 
d="M116 705v-283.001h156c86 0 149.333 -16.333 190 -49s61 -87 61 -163c0 -75.333 -20.333 -129.166 -61 -161.499s-104 -48.5 -190 -48.5h-191v705h35zM116 27.999l156 -0.00195312c34.667 0 64.167 2.33301 88.5 7s46.666 13.334 66.999 26.001s35.5 31.334 45.5 56.001
s15 55.667 15 93c0 72 -18.167 120.667 -54.5 146s-90.166 38 -161.499 38h-156v-366z" />
    <glyph glyph-name="uni042D" unicode="&#x42d;" horiz-adv-x="754" 
d="M373 715c96 0 171.666 -34.002 226.999 -102.002s83 -154.667 83 -260c0 -106 -27.667 -193 -83 -261s-131 -102 -227 -102c-84.667 0 -153.5 25.167 -206.5 75.5s-84.833 119.5 -95.5 207.5h35c8 -81.333 34.5 -144.166 79.5 -188.499s107.5 -66.5 187.5 -66.5
c88.667 0 156.167 29.833 202.5 89.5s70.5 136.834 72.5 231.501h-321v28h321c-1.33301 61.333 -11.666 115.5 -30.999 162.5s-50 85 -92 114s-92.667 43.5 -152 43.5c-80 0 -142.5 -22 -187.5 -66s-71.5 -106.667 -79.5 -188h-35c10.667 88 42.5 157 95.5 207
s121.833 75 206.5 75z" />
    <glyph glyph-name="uni042E" unicode="&#x42e;" horiz-adv-x="877" 
d="M529 715c88 0 156 -33.833 204 -101.5s72 -154.5 72 -260.5s-24 -193 -72 -261s-116 -102 -204 -102c-86.667 0 -154 32.5 -202 97.5s-73 148.833 -75 251.5h-136v-339h-35v705h35v-338h136c2 102 27 185.5 75 250.5s115.333 97.5 202 97.5zM529 18
c81.333 0 142 31.833 182 95.5s60 143.5 60 239.5c0 61.333 -7.83301 116.333 -23.5 165s-42.167 89 -79.5 121s-83.666 48 -138.999 48s-101.833 -16 -139.5 -48s-64.334 -72.333 -80.001 -121s-23.5 -103.667 -23.5 -165c0 -45.333 4.66699 -87.5 14 -126.5
s23.333 -74.333 42 -106s44 -56.667 76 -75s69 -27.5 111 -27.5z" />
    <glyph glyph-name="uni042F" unicode="&#x42f;" horiz-adv-x="604" 
d="M523 705v-704.999h-35v343h-140c-14.667 0 -34.667 0.666992 -60 2l-92 -317c-4.66699 -18.667 -23 -28 -55 -28h-100v28h120l97 320c-57.333 7.33301 -99.666 24.666 -126.999 51.999s-41 69 -41 125c0 68 20.667 115 62 141s106.666 39 195.999 39h175zM488 371.001
v305.999h-133c-40 0 -72.333 -1.5 -97 -4.5s-48 -9.5 -70 -19.5s-38 -25.5 -48 -46.5s-15 -48.167 -15 -81.5s5 -60.666 15 -81.999s26 -37 48 -47s45.333 -16.667 70 -20s57 -5 97 -5h133z" />
    <glyph glyph-name="uni0430" unicode="&#x430;" horiz-adv-x="561" 
d="M61 138c0 39.333 12.5029 71.165 37.5029 95.498s63.5 38.5 115.5 42.5l208 16c-4 59.333 -20 103.833 -48 133.5s-66.333 44.5 -115 44.5c-45.333 0 -83.833 -12.333 -115.5 -37s-47.5 -65 -47.5 -121h-38c0 50 17.167 94.167 51.5 132.5s84.166 57.5 149.499 57.5
s114.666 -21.167 147.999 -63.5s50 -94.5 50 -156.5v-254h73v-28h-62c-14.667 0 -26.334 4.33301 -35.001 13s-13 20.334 -13 35.001v37l5 47h-13c-10 -38 -33.5 -71.167 -70.5 -99.5s-81.167 -42.5 -132.5 -42.5c-30.667 0 -56.5 5 -77.5 15s-36.167 23.333 -45.5 40
s-15.833 32.334 -19.5 47.001s-5.5 30 -5.5 46zM96.0029 135.999c0 -37.333 10.167 -66.333 30.5 -87s49.5 -31 87.5 -31c44 0 82.5 13.5 115.5 40.5s56.667 58.5 71 94.5s21.5 72 21.5 108l-205 -18c-43.333 -3.33301 -74.333 -13 -93 -29s-28 -42 -28 -78z" />
    <glyph glyph-name="uni0431" unicode="&#x431;" horiz-adv-x="609" 
d="M71 314c0 90 20.5 159.499 61.5 208.499s108.167 87.5 201.5 115.5c49.333 14.667 82.666 27.5 99.999 38.5s28.333 26.167 33 45.5h49c-8 -30.667 -23.333 -52.5 -46 -65.5s-65.667 -29.167 -129 -48.5c-12 -3.33301 -21 -6 -27 -8
c-64 -19.333 -112.833 -47.666 -146.5 -84.999s-52.167 -80 -55.5 -128l-14 -37h14c11.333 43.333 37.333 79.5 78 108.5s89 43.5 145 43.5c70.667 0 124 -22.667 160 -68s54 -106 54 -182c0 -78.667 -20.667 -142 -62 -190s-100 -72 -176 -72
c-77.333 0 -136.666 27.5 -177.999 82.5s-62 135.5 -62 241.5zM106 237.999c0 -26.667 4 -52.5 12 -77.5s19.833 -48.333 35.5 -70s37.167 -39.167 64.5 -52.5s58.333 -20 93 -20c135.333 0 203 78.667 203 236c0 146.667 -58 220 -174 220c-70 0 -126.5 -21.5 -169.5 -64.5
s-64.5 -100.167 -64.5 -171.5z" />
    <glyph glyph-name="uni0432" unicode="&#x432;" horiz-adv-x="507" 
d="M81 0v491.999h146c62.667 0 110.167 -8.66699 142.5 -26s48.5 -48.333 48.5 -93c0 -35.333 -8.66699 -61.166 -26 -77.499s-38 -25.5 -62 -27.5v-14c83.333 -1.33301 125 -42.333 125 -123c0 -87.333 -63.667 -131 -191 -131h-183zM119 276.999h108.002
c57.333 0 97.166 5.5 119.499 16.5s33.5 36.833 33.5 77.5c0 33.333 -11.833 55.5 -35.5 66.5s-62.834 16.5 -117.501 16.5h-108v-177zM119.002 37.999h144.999c56 0 95.5 5.83301 118.5 17.5s34.5 37.167 34.5 76.5c0 42 -12.167 70.333 -36.5 85s-63.166 22 -116.499 22
h-145v-201z" />
    <glyph glyph-name="uni0433" unicode="&#x433;" horiz-adv-x="410" 
d="M81 0v492h298v-28h-263v-464h-35z" />
    <glyph glyph-name="uni0434" unicode="&#x434;" horiz-adv-x="631" 
d="M560 28v-155.001h-35v127h-429v-127h-35v155h66c26.667 64.667 45.667 133.334 57 206.001s17 158.667 17 258h293v-464h66zM162 27.999h297v436h-223c-2 -174.667 -26.667 -320 -74 -436z" />
    <glyph glyph-name="uni0435" unicode="&#x435;" horiz-adv-x="575" 
d="M61 254c0 78 20.832 138.834 62.499 182.501s95.834 65.5 162.501 65.5c65.333 0 116.833 -21 154.5 -63s56.5 -101 56.5 -177v-20h-400c9.33301 -147.333 75.333 -221 198 -221c99.333 0 160.666 50 183.999 150h35c-7.33301 -24 -15.5 -45 -24.5 -63
s-21.667 -36.833 -38 -56.5s-37.666 -34.834 -63.999 -45.501s-57.166 -16 -92.499 -16c-78.667 0 -137.334 25 -176.001 75s-58 113 -58 189zM96.999 273.001h362c0 63.333 -15.333 112 -46 146s-73 51 -127 51s-99 -17.333 -135 -52s-54 -83 -54 -145z" />
    <glyph glyph-name="uni0436" unicode="&#x436;" horiz-adv-x="736" 
d="M614 464l-150.002 -202c-4 -6 -8.33301 -11.333 -13 -16l244 -246h-49l-222 230c-5.33301 -1.33301 -9.66602 -2 -12.999 -2h-26v-228h-34v228h-26c-3.33301 0 -7.66602 0.666992 -12.999 2l-222 -230h-49l244 246c-4.66699 4.66699 -9 10 -13 16l-150 202h-81v28h72
c18 0 35.333 -11.667 52 -35l147 -197h39v232h34v-232h39l147 197c16.667 23.333 34 35 52 35h72v-28h-81z" />
    <glyph glyph-name="uni0437" unicode="&#x437;" horiz-adv-x="503" 
d="M71 194h38c0 -60.667 11.167 -103.5 33.5 -128.5s61.833 -37.5 118.5 -37.5c50.667 0 85.5 9.5 104.5 28.5s28.5 48.5 28.5 88.5c0 66.667 -32.667 100 -98 100h-76v40h76c33.333 0 56.333 7.16699 69 21.5s19 36.5 19 66.5c0 28.667 -8.83301 51 -26.5 67
s-51.167 24 -100.5 24c-54 0 -90.5 -9.83301 -109.5 -29.5s-28.5 -50.5 -28.5 -92.5h-38c0 50.667 14.833 90 44.5 118s73.5 42 131.5 42c52.667 0 93.334 -11.833 122.001 -35.5s43 -53.5 43 -89.5c0 -56.667 -32.333 -91.667 -97 -105v-13
c71.333 -13.333 107 -52.333 107 -117c0 -47.333 -14.833 -84.5 -44.5 -111.5s-71.834 -40.5 -126.501 -40.5c-126.667 0 -190 68 -190 204z" />
    <glyph glyph-name="uni0438" unicode="&#x438;" horiz-adv-x="551" 
d="M489 0h-38v453l4 25h-14l-281 -478h-79v492h38v-455l-3 -24h13l281 479h79v-492z" />
    <glyph glyph-name="uni0439" unicode="&#x439;" horiz-adv-x="551" 
d="M424 723c0 -104 -46.667 -156 -140 -156c-94 0 -141 52 -141 156h35c0 -39.333 8.16699 -68.833 24.5 -88.5s43.5 -29.5 81.5 -29.5s65 9.83301 81 29.5s24 49.167 24 88.5h35zM489 0h-38v453l4 25h-14l-281 -478h-79v492h38v-455l-3 -24h13l281 479h79v-492z" />
    <glyph glyph-name="uni043A" unicode="&#x43a;" horiz-adv-x="473" 
d="M432 0l-49 0.000976562l-222 231c-6 -2 -12.333 -3 -19 -3h-26v-228h-35v492h35v-232h39l146 197c6 8 11 14.167 15 18.5s9.33301 8.16602 16 11.499s14 5 22 5h71v-28h-81l-149 -202l-9 -12z" />
    <glyph glyph-name="uni043B" unicode="&#x43b;" horiz-adv-x="553" 
d="M471 492v-492h-34v464h-247c0 -175.333 -7 -296.5 -21 -363.5s-50 -100.5 -108 -100.5v28c43.333 0 69.833 30 79.5 90s14.5 165.667 14.5 317v57h316z" />
    <glyph glyph-name="uni043C" unicode="&#x43c;" horiz-adv-x="644" 
d="M81 0v492h72l162 -479h13l162 479h73v-492h-35v455l4 23h-14l-159 -478h-75l-158 478h-13l3 -23v-455h-35z" />
    <glyph glyph-name="uni043D" unicode="&#x43d;" horiz-adv-x="537" 
d="M421 492h34v-492h-34v232h-305v-232h-35v492h35v-232h305v232z" />
    <glyph glyph-name="uni043E" unicode="&#x43e;" horiz-adv-x="620" 
d="M61 246c0 67.333 22.667 126.833 68 178.5s105.666 77.5 180.999 77.5s135.5 -25.833 180.5 -77.5s67.5 -111.167 67.5 -178.5s-22.5 -126.833 -67.5 -178.5s-105.167 -77.5 -180.5 -77.5s-135.666 25.833 -180.999 77.5s-68 111.167 -68 178.5zM96 246
c0 -62 18.833 -115.5 56.5 -160.5s90.167 -67.5 157.5 -67.5s119.833 22.5 157.5 67.5s56.5 98.5 56.5 160.5s-18.833 115.5 -56.5 160.5s-90.167 67.5 -157.5 67.5s-119.833 -22.5 -157.5 -67.5s-56.5 -98.5 -56.5 -160.5z" />
    <glyph glyph-name="uni043F" unicode="&#x43f;" horiz-adv-x="511" 
d="M430 492v-492h-35v464h-279v-464h-35v492h349z" />
    <glyph glyph-name="uni0440" unicode="&#x440;" horiz-adv-x="637" 
d="M81 492l35 0.000976562v-98l-3 -37h13c8.66699 42 33.334 76.667 74.001 104s87.667 41 141 41c71.333 0 128.333 -22.5 171 -67.5s64 -108.167 64 -189.5c0 -80.667 -21.5 -143.334 -64.5 -188.001s-99.833 -67 -170.5 -67c-53.333 0 -100.333 13.5 -141 40.5
s-65.334 61.5 -74.001 103.5h-13l3 -36v-275h-35v669zM116 245.001c0 -74.667 21.167 -131.167 63.5 -169.5s94.166 -57.5 155.499 -57.5c60 0 109.333 19.167 148 57.5s58 94.833 58 169.5c0 75.333 -19.333 132.333 -58 171s-88 58 -148 58
c-61.333 0 -113.166 -19.333 -155.499 -58s-63.5 -95.667 -63.5 -171z" />
    <glyph glyph-name="uni0441" unicode="&#x441;" horiz-adv-x="570" 
d="M61 246c0 69.333 20.665 129.333 61.998 180s99.333 76 174 76c16.667 0 33 -1.33301 49 -4s33.5 -8.16699 52.5 -16.5s35.667 -19 50 -32s27 -31 38 -54s18.167 -49.5 21.5 -79.5h-34c-16.667 105.333 -75.667 158 -177 158c-66 0 -116 -22 -150 -66s-51 -98 -51 -162
s17 -118 51 -162s84 -66 150 -66c101.333 0 160.333 52.667 177 158h34c-4 -37.333 -13.5 -69 -28.5 -95s-33.667 -45.167 -56 -57.5s-43.666 -21 -63.999 -26s-41.166 -7.5 -62.499 -7.5c-74.667 0 -132.667 25.167 -174 75.5s-62 110.5 -62 180.5z" />
    <glyph glyph-name="uni0442" unicode="&#x442;" horiz-adv-x="509" 
d="M458 492v-28h-186v-464h-35v464h-186v28h407z" />
    <glyph glyph-name="uni0443" unicode="&#x443;" horiz-adv-x="543" 
d="M467 492h34l-207 -502v-128c0 -32 -19.333 -47 -58 -45l-159 11v28l183 -13v147l-209 502h35l184 -452v-13h14v13z" />
    <glyph glyph-name="uni0444" unicode="&#x444;" horiz-adv-x="700" 
d="M638 246c0 -68 -22.667 -126.831 -68 -176.498s-113 -76.167 -203 -79.5v-170h-33v170c-90 3.33301 -158 29.666 -204 78.999s-69 108.333 -69 177s23 127.667 69 177s114 75.666 204 78.999v173h33v-173c90 -3.33301 157.667 -29.833 203 -79.5s68 -108.5 68 -176.5z
M96 246.002c0 -62 19 -114.669 57 -158.002s98.333 -66.666 181 -69.999v456c-82.667 -3.33301 -143 -26.666 -181 -69.999s-57 -96 -57 -158zM367 18c82.667 3.33301 142.834 26.501 180.501 69.501s56.5 95.833 56.5 158.5c0 62 -18.833 114.667 -56.5 158
s-97.834 66.666 -180.501 69.999v-456z" />
    <glyph glyph-name="uni0445" unicode="&#x445;" horiz-adv-x="527" 
d="M51 0l184 240v13l-184 239h41l172 -222l171 222h41l-184 -239v-13l184 -240h-41l-171 223l-172 -223h-41z" />
    <glyph glyph-name="uni0446" unicode="&#x446;" horiz-adv-x="583" 
d="M496 28c30 0 45 -15 45 -45v-110h-34v127h-426v492h35v-464h279v464h35v-464h66z" />
    <glyph glyph-name="uni0447" unicode="&#x447;" horiz-adv-x="577" 
d="M461 492l35 -0.000976562v-492h-35v180l-322 -20c-20.667 -1.33301 -35.5 2.83398 -44.5 12.501s-13.5 25.167 -13.5 46.5v273h35v-305l345 21v284z" />
    <glyph glyph-name="uni0448" unicode="&#x448;" horiz-adv-x="735" 
d="M619 492h35v-492h-573v492h35v-464h234v464h35v-464h234v464z" />
    <glyph glyph-name="uni0449" unicode="&#x449;" horiz-adv-x="807" 
d="M720 28c30 0 45 -15 45 -45v-110h-34v127h-650v492h35v-464h234v464h35v-464h234v464h35v-464h66z" />
    <glyph glyph-name="uni044A" unicode="&#x44a;" horiz-adv-x="572" 
d="M316 329c62.667 0 110.834 -12.501 144.501 -37.501s50.5 -67.167 50.5 -126.5s-16.833 -101.666 -50.5 -126.999s-81.834 -38 -144.501 -38h-156v464h-119v28h154v-163h121zM306 27.999c27.333 0 49.666 1.33105 66.999 3.99805s34.666 8.33398 51.999 17.001
s30.166 22.667 38.499 42s12.5 44 12.5 74s-4.16699 54.5 -12.5 73.5s-21.166 32.833 -38.499 41.5s-34.666 14.334 -51.999 17.001s-39.666 4 -66.999 4h-111v-273h111z" />
    <glyph glyph-name="uni044B" unicode="&#x44b;" horiz-adv-x="613" 
d="M237 329c62.667 0 110.834 -12.501 144.501 -37.501s50.5 -67.167 50.5 -126.5s-16.833 -101.666 -50.5 -126.999s-81.834 -38 -144.501 -38h-156v492h35v-163h121zM497 -0.000976562v492h35v-492h-35zM116 27.999l111 -0.00195312c27.333 0 49.666 1.33301 66.999 4
s34.666 8.33398 51.999 17.001s30.166 22.667 38.499 42s12.5 44 12.5 74s-4.16699 54.5 -12.5 73.5s-21.166 32.833 -38.499 41.5s-34.666 14.334 -51.999 17.001s-39.666 4 -66.999 4h-111v-273z" />
    <glyph glyph-name="uni044C" unicode="&#x44c;" horiz-adv-x="493" 
d="M237 329c62.667 0 110.834 -12.501 144.501 -37.501s50.5 -67.167 50.5 -126.5s-16.833 -101.666 -50.5 -126.999s-81.834 -38 -144.501 -38h-156v492h35v-163h121zM116 27.999l111 -0.00195312c27.333 0 49.666 1.33301 66.999 4s34.666 8.33398 51.999 17.001
s30.166 22.667 38.499 42s12.5 44 12.5 74s-4.16699 54.5 -12.5 73.5s-21.166 32.833 -38.499 41.5s-34.666 14.334 -51.999 17.001s-39.666 4 -66.999 4h-111v-273z" />
    <glyph glyph-name="uni044D" unicode="&#x44d;" horiz-adv-x="570" 
d="M272 502c74.667 0 132.666 -25.333 173.999 -76s62 -110.667 62 -180c0 -70 -20.5 -130.167 -61.5 -180.5s-99.167 -75.5 -174.5 -75.5c-21.333 0 -42.166 2.5 -62.499 7.5s-41.5 13.667 -63.5 26s-40.667 31.5 -56 57.5s-25 57.667 -29 95h35
c16 -105.333 74.667 -158 176 -158c63.333 0 112 20.167 146 60.5s52.667 90.833 56 151.5h-256v33h256c-3.33301 60 -22.166 110.167 -56.499 150.5s-82.833 60.5 -145.5 60.5c-101.333 0 -160 -52.667 -176 -158h-35c4 37.333 13.667 69 29 95s34 45.167 56 57.5
s43.167 21 63.5 26s41.166 7.5 62.499 7.5z" />
    <glyph glyph-name="uni044E" unicode="&#x44e;" horiz-adv-x="783" 
d="M490 502c73.333 0 130.332 -24.833 170.999 -74.5s61 -110.167 61 -181.5s-20.167 -131.833 -60.5 -181.5s-97.5 -74.5 -171.5 -74.5c-71.333 0 -127.166 23.167 -167.499 69.5s-61.833 103.833 -64.5 172.5h-142v-232h-35v492h35v-232h142
c3.33301 68.667 25 126.167 65 172.5s95.667 69.5 167 69.5zM489.999 18c67.333 0 117 21.8311 149 65.498s48 97.834 48 162.501s-16 118.834 -48 162.501s-81.667 65.5 -149 65.5c-35.333 0 -66 -6.33301 -92 -19s-46.5 -30 -61.5 -52s-26 -46 -33 -72
s-10.5 -54.333 -10.5 -85s3.5 -59 10.5 -85s18 -50 33 -72s35.5 -39.333 61.5 -52s56.667 -19 92 -19z" />
    <glyph glyph-name="uni044F" unicode="&#x44f;" horiz-adv-x="449" 
d="M368 492l0.000976562 -492.001h-35v227h-55h-19l-101 -197c-8.66699 -20 -26.667 -30 -54 -30h-73v31h83l106 199c-93.333 12.667 -140 56 -140 130c0 46.667 15.667 80.334 47 101.001s81.666 31 150.999 31h90zM333.001 264.999v189h-68
c-50.667 0 -88.334 -7 -113.001 -21s-37 -38.333 -37 -73c0 -36 12.333 -60.833 37 -74.5s62.334 -20.5 113.001 -20.5h68z" />
    <glyph glyph-name="uni0450" unicode="&#x450;" horiz-adv-x="575" 
d="M418 625l-10 -34l-257 75l10 34zM61 254c0 78 20.832 138.834 62.499 182.501s95.834 65.5 162.501 65.5c65.333 0 116.833 -21 154.5 -63s56.5 -101 56.5 -177v-20h-400c9.33301 -147.333 75.333 -221 198 -221c99.333 0 160.666 50 183.999 150h35
c-7.33301 -24 -15.5 -45 -24.5 -63s-21.667 -36.833 -38 -56.5s-37.666 -34.834 -63.999 -45.501s-57.166 -16 -92.499 -16c-78.667 0 -137.334 25 -176.001 75s-58 113 -58 189zM96.999 273.001h362c0 63.333 -15.333 112 -46 146s-73 51 -127 51s-99 -17.333 -135 -52
s-54 -83 -54 -145z" />
    <glyph glyph-name="uni0451" unicode="&#x451;" horiz-adv-x="575" 
d="M201 602c-14.667 0 -27.834 5.66699 -39.501 17s-17.5 24.666 -17.5 39.999s5.83301 28.5 17.5 39.5s24.834 16.5 39.501 16.5s27.834 -5.5 39.501 -16.5s17.5 -24.167 17.5 -39.5s-5.83301 -28.666 -17.5 -39.999s-24.834 -17 -39.501 -17zM374 602
c-14.667 0 -27.667 5.66699 -39 17s-17 24.666 -17 39.999s5.66699 28.5 17 39.5s24.333 16.5 39 16.5s27.834 -5.5 39.501 -16.5s17.5 -24.167 17.5 -39.5s-5.83301 -28.666 -17.5 -39.999s-24.834 -17 -39.501 -17zM61 254c0 78 20.832 138.834 62.499 182.501
s95.834 65.5 162.501 65.5c65.333 0 116.833 -21 154.5 -63s56.5 -101 56.5 -177v-20h-400c9.33301 -147.333 75.333 -221 198 -221c99.333 0 160.666 50 183.999 150h35c-7.33301 -24 -15.5 -45 -24.5 -63s-21.667 -36.833 -38 -56.5s-37.666 -34.834 -63.999 -45.501
s-57.166 -16 -92.499 -16c-78.667 0 -137.334 25 -176.001 75s-58 113 -58 189zM96.999 273.001h362c0 63.333 -15.333 112 -46 146s-73 51 -127 51s-99 -17.333 -135 -52s-54 -83 -54 -145z" />
    <glyph glyph-name="uni0452" unicode="&#x452;" horiz-adv-x="584" 
d="M350 502c51.333 0 91.334 -15.833 120.001 -47.5s43 -75.834 43 -132.501v-463c0 -32.667 -19.333 -48 -58 -46l-159 11v28l182 -11v479c0 54 -11.5 93.167 -34.5 117.5s-57.833 36.5 -104.5 36.5c-57.333 0 -105 -22.667 -143 -68s-57 -100.666 -57 -165.999v-240h-34
v636h-47v35h47v64h34v-64h152v-35h-152v-245l-3 -37h13c10 45.333 32.667 81.333 68 108s79.666 40 132.999 40z" />
    <glyph glyph-name="uni0453" unicode="&#x453;" horiz-adv-x="408" 
d="M85 625l257 75l10 -34l-257 -75zM79 0v492h297v-28h-262v-464h-35z" />
    <glyph glyph-name="uni0454" unicode="&#x454;" horiz-adv-x="570" 
d="M298 18c101.333 0 159.999 52.667 175.999 158h35c-4 -37.333 -13.667 -69 -29 -95s-34 -45.167 -56 -57.5s-43.167 -21 -63.5 -26s-41.166 -7.5 -62.499 -7.5c-75.333 0 -133.5 25.167 -174.5 75.5s-61.5 110.5 -61.5 180.5c0 69.333 20.667 129.333 62 180
s99.333 76 174 76c21.333 0 42.166 -2.5 62.499 -7.5s41.5 -13.667 63.5 -26s40.667 -31.5 56 -57.5s25 -57.667 29 -95h-35c-16 105.333 -74.667 158 -176 158c-62.667 0 -111.167 -20.167 -145.5 -60.5s-53.166 -90.5 -56.499 -150.5h256v-33h-256
c3.33301 -60.667 22 -111.167 56 -151.5s82.667 -60.5 146 -60.5z" />
    <glyph glyph-name="uni0455" unicode="&#x455;" horiz-adv-x="468" 
d="M427 118c0 -85.333 -57.333 -128 -172 -128c-136 0 -204 64.333 -204 193h35c0 -105.333 55.667 -158 167 -158c92.667 0 139 30 139 90c0 9.33301 -0.833008 18.166 -2.5 26.499s-5 16 -10 23l-13 18c-3.66699 5 -10.167 10.167 -19.5 15.5s-16.166 9.33301 -20.499 12
s-12.833 6.16699 -25.5 10.5l-25 8.5c-4 1.33301 -13.5 4.16602 -28.5 8.49902s-23.833 6.83301 -26.5 7.5c-50.667 15.333 -87.834 33.333 -111.501 54s-35.5 49.334 -35.5 86.001c0 36 14 64.5 42 85.5s66.667 31.5 116 31.5c34 0 63.333 -4.66699 88 -14
s43.167 -22 55.5 -38s21.166 -32.5 26.499 -49.5s8 -35.5 8 -55.5h-35c0 42 -11.833 72.833 -35.5 92.5s-59.5 29.5 -107.5 29.5c-36 0 -65.5 -6.5 -88.5 -19.5s-34.5 -33.5 -34.5 -61.5c0 -25.333 7.83301 -46.166 23.5 -62.499s42.834 -30.833 81.501 -43.5l37 -11.5
c18 -5.66699 30.833 -9.83398 38.5 -12.501s19.167 -7 34.5 -13s26.666 -11.333 33.999 -16s16.333 -11 27 -19s18.334 -16 23.001 -24s9 -17.667 13 -29s6 -23.666 6 -36.999z" />
    <glyph glyph-name="uni0456" unicode="&#x456;" horiz-adv-x="409" 
d="M202 602c-15.333 0 -28.833 5.49902 -40.5 16.499s-17.5 24.5 -17.5 40.5c0 15.333 5.83301 28.5 17.5 39.5s25.167 16.5 40.5 16.5c14.667 0 28 -5.5 40 -16.5s18 -24.167 18 -39.5s-6 -28.666 -18 -39.999s-25.333 -17 -40 -17zM61 -0.000976562v28h138v447l-91 -11v28
l83 10c14 1.33301 24 -0.166992 30 -4.5s9 -13.5 9 -27.5v-442h138v-28h-307z" />
    <glyph glyph-name="uni0457" unicode="&#x457;" horiz-adv-x="403" 
d="M80 602c-14.667 0 -27.667 5.66699 -39 17s-17 24.666 -17 39.999s5.66699 28.5 17 39.5s24.333 16.5 39 16.5s27.834 -5.5 39.501 -16.5s17.5 -24.167 17.5 -39.5s-5.83301 -28.666 -17.5 -39.999s-24.834 -17 -39.501 -17zM253 602c-14.667 0 -27.667 5.66699 -39 17
s-17 24.666 -17 39.999s5.66699 28.5 17 39.5s24.333 16.5 39 16.5s27.834 -5.5 39.501 -16.5s17.5 -24.167 17.5 -39.5s-5.83301 -28.666 -17.5 -39.999s-24.834 -17 -39.501 -17zM55 0v28h140v447l-93 -11v28l67 10c19.333 2.66699 32.833 -1 40.5 -11s11.5 -26 11.5 -48
v-415h141v-28h-307z" />
    <glyph glyph-name="uni0458" unicode="&#x458;" horiz-adv-x="243" 
d="M125 602c-15.333 0 -28.833 5.49902 -40.5 16.499s-17.5 24.5 -17.5 40.5c0 15.333 5.83301 28.5 17.5 39.5s25.167 16.5 40.5 16.5c14.667 0 28 -5.5 40 -16.5s18 -24.167 18 -39.5s-6 -28.666 -18 -39.999s-25.333 -17 -40 -17zM31 -173.001l80 147
c11.333 20.667 17 43.334 17 68.001v433l-97 -11v28l79 11c30 3.33301 45 -9.33398 45 -38.001v-435c0 -25.333 -5.66699 -48 -17 -68l-77 -135h-30z" />
    <glyph glyph-name="uni0459" unicode="&#x459;" horiz-adv-x="849" 
d="M593 329c62.667 0 110.667 -12.501 144 -37.501s50 -67.167 50 -126.5s-16.667 -101.666 -50 -126.999s-81.333 -38 -144 -38h-156v464h-247c0 -175.333 -7 -296.5 -21 -363.5s-50 -100.5 -108 -100.5v28c43.333 0 69.833 30 79.5 90s14.5 165.667 14.5 317v57h316v-163
h122zM583 27.999c21.333 0 39.3281 0.666992 53.9951 2s29.834 4.66602 45.501 9.99902s28.334 12.833 38.001 22.5s17.5 23.167 23.5 40.5s9 38 9 62c0 30 -4.16699 54.5 -12.5 73.5s-21.166 32.833 -38.499 41.5s-34.666 14.334 -51.999 17.001s-39.666 4 -66.999 4h-112
v-273h112z" />
    <glyph glyph-name="uni045A" unicode="&#x45a;" horiz-adv-x="833" 
d="M577 329c62.667 0 110.667 -12.501 144 -37.501s50 -67.167 50 -126.5s-16.667 -101.666 -50 -126.999s-81.333 -38 -144 -38h-156v232h-305v-232h-35v492h35v-232h305v232h34v-163h122zM567 27.999c21.333 0 39.3281 0.666992 53.9951 2s29.834 4.66602 45.501 9.99902
s28.334 12.833 38.001 22.5s17.5 23.167 23.5 40.5s9 38 9 62c0 30 -4.16699 54.5 -12.5 73.5s-21.166 32.833 -38.499 41.5s-34.666 14.334 -51.999 17.001s-39.666 4 -66.999 4h-112v-273h112z" />
    <glyph glyph-name="uni045B" unicode="&#x45b;" horiz-adv-x="587" 
d="M353 502c51.333 0 91.333 -15.833 120 -47.5s43 -75.834 43 -132.501v-322h-35v320c0 54 -11.5 93.167 -34.5 117.5s-57.5 36.5 -103.5 36.5c-58 0 -105.833 -22.667 -143.5 -68s-56.5 -100.666 -56.5 -165.999v-240h-35v636h-47v35h47v64h35v-64h152v-35h-152v-245
l-4 -37h14c10 46 32.5 82.167 67.5 108.5s79.167 39.5 132.5 39.5z" />
    <glyph glyph-name="uni045C" unicode="&#x45c;" horiz-adv-x="473" 
d="M361 666l-257 -75l-10 34l257 75zM432 0l-49 0.000976562l-222 231c-6 -2 -12.333 -3 -19 -3h-26v-228h-35v492h35v-232h39l146 197c6 8 11 14.167 15 18.5s9.33301 8.16602 16 11.499s14 5 22 5h71v-28h-81l-149 -202l-9 -12z" />
    <glyph glyph-name="uni045F" unicode="&#x45f;" horiz-adv-x="538" 
d="M422 495h35v-495h-171v-127h-34v127h-171v495h35v-467h306v467z" />
    <glyph glyph-name="uni0490" unicode="&#x490;" horiz-adv-x="494" 
d="M428 788h34v-111h-346v-677h-35v705h347v83z" />
    <glyph glyph-name="uni0491" unicode="&#x491;" horiz-adv-x="410" 
d="M344 634h35v-170h-263v-464h-35v492h263v142z" />
    <glyph glyph-name="Wgrave" unicode="&#x1e80;" horiz-adv-x="920" 
d="M590 838l-10 -34l-257 75l10 34zM41 705h31l164 -692h14l177 692h66l177 -692h14l164 692h31l-168 -705h-68l-176 692h-14l-176 -692h-68z" />
    <glyph glyph-name="wgrave" unicode="&#x1e81;" horiz-adv-x="807" 
d="M534 625l-10 -34l-257 75l10 34zM31 492h33l153 -479h14l137 479h70l138 -479h13l153 479h33l-159 -492h-67l-139 478h-13l-139 -478h-68z" />
    <glyph glyph-name="Wacute" unicode="&#x1e82;" horiz-adv-x="920" 
d="M330 838l257 75l10 -34l-257 -75zM41 705h31l164 -692h14l177 692h66l177 -692h14l164 692h31l-168 -705h-68l-176 692h-14l-176 -692h-68z" />
    <glyph glyph-name="wacute" unicode="&#x1e83;" horiz-adv-x="807" 
d="M273 625l257 75l10 -34l-257 -75zM31 492h33l153 -479h14l137 479h70l138 -479h13l153 479h33l-159 -492h-67l-139 478h-13l-139 -478h-68z" />
    <glyph glyph-name="Wdieresis" unicode="&#x1e84;" horiz-adv-x="920" 
d="M373 815c-14.667 0 -27.834 5.66699 -39.501 17s-17.5 24.666 -17.5 39.999s5.83301 28.5 17.5 39.5s24.834 16.5 39.501 16.5s27.834 -5.5 39.501 -16.5s17.5 -24.167 17.5 -39.5s-5.83301 -28.666 -17.5 -39.999s-24.834 -17 -39.501 -17zM546 815
c-14.667 0 -27.667 5.66699 -39 17s-17 24.666 -17 39.999s5.66699 28.5 17 39.5s24.333 16.5 39 16.5s27.834 -5.5 39.501 -16.5s17.5 -24.167 17.5 -39.5s-5.83301 -28.666 -17.5 -39.999s-24.834 -17 -39.501 -17zM41 705h31l164 -692h14l177 692h66l177 -692h14l164 692
h31l-168 -705h-68l-176 692h-14l-176 -692h-68z" />
    <glyph glyph-name="wdieresis" unicode="&#x1e85;" horiz-adv-x="807" 
d="M317 602c-14.667 0 -27.834 5.66699 -39.501 17s-17.5 24.666 -17.5 39.999s5.83301 28.5 17.5 39.5s24.834 16.5 39.501 16.5s27.834 -5.5 39.501 -16.5s17.5 -24.167 17.5 -39.5s-5.83301 -28.666 -17.5 -39.999s-24.834 -17 -39.501 -17zM490 602
c-14.667 0 -27.667 5.66699 -39 17s-17 24.666 -17 39.999s5.66699 28.5 17 39.5s24.333 16.5 39 16.5s27.834 -5.5 39.501 -16.5s17.5 -24.167 17.5 -39.5s-5.83301 -28.666 -17.5 -39.999s-24.834 -17 -39.501 -17zM31 492h33l153 -479h14l137 479h70l138 -479h13l153 479
h33l-159 -492h-67l-139 478h-13l-139 -478h-68z" />
    <glyph glyph-name="uni1E9E" unicode="&#x1e9e;" horiz-adv-x="570" 
d="M172 0v28.001l177 -9c43.333 -2.66699 76.666 11 99.999 41s35 77.333 35 142c0 128 -68.667 177 -206 147l-25 62l135 155c0 80.667 -40 121 -120 121c-54.667 0 -93.667 -11.333 -117 -34s-35 -66.334 -35 -131.001v-522h-35v527c0 70 16.5 118.833 49.5 146.5
s78.833 41.5 137.5 41.5c26 0 48.833 -3.66699 68.5 -11s34.834 -16.333 45.501 -27s19.167 -23.5 25.5 -38.5s10.5 -28.667 12.5 -41s3 -25.166 3 -38.499l-143 -161l3 -14c71.333 13.333 128.333 5.83301 171 -22.5s64 -83.5 64 -165.5c0 -39.333 -5 -73.333 -15 -102
s-23.5 -50.334 -40.5 -65.001s-34.833 -25.167 -53.5 -31.5s-38.667 -8.83301 -60 -7.5z" />
    <glyph glyph-name="Ygrave" unicode="&#x1ef2;" horiz-adv-x="620" 
d="M441 838l-10 -34l-257 75l10 34zM541 705h38l-251 -421v-284h-35v284l-252 421h38l225 -374v-37h13v37z" />
    <glyph glyph-name="ygrave" unicode="&#x1ef3;" horiz-adv-x="543" 
d="M407 625l-10 -34l-257 75l10 34zM467 492h34l-207 -502v-128c0 -32 -19.333 -47 -58 -45l-159 11v28l183 -13v147l-209 502h35l184 -452v-13h14v13z" />
    <glyph glyph-name="endash" unicode="&#x2013;" horiz-adv-x="818" 
d="M91 258h636v-35h-636v35z" />
    <glyph glyph-name="emdash" unicode="&#x2014;" horiz-adv-x="1018" 
d="M91 258h836v-35h-836v35z" />
    <glyph glyph-name="quoteleft" unicode="&#x2018;" horiz-adv-x="284" 
d="M138 727l55 -206l-34 -9l-55 206z" />
    <glyph glyph-name="quoteright" unicode="&#x2019;" horiz-adv-x="284" 
d="M147 727l33 -9l-55 -206l-34 9z" />
    <glyph glyph-name="quotesinglbase" unicode="&#x201a;" horiz-adv-x="295" 
d="M173 149l31 -10l-82 -247l-31 9z" />
    <glyph glyph-name="quotedblleft" unicode="&#x201c;" horiz-adv-x="390" 
d="M138 727l55 -206l-34 -9l-55 206zM244 727l55 -206l-34 -9l-55 206z" />
    <glyph glyph-name="quotedblright" unicode="&#x201d;" horiz-adv-x="390" 
d="M147 727l33 -9l-55 -206l-34 9zM253 727l33 -9l-55 -206l-34 9z" />
    <glyph glyph-name="quotedblbase" unicode="&#x201e;" horiz-adv-x="402" 
d="M173 149l31 -10l-82 -247l-31 9zM280 149l31 -10l-82 -247l-31 9z" />
    <glyph glyph-name="dagger" unicode="&#x2020;" horiz-adv-x="543" 
d="M451 643v-34h-162v-458h-35v458h-163v34h163v210h35v-210h162z" />
    <glyph glyph-name="daggerdbl" unicode="&#x2021;" horiz-adv-x="543" 
d="M451 609h-162v-214h162v-34h-162v-210h-35v210h-163v34h163v214h-163v34h163v210h35v-210h162v-34z" />
    <glyph glyph-name="bullet" unicode="&#x2022;" horiz-adv-x="572" 
d="M285 51c-52 0 -97.333 19.167 -136 57.5s-58 84.5 -58 138.5c0 53.333 19.333 99 58 137s84 57 136 57c50.667 0 96 -19.167 136 -57.5s60 -83.833 60 -136.5c0 -54 -20 -100.167 -60 -138.5s-85.333 -57.5 -136 -57.5z" />
    <glyph glyph-name="ellipsis" unicode="&#x2026;" horiz-adv-x="759" 
d="M158 -10c-18 0 -33.667 6.5 -47 19.5s-20 28.833 -20 47.5c0 18 6.66699 33.5 20 46.5s29 19.5 47 19.5c17.333 0 32.833 -6.5 46.5 -19.5s20.5 -28.5 20.5 -46.5c0 -18.667 -6.83301 -34.5 -20.5 -47.5s-29.167 -19.5 -46.5 -19.5zM379 -10
c-17.333 0 -32.666 6.5 -45.999 19.5s-20 28.833 -20 47.5c0 18 6.66699 33.5 20 46.5s28.666 19.5 45.999 19.5s32.833 -6.5 46.5 -19.5s20.5 -28.5 20.5 -46.5c0 -18.667 -6.83301 -34.5 -20.5 -47.5s-29.167 -19.5 -46.5 -19.5zM601 -10c-18 0 -33.5 6.5 -46.5 19.5
s-19.5 28.833 -19.5 47.5c0 18 6.5 33.5 19.5 46.5s28.5 19.5 46.5 19.5c17.333 0 32.833 -6.5 46.5 -19.5s20.5 -28.5 20.5 -46.5c0 -18.667 -6.83301 -34.5 -20.5 -47.5s-29.167 -19.5 -46.5 -19.5z" />
    <glyph glyph-name="perthousand" unicode="&#x2030;" horiz-adv-x="1604" 
d="M686 817l33 -9l-284 -914l-33 10zM283 361c-56.667 0 -102.834 18.5 -138.501 55.5s-53.5 82.5 -53.5 136.5s17.833 99.5 53.5 136.5s81.834 55.5 138.501 55.5s102.834 -18.5 138.501 -55.5s53.5 -82.5 53.5 -136.5s-17.833 -99.5 -53.5 -136.5
s-81.834 -55.5 -138.501 -55.5zM283 396c45.333 0 83 15.333 113 46s45 67.667 45 111s-15 80.333 -45 111s-67.667 46 -113 46s-82.833 -15.333 -112.5 -46s-44.5 -67.667 -44.5 -111s14.833 -80.333 44.5 -111s67.167 -46 112.5 -46zM848 10
c-56.667 0 -102.834 18.5 -138.501 55.5s-53.5 82.5 -53.5 136.5s17.833 99.5 53.5 136.5s81.834 55.5 138.501 55.5s102.834 -18.5 138.501 -55.5s53.5 -82.5 53.5 -136.5s-17.833 -99.5 -53.5 -136.5s-81.834 -55.5 -138.501 -55.5zM1321 10
c-56.667 0 -102.834 18.5 -138.501 55.5s-53.5 82.5 -53.5 136.5s17.833 99.5 53.5 136.5s81.834 55.5 138.501 55.5s102.834 -18.5 138.501 -55.5s53.5 -82.5 53.5 -136.5s-17.833 -99.5 -53.5 -136.5s-81.834 -55.5 -138.501 -55.5zM848 45
c45.333 0 82.833 15.333 112.5 46s44.5 67.667 44.5 111s-14.833 80.333 -44.5 111s-67.167 46 -112.5 46s-82.833 -15.333 -112.5 -46s-44.5 -67.667 -44.5 -111s14.833 -80.333 44.5 -111s67.167 -46 112.5 -46zM1321 45c45.333 0 82.833 15.333 112.5 46
s44.5 67.667 44.5 111s-14.833 80.333 -44.5 111s-67.167 46 -112.5 46s-82.833 -15.333 -112.5 -46s-44.5 -67.667 -44.5 -111s14.833 -80.333 44.5 -111s67.167 -46 112.5 -46z" />
    <glyph glyph-name="guilsinglleft" unicode="&#x2039;" horiz-adv-x="467" 
d="M376 23l-32 -26l-253 251l253 250l32 -26l-227 -224z" />
    <glyph glyph-name="guilsinglright" unicode="&#x203a;" horiz-adv-x="467" 
d="M91 23l227 225l-227 224l32 26l253 -250l-253 -251z" />
    <glyph glyph-name="fraction" unicode="&#x2044;" horiz-adv-x="340" 
d="M296 814l33 -9l-285 -914l-33 9z" />
    <glyph glyph-name="Euro" unicode="&#x20ac;" horiz-adv-x="779" 
d="M445 18c64 0 113 17.4971 147 52.4971s55 82.167 63 141.5h33c-11.333 -67.333 -37.666 -121.166 -78.999 -161.499s-96 -60.5 -164 -60.5c-78 0 -139 26.333 -183 79s-70.333 123.334 -79 212.001h-92v41h89c-0.666992 6.66699 -1 17 -1 31
c0 12.667 0.333008 22.334 1 29.001h-89v41h91c9.33301 89.333 36 160.333 80 213s105 79 183 79c68 0 122.667 -20 164 -60s67.666 -93.667 78.999 -161h-34c-7.33301 59.333 -28 106.333 -62 141s-83 52 -147 52c-136 0 -212 -88 -228 -264h249v-41h-252v-29
c0 -14 0.333008 -24.333 1 -31h251v-41h-249c16 -175.333 92 -263 228 -263z" />
    <glyph glyph-name="trademark" unicode="&#x2122;" horiz-adv-x="844" 
d="M346 705v-31h-107v-303h-40v303h-108v31h255zM670 705h83v-334h-42v313l-1 8h-4l-90 -321h-84l-92 321h-2l-3 -8v-313h-41v334h83l93 -321h6z" />
    <glyph glyph-name="oneeighth" unicode="&#x215b;" horiz-adv-x="914" 
d="M549 814l33 -9l-284 -914l-33 9zM51 525c30.667 18 52.667 39.501 66 64.501s19 56.833 17 95.5h101v-395h-48v366l1 16h-6c-3.33301 -46 -13.5 -82.833 -30.5 -110.5s-45.833 -51.834 -86.5 -72.501zM526 109.001c0 64 32.9971 100.667 98.9971 110v9
c-24 3.33301 -42.667 12.166 -56 26.499s-20 33.5 -20 57.5c0 28.667 13.667 51.334 41 68.001s62 25 104 25s76.5 -8.33301 103.5 -25s40.5 -39.334 40.5 -68.001c0 -24 -6.66699 -43.167 -20 -57.5s-31.666 -23.166 -54.999 -26.499v-9c66 -9.33301 99 -46 99 -110
c0 -34.667 -14.667 -63.167 -44 -85.5s-70.666 -33.5 -123.999 -33.5s-94.666 11.167 -123.999 33.5s-44 50.833 -44 85.5zM596.997 305.001c0 -18 8.33301 -32.667 25 -44s40.667 -17 72 -17c32 0 56 5.5 72 16.5s24 25.833 24 44.5c0 18 -8 32.333 -24 43s-40 16 -72 16
c-31.333 0 -55.333 -5.33301 -72 -16s-25 -25 -25 -43zM573.997 117.001c0 -22.667 9.16699 -42.667 27.5 -60s49.166 -26 92.499 -26c42.667 0 73.334 8.66699 92.001 26s28 37.333 28 60s-9.33301 42.667 -28 60s-49.334 26 -92.001 26
c-43.333 0 -74.166 -8.66699 -92.499 -26s-27.5 -37.333 -27.5 -60z" />
    <glyph glyph-name="threeeighths" unicode="&#x215c;" horiz-adv-x="1073" 
d="M666 814l33 -9l-285 -914l-33 9zM51 444l47.998 0.000976562c0 -43.333 9.66699 -74 29 -92s50.333 -27 93 -27c71.333 0 107 26.333 107 79c0 29.333 -9 49.833 -27 61.5s-38 17.5 -60 17.5h-50v43h50c20.667 0 39.5 5 56.5 15s25.5 26.333 25.5 49
c0 45.333 -34 68 -102 68c-41.333 0 -71.166 -7.83301 -89.499 -23.5s-27.5 -39.834 -27.5 -72.501h-48c0 42.667 14.833 76.167 44.5 100.5s69.834 36.5 120.501 36.5c44 0 79.833 -10.333 107.5 -31s41.5 -46 41.5 -76c0 -21.333 -7.5 -39.666 -22.5 -54.999
s-35.167 -25.333 -60.5 -30v-6c26.667 -5.33301 48 -16.333 64 -33s24 -39 24 -67c0 -34.667 -14.333 -62.834 -43 -84.501s-65.667 -32.5 -111 -32.5c-52.667 0 -94.167 13.333 -124.5 40s-45.5 66.667 -45.5 120zM685.998 109.001c0 64 32.9971 100.667 98.9971 110v9
c-24 3.33301 -42.667 12.166 -56 26.499s-20 33.5 -20 57.5c0 28.667 13.667 51.334 41 68.001s62 25 104 25s76.5 -8.33301 103.5 -25s40.5 -39.334 40.5 -68.001c0 -24 -6.66699 -43.167 -20 -57.5s-31.666 -23.166 -54.999 -26.499v-9c66 -9.33301 99 -46 99 -110
c0 -34.667 -14.667 -63.167 -44 -85.5s-70.666 -33.5 -123.999 -33.5s-94.666 11.167 -123.999 33.5s-44 50.833 -44 85.5zM756.995 305.001c0 -18 8.33301 -32.667 25 -44s40.667 -17 72 -17s55.166 5.66699 71.499 17s24.5 26 24.5 44s-8.16699 32.333 -24.5 43
s-40.166 16 -71.499 16s-55.333 -5.33301 -72 -16s-25 -25 -25 -43zM733.995 117.001c0 -22.667 9.16699 -42.667 27.5 -60s49.166 -26 92.499 -26c42.667 0 73.334 8.66699 92.001 26s28 37.333 28 60s-9.33301 42.667 -28 60s-49.334 26 -92.001 26
c-43.333 0 -74.166 -8.66699 -92.499 -26s-27.5 -37.333 -27.5 -60z" />
    <glyph glyph-name="fiveeighths" unicode="&#x215d;" horiz-adv-x="1066" 
d="M659 814l33 -9l-285 -914l-33 9zM51 432h48c0 -36.667 10.333 -63.667 31 -81s52.667 -26 96 -26c34 0 62.5 9 85.5 27s34.5 47.667 34.5 89c0 60 -31 90 -93 90c-54.667 0 -93.667 -18.333 -117 -55l-62 46v162h274v-42h-226v-86l-3 -24l7 -4
c33.333 29.333 73 44 119 44c46.667 0 83.167 -12.167 109.5 -36.5s39.5 -58.5 39.5 -102.5c0 -47.333 -15.667 -84 -47 -110s-72.333 -39 -123 -39c-54.667 0 -97.167 13.167 -127.5 39.5s-45.5 62.5 -45.5 108.5zM679 109c0 64 32.9971 100.667 98.9971 110v9
c-24 3.33301 -42.667 12.166 -56 26.499s-20 33.5 -20 57.5c0 28.667 13.667 51.334 41 68.001s62 25 104 25s76.5 -8.33301 103.5 -25s40.5 -39.334 40.5 -68.001c0 -24 -6.66699 -43.167 -20 -57.5s-31.666 -23.166 -54.999 -26.499v-9c66 -9.33301 99 -46 99 -110
c0 -34.667 -14.667 -63.167 -44 -85.5s-70.666 -33.5 -123.999 -33.5s-94.666 11.167 -123.999 33.5s-44 50.833 -44 85.5zM749.997 305c0 -18 8.33301 -32.667 25 -44s40.667 -17 72 -17s55.166 5.66699 71.499 17s24.5 26 24.5 44s-8.16699 32.333 -24.5 43
s-40.166 16 -71.499 16s-55.333 -5.33301 -72 -16s-25 -25 -25 -43zM726.997 117c0 -22.667 9.16699 -42.667 27.5 -60s49.166 -26 92.499 -26c42.667 0 73.334 8.66699 92.001 26s28 37.333 28 60s-9.33301 42.667 -28 60s-49.334 26 -92.001 26
c-43.333 0 -74.166 -8.66699 -92.499 -26s-27.5 -37.333 -27.5 -60z" />
    <glyph glyph-name="seveneighths" unicode="&#x215e;" horiz-adv-x="1032" 
d="M598 814l33 -9l-284 -914l-33 9zM117 290c0 82 15.666 149.667 46.999 203s81.333 101 150 143v8h-263v41h276v-91c-57.333 -30 -98.666 -68.833 -123.999 -116.5s-38 -110.167 -38 -187.5h-48zM644.999 109c0 64 32.9971 100.667 98.9971 110v9
c-24 3.33301 -42.667 12.166 -56 26.499s-20 33.5 -20 57.5c0 28.667 13.667 51.334 41 68.001s62 25 104 25s76.5 -8.33301 103.5 -25s40.5 -39.334 40.5 -68.001c0 -24 -6.66699 -43.167 -20 -57.5s-31.666 -23.166 -54.999 -26.499v-9c66 -9.33301 99 -46 99 -110
c0 -34.667 -14.667 -63.167 -44 -85.5s-70.666 -33.5 -123.999 -33.5s-94.666 11.167 -123.999 33.5s-44 50.833 -44 85.5zM715.996 305c0 -18 8.16699 -32.667 24.5 -44s40.5 -17 72.5 -17c31.333 0 55.166 5.66699 71.499 17s24.5 26 24.5 44s-8.16699 32.333 -24.5 43
s-40.166 16 -71.499 16c-32 0 -56.167 -5.33301 -72.5 -16s-24.5 -25 -24.5 -43zM692.996 117c0 -22.667 9.16699 -42.667 27.5 -60s49.166 -26 92.499 -26c42.667 0 73.334 8.66699 92.001 26s28 37.333 28 60s-9.33301 42.667 -28 60s-49.334 26 -92.001 26
c-43.333 0 -74.166 -8.66699 -92.499 -26s-27.5 -37.333 -27.5 -60z" />
    <glyph glyph-name="arrowleft" unicode="&#x2190;" horiz-adv-x="670" 
d="M579 269v-41h-410l207 -205l-32 -26l-253 251l253 250l32 -26l-206 -203h409z" />
    <glyph glyph-name="arrowup" unicode="&#x2191;" horiz-adv-x="684" 
d="M593 244l-27 -32l-204 207v-410h-42v408l-202 -205l-27 32l229 231l22 22z" />
    <glyph glyph-name="arrowright" unicode="&#x2192;" horiz-adv-x="670" 
d="M326 498l253 -250l-253 -251l-32 26l207 205h-410v41h409l-206 203z" />
    <glyph glyph-name="arrowdown" unicode="&#x2193;" horiz-adv-x="684" 
d="M593 263l-251 -252l-21 21h-1v1l-229 230l27 32l202 -204v407h42v-409l204 206z" />
    <glyph glyph-name="arrowboth" unicode="&#x2194;" horiz-adv-x="1013" 
d="M921 325l-252 -252l-32 27l206 205h-409v41h408l-205 202l32 27zM376 395l-205 -202h408v-42h-410l207 -204l-32 -27l-253 251l22 22l231 229z" />
    <glyph glyph-name="arrowupdn" unicode="&#x2195;" horiz-adv-x="811" 
d="M310 170v408l-202 -205l-27 32l229 231l22 22l251 -253l-27 -32l-204 207v-410h-42zM703 108l27 -32l-252 -253l-250 253l27 32l202 -206v409h41v-410z" />
    <glyph glyph-name="uni2196" unicode="&#x2196;" horiz-adv-x="539" 
d="M451 372l-288 1l288 -288l-29 -29l-289 289l1 -290l-42 3v356l355 -1z" />
    <glyph glyph-name="uni2197" unicode="&#x2197;" horiz-adv-x="539" 
d="M448 414l-1 -356l-41 -3l1 290l-290 -289l-29 29l289 288l-288 -1l3 41z" />
    <glyph glyph-name="uni2198" unicode="&#x2198;" horiz-adv-x="539" 
d="M92 69l-3 41l288 -1l-289 288l29 29l290 -289l-1 290l41 -3l1 -356z" />
    <glyph glyph-name="uni2199" unicode="&#x2199;" horiz-adv-x="539" 
d="M451 397l-288 -288l288 1l-4 -41l-325 -1h-30v356l42 3l-1 -290l289 289z" />
    <glyph glyph-name="partialdiff" unicode="&#x2202;" horiz-adv-x="680" 
d="M589 319c0 -102.667 -22.6689 -183.166 -68.002 -241.499s-106.666 -87.5 -183.999 -87.5c-79.333 0 -140.166 24 -182.499 72s-63.5 111.333 -63.5 190c0 74 22.167 134.167 66.5 180.5s103.166 69.5 176.499 69.5c51.333 0 96.833 -15 136.5 -45
s65.834 -72 78.501 -126h13l-3 37c-10 82.667 -51.833 153.667 -125.5 213s-161.5 96.666 -263.5 111.999v28c120.667 -15.333 220.667 -59.5 300 -132.5s119 -162.833 119 -269.5zM553.998 252.001c0 64 -21.5 117.001 -64.5 159.001s-98.5 63 -166.5 63
c-60 0 -107.833 -20.833 -143.5 -62.5s-53.5 -94.834 -53.5 -159.501c0 -74.667 17.667 -132.334 53 -173.001s87.333 -61 156 -61c68 0 121.5 23.333 160.5 70s58.5 101.334 58.5 164.001z" />
    <glyph glyph-name="emptyset" unicode="&#x2205;" horiz-adv-x="977" 
d="M704 620c57.333 -35.333 101.999 -82.834 133.999 -142.501s48 -125.167 48 -196.5c0 -112 -37 -206.167 -111 -282.5s-169.333 -114.5 -286 -114.5c-68 0 -130 14 -186 42l-64 -112l-30 18l64 111c-57.333 34.667 -102 81.834 -134 141.501s-48 125.167 -48 196.5
c0 112 37.167 206.167 111.5 282.5s169.833 114.5 286.5 114.5c66.667 0 128.334 -13.667 185.001 -41l64 111l30 -18zM125.999 280.999c0 -63.333 14.667 -122.167 44 -176.5s69.666 -97.833 120.999 -130.5l365 632c-52 25.333 -107.667 38 -167 38
c-105.333 0 -192.166 -35.5 -260.499 -106.5s-102.5 -156.5 -102.5 -256.5zM488.999 -82.002c104.667 0 191.166 35.501 259.499 106.501s102.5 156.5 102.5 256.5c0 63.333 -14.667 122.166 -44 176.499s-69.666 97.833 -120.999 130.5l-365 -631
c50.667 -26 106.667 -39 168 -39z" />
    <glyph glyph-name="product" unicode="&#x220f;" horiz-adv-x="725" 
d="M634 705v-35h-124v-850h-48v850h-199v-850h-48v850h-124v35h543z" />
    <glyph glyph-name="summation" unicode="&#x2211;" horiz-adv-x="562" 
d="M91 -180v36l298 400v14l-298 399v36h380v-35h-275l-37 4v-14l273 -381v-32l-273 -383v-13l37 3h275v-34h-380z" />
    <glyph glyph-name="minus" unicode="&#x2212;" horiz-adv-x="621" 
d="M91 258h439v-35h-439v35z" />
    <glyph glyph-name="radical" unicode="&#x221a;" horiz-adv-x="785" 
d="M466 666c6 26 22.333 39 49 39h179v-35h-184l-196 -850h-94l-129 385h44l125 -372h14z" />
    <glyph glyph-name="infinity" unicode="&#x221e;" horiz-adv-x="979" 
d="M91 300c0 47.333 17 85.833 51 115.5s79.333 44.5 136 44.5c44.667 0 83.5 -10.667 116.5 -32s64.5 -51.333 94.5 -90c30 38.667 61.5 68.667 94.5 90s71.833 32 116.5 32c56.667 0 102 -14.833 136 -44.5s51 -68.167 51 -115.5s-17 -85.833 -51 -115.5
s-79.333 -44.5 -136 -44.5c-44.667 0 -83.5 10.667 -116.5 32s-64.5 51.333 -94.5 90c-30 -38.667 -61.5 -68.667 -94.5 -90s-71.833 -32 -116.5 -32c-56.667 0 -102 14.833 -136 44.5s-51 68.167 -51 115.5zM139 300c0 -38 11.667 -68.333 35 -91s54.666 -34 93.999 -34
c66.667 0 132 41.667 196 125c-64 83.333 -129.333 125 -196 125c-39.333 0 -70.666 -11.333 -93.999 -34s-35 -53 -35 -91zM515 300c64 -83.333 129 -125 195 -125c39.333 0 70.666 11.333 93.999 34s35 53 35 91s-11.667 68.333 -35 91s-54.666 34 -93.999 34
c-66 0 -131 -41.667 -195 -125z" />
    <glyph glyph-name="integral" unicode="&#x222b;" horiz-adv-x="649" 
d="M91 -180v35h124l162 809c5.33301 27.333 21.333 41 48 41h133v-35h-137l-162 -809c-5.33301 -27.333 -21.333 -41 -48 -41h-120z" />
    <glyph glyph-name="approxequal" unicode="&#x2248;" horiz-adv-x="625" 
d="M91 293c0 26.667 6.49805 48.1689 19.498 64.502s26.5 26.666 40.5 30.999s28.667 6.5 44 6.5c32.667 0 74.834 -13.333 126.501 -40s90.834 -40 117.501 -40c40 0 60 22 60 66h35c0 -20 -3.5 -37.167 -10.5 -51.5s-16.333 -24.833 -28 -31.5
s-22.667 -11.334 -33 -14.001s-20.833 -4 -31.5 -4c-32.667 0 -75 13.333 -127 40s-91.333 40 -118 40c-40 0 -60 -22.333 -60 -67h-35zM90.998 107.002c0 26.667 6.49805 47.999 19.498 63.999s26.5 26.167 40.5 30.5s28.667 6.5 44 6.5
c32.667 0 74.834 -13.333 126.501 -40s90.834 -40 117.501 -40c40 0 60 22.333 60 67h35c0 -26.667 -6.5 -48.167 -19.5 -64.5s-26.333 -26.666 -40 -30.999s-28.167 -6.5 -43.5 -6.5c-32.667 0 -75 13.333 -127 40s-91.333 40 -118 40c-40 0 -60 -22 -60 -66h-35z" />
    <glyph glyph-name="notequal" unicode="&#x2260;" horiz-adv-x="621" 
d="M530 320h-150l-92 -159h242v-34h-261l-82 -142l-36 20l70 122h-130v34h150l92 159h-242v35h262l82 142l35 -21l-70 -121h130v-35z" />
    <glyph glyph-name="lessequal" unicode="&#x2264;" horiz-adv-x="619" 
d="M91 274v53l417 137l20 -34l-387 -130l387 -130l-20 -34zM528 75v-35h-439v35h439z" />
    <glyph glyph-name="greaterequal" unicode="&#x2265;" horiz-adv-x="619" 
d="M528 274l-417 -138l-20 34l387 130l-387 130l20 34l417 -137v-53zM91 75h439v-35h-439v35z" />
    </font>
</defs>
</svg>
