<svg width="21" height="21" viewBox="0 0 21 21" fill="none" xmlns="http://www.w3.org/2000/svg">
<path fill-rule="evenodd" clip-rule="evenodd" d="M6.34268 0.593992C7.42077 0.544355 7.76451 0.533325 10.5108 0.533325C13.257 0.533325 13.6007 0.545275 14.6779 0.593992C15.7551 0.642709 16.4904 0.814598 17.1337 1.0637C17.8074 1.31832 18.4186 1.71633 18.9241 2.23107C19.4388 2.73571 19.8359 3.34605 20.0895 4.02074C20.3395 4.66417 20.5105 5.39953 20.5601 6.47498C20.6097 7.55503 20.6208 7.89881 20.6208 10.6444C20.6208 13.391 20.6088 13.7348 20.5601 14.813C20.5114 15.8884 20.3395 16.6238 20.0895 17.2672C19.8358 17.942 19.4381 18.5533 18.9241 19.0587C18.4186 19.5735 17.8074 19.9706 17.1337 20.2243C16.4904 20.4743 15.7551 20.6452 14.6798 20.6949C13.6007 20.7445 13.257 20.7555 10.5108 20.7555C7.76451 20.7555 7.42077 20.7436 6.34268 20.6949C5.26734 20.6462 4.53207 20.4743 3.88871 20.2243C3.21402 19.9705 2.60273 19.5728 2.0974 19.0587C1.58306 18.5538 1.18503 17.9427 0.931072 17.2681C0.681999 16.6247 0.511048 15.8893 0.461417 14.8139C0.411786 13.7338 0.400757 13.3901 0.400757 10.6444C0.400757 7.89789 0.412705 7.55411 0.461417 6.47682C0.510129 5.39953 0.681999 4.66417 0.931072 4.02074C1.18541 3.34613 1.58374 2.73508 2.09832 2.23015C2.60294 1.71587 3.21361 1.3178 3.88779 1.0637C4.53115 0.814598 5.26734 0.643628 6.34268 0.593992ZM14.5961 2.41399C13.53 2.36527 13.2101 2.35516 10.5108 2.35516C7.81139 2.35516 7.49154 2.36527 6.4254 2.41399C5.43921 2.45903 4.9043 2.62357 4.54769 2.76237C4.0762 2.9462 3.73889 3.16405 3.38505 3.51794C3.04962 3.8443 2.79148 4.24161 2.62955 4.68072C2.49077 5.03737 2.32625 5.57234 2.28122 6.55863C2.2325 7.62489 2.2224 7.94477 2.2224 10.6444C2.2224 13.3441 2.2325 13.664 2.28122 14.7302C2.32625 15.7165 2.49077 16.2515 2.62955 16.6082C2.79131 17.0466 3.04958 17.4446 3.38505 17.7709C3.71132 18.1064 4.10929 18.3647 4.54769 18.5265C4.9043 18.6653 5.43921 18.8298 6.4254 18.8749C7.49154 18.9236 7.81047 18.9337 10.5108 18.9337C13.211 18.9337 13.53 18.9236 14.5961 18.8749C15.5823 18.8298 16.1172 18.6653 16.4738 18.5265C16.9453 18.3427 17.2826 18.1248 17.6365 17.7709C17.9719 17.4446 18.2302 17.0466 18.392 16.6082C18.5307 16.2515 18.6953 15.7165 18.7403 14.7302C18.789 13.664 18.7991 13.3441 18.7991 10.6444C18.7991 7.94477 18.789 7.62489 18.7403 6.55863C18.6953 5.57234 18.5307 5.03737 18.392 4.68072C18.2081 4.20917 17.9903 3.87183 17.6365 3.51794C17.3101 3.1825 16.9129 2.92434 16.4738 2.76237C16.1172 2.62357 15.5823 2.45903 14.5961 2.41399ZM9.21943 13.7614C9.94061 14.0617 10.7436 14.1022 11.4914 13.8761C12.2391 13.6499 12.8851 13.1712 13.3191 12.5217C13.7531 11.8721 13.9482 11.092 13.871 10.3145C13.7938 9.53712 13.4491 8.81062 12.8958 8.25913C12.5431 7.9066 12.1166 7.63667 11.6471 7.46876C11.1775 7.30086 10.6766 7.23916 10.1803 7.28811C9.68409 7.33707 9.20487 7.49545 8.77717 7.75186C8.34947 8.00827 7.98394 8.35633 7.70689 8.77099C7.42984 9.18564 7.24816 9.65657 7.17493 10.1499C7.1017 10.6432 7.13875 11.1466 7.28341 11.6239C7.42806 12.1011 7.67672 12.5404 8.01149 12.91C8.34626 13.2796 8.75881 13.5704 9.21943 13.7614ZM6.83623 6.96951C7.31878 6.48691 7.89164 6.10409 8.52212 5.84291C9.15259 5.58173 9.82833 5.4473 10.5108 5.4473C11.1932 5.4473 11.8689 5.58173 12.4994 5.84291C13.1299 6.10409 13.7027 6.48691 14.1853 6.96951C14.6678 7.45211 15.0506 8.02503 15.3118 8.65558C15.5729 9.28613 15.7073 9.96194 15.7073 10.6444C15.7073 11.3269 15.5729 12.0027 15.3118 12.6333C15.0506 13.2638 14.6678 13.8368 14.1853 14.3194C13.2107 15.294 11.889 15.8416 10.5108 15.8416C9.13254 15.8416 7.81078 15.294 6.83623 14.3194C5.86169 13.3447 5.31419 12.0228 5.31419 10.6444C5.31419 9.26607 5.86169 7.94416 6.83623 6.96951ZM16.8598 6.22129C16.9794 6.10847 17.0751 5.97281 17.1414 5.82233C17.2076 5.67185 17.2429 5.50962 17.2453 5.34523C17.2477 5.18084 17.2171 5.01765 17.1553 4.8653C17.0935 4.71296 17.0018 4.57456 16.8855 4.45831C16.7693 4.34206 16.6309 4.25031 16.4786 4.18851C16.3263 4.1267 16.1631 4.09609 15.9987 4.09849C15.8343 4.10088 15.6721 4.13624 15.5217 4.20246C15.3712 4.26868 15.2356 4.36442 15.1228 4.48401C14.9034 4.71659 14.7833 5.02553 14.7879 5.34523C14.7926 5.66493 14.9216 5.97023 15.1477 6.19632C15.3738 6.42241 15.679 6.55149 15.9987 6.55615C16.3184 6.56081 16.6273 6.44069 16.8598 6.22129Z" fill="black"/>
</svg>
