<svg width="1946" height="477" viewBox="0 0 1946 477" fill="none" xmlns="http://www.w3.org/2000/svg">
<path d="M45.4102 462.91C33.0404 462.91 22.3796 458.434 13.4278 449.482C4.47592 440.53 0 429.87 0 417.5V368.428L76.9043 350.849V381.91L133 369L133.556 273.5L28.5756 228.823C20.1121 225.242 13.2761 219.708 8.06779 212.221C3.02222 204.734 0.499434 196.433 0.499434 187.319V45.6543C0.499434 33.1218 4.97535 22.3796 13.9272 13.4278C22.879 4.47592 33.5398 0 45.9096 0H165.051C177.42 0 188.081 4.47592 197.033 13.4278C205.985 22.3796 210.461 33.1218 210.461 45.6543V94.4825L133.556 112.061V70.0684H77.4037V171.938L182.385 216.372C190.848 219.952 197.603 225.486 202.648 232.973C207.857 240.46 210.461 248.761 210.461 257.875L210 387.151C210 399.521 205.524 410.181 196.572 419.133C187.62 428.085 177 429.5 164.59 432.561L45.4102 462.91ZM447.541 383.18L230.5 418.445V355.598L251.496 350.759V70.0684H230.5V0H447.541V83.9844H370.392V70.0684H328.4V154.5H407.99L391.877 224.568H328.4V333L370.392 323.314V297.5L447.541 280V383.18ZM537.393 372.761V302.693L558.389 300.5V70.0684H544.229V83.9844H467.326V0H726.358V83.9844H649.21V70.0684H635.294V292.256L656.29 290.202V362.324L537.393 372.761ZM816.182 353.73V283.026H837.179V70.0684H823.018V83.9844H746.114V0H1005.15V83.9844H927.999V70.0684H914.083V281.435H935.079V351.156L816.182 353.73ZM1086.5 352.401L1042.37 70.0684H1024.8V0H1133.44V70.0684H1120.01L1143.94 234.619L1185.93 0H1256L1298 245L1321.92 70.0684H1308.49V0H1416.89V70.0684H1399.31L1355.5 367.5L1259.43 360.479L1220.84 119.141L1182.5 356L1086.5 352.401ZM1487 381.5C1475.3 379.62 1464.17 376.904 1455.22 367.952C1446.26 359 1441.79 348.34 1441.79 335.97V45.6543C1441.79 33.1218 1446.26 22.3796 1455.22 13.4278C1464.17 4.47592 1474.83 0 1487.2 0H1623.67C1636.21 0 1646.95 4.47592 1655.9 13.4278C1664.85 22.3796 1669.33 33.1218 1669.33 45.6543V337.245C1669.33 349.615 1664.85 379.245 1655.9 388.197C1646.95 397.149 1636.21 401.625 1623.67 401.625L1487 381.5ZM1518.69 311.312L1592.18 331.557V70.0684H1518.69V311.312ZM1694.37 414.5V344.432H1715.36V70.0684H1694.37V0H1897.25C1909.78 0 1920.52 4.47592 1929.47 13.4278C1938.43 22.3796 1942.9 33.1218 1942.9 45.6543L1942.58 315.473C1942.58 324.262 1940.22 332.318 1935.5 339.643C1930.78 346.967 1924.43 352.419 1916.46 356L1924.52 406.5H1946V476.568L1863.39 452.599L1838 334.198L1792.27 331V369.833H1813.26V439.901L1694.37 414.5ZM1792.27 252L1863.39 272.5L1865.75 70.0684H1792.27V252Z" fill="black"/>
</svg>
