<svg width="24" height="24" viewBox="0 0 24 24" fill="none" xmlns="http://www.w3.org/2000/svg">
<path d="M9.38265 6.97966C12.8612 7.07415 15.5388 7.47474 18.0229 8.73475C18.3739 8.91473 18.7969 9.17124 18.9364 9.49526C19.0669 9.79677 18.9904 10.4268 18.7699 10.5843C18.4594 10.8093 17.8338 10.9173 17.5098 10.7508C14.9538 9.4277 12.2312 9.00469 9.40965 9.1172C8.28013 9.16221 7.1461 9.3737 6.03456 9.58971C5.31003 9.7337 4.71152 9.65271 4.50003 8.90568C4.27052 8.11366 4.83303 7.70865 5.50805 7.58264C7.02457 7.31266 8.55912 7.10564 9.38263 6.97963L9.38265 6.97966ZM9.9002 10.4088C12.3753 10.5573 14.7108 11.0658 16.8438 12.2809C17.1948 12.4789 17.5638 12.9604 17.5998 13.3384C17.6584 14.0134 16.8843 14.2429 16.0833 13.8154C13.3157 12.3439 10.3862 12.0154 7.33062 12.5329C6.98861 12.5914 6.6286 12.7984 6.31808 12.7354C5.92209 12.6499 5.56658 12.3619 5.19308 12.1639C5.42708 11.8084 5.60259 11.2098 5.9086 11.1333C7.21362 10.8093 8.56366 10.6383 9.90017 10.4088H9.9002ZM9.44121 13.8469C12.0243 13.8874 13.9324 14.2834 15.6829 15.2734C16.1374 15.5299 16.6729 15.8719 16.2319 16.4254C16.0564 16.6459 15.3409 16.6729 15.0259 16.5019C12.7668 15.2959 10.3728 15.1474 7.90672 15.4579C7.49721 15.5074 7.08768 15.6919 6.69619 15.6514C6.32266 15.6109 5.97167 15.3589 5.61164 15.2014C5.85914 14.8999 6.06616 14.3914 6.36765 14.3284C7.56469 14.0629 8.79321 13.9414 9.44121 13.8469ZM23.0044 11.5023C23.0044 14.6749 21.8794 17.3885 19.6339 19.634C17.3883 21.8795 14.6793 23.0046 11.5022 23.0046C8.32964 23.0046 5.61607 21.8795 3.37056 19.634C1.12505 17.3885 0 14.6794 0 11.5023C0 8.32978 1.12502 5.61619 3.37056 3.37068C5.6206 1.12512 8.32966 0.00012207 11.5022 0.00012207C14.6748 0.00012207 17.3884 1.12515 19.6339 3.37068C21.8794 5.61623 23.0044 8.32978 23.0044 11.5023ZM21.5645 11.5023C21.5645 8.71678 20.5835 6.34525 18.6215 4.38324C16.664 2.42119 14.2879 1.44018 11.5024 1.44018C8.72129 1.44018 6.34524 2.42121 4.38321 4.38322C2.42118 6.34522 1.44017 8.71678 1.44017 11.5023C1.44017 14.2879 2.4212 16.6684 4.38321 18.644C6.34526 20.6196 8.71677 21.6096 11.5023 21.6096C14.2879 21.6096 16.6595 20.6196 18.6215 18.644C20.5835 16.6684 21.5645 14.2879 21.5645 11.5023Z" fill="black"/>
</svg>
