<svg width="24" height="24" viewBox="0 0 24 24" fill="none" xmlns="http://www.w3.org/2000/svg">
<g clip-path="url(#clip0_101_2)">
<path d="M15.5554 8.12588C15.5685 8.12529 15.5815 8.125 15.5946 8.125C15.9747 8.125 16.393 8.28779 16.6546 8.67783C16.9058 9.05237 16.9133 9.48656 16.8193 9.85309L15.4654 15.7688L15.465 15.7707C15.3856 16.1216 15.1767 16.572 14.6815 16.7792C14.2078 16.9774 13.7524 16.8319 13.4606 16.6811C13.4286 16.6645 13.3978 16.6461 13.3681 16.6258L10 14L7.08217 13.3423C6.90495 13.2935 6.68851 13.2079 6.5017 13.0468C6.29596 12.8694 6.08405 12.5521 6.13148 12.1316C6.17382 11.7564 6.40264 11.5108 6.56089 11.3818C6.73011 11.2439 6.92739 11.1476 7.1167 11.0776L7.12571 11.0743L15.0744 8.23192C15.228 8.16877 15.391 8.13325 15.5554 8.12588Z" stroke="black" stroke-width="1.75" stroke-miterlimit="2.3662" stroke-linecap="round" stroke-linejoin="round"/>
<path d="M12 23C18.0751 23 23 18.0751 23 12C23 5.92487 18.0751 1 12 1C5.92487 1 1 5.92487 1 12C1 18.0751 5.92487 23 12 23Z" stroke="black" stroke-width="2"/>
<path d="M13.5442 10.7244L10.1421 14.9317L8.81006 13.3442L13.5442 10.7244Z" fill="black"/>
</g>
<defs>
<clipPath id="clip0_101_2">
<rect width="24" height="24" fill="white"/>
</clipPath>
</defs>
</svg>
