<svg width="24" height="24" viewBox="0 0 24 24" fill="none" xmlns="http://www.w3.org/2000/svg">
<path d="M15.5946 8.125C15.5815 8.125 15.5685 8.12529 15.5554 8.12588C15.391 8.13325 15.228 8.16877 15.0744 8.23192L7.12569 11.0743L7.12567 11.0742L7.11668 11.0776C6.92737 11.1476 6.73009 11.2439 6.56087 11.3818C6.40262 11.5108 6.1738 11.7564 6.13146 12.1316C6.08403 12.5521 6.29594 12.8694 6.50168 13.0468C6.68849 13.2079 6.90493 13.2935 7.08215 13.3423L9.06222 13.9228C9.19285 13.9622 9.32961 13.974 9.46384 13.9585C9.56053 13.9473 9.65616 13.9218 9.74715 13.8821C9.76713 13.9505 9.79463 14.0164 9.82898 14.0784C9.90482 14.2154 10.0104 14.3276 10.1323 14.4103L13.3681 16.6258C13.3978 16.6461 13.4286 16.6645 13.4606 16.6811C13.7524 16.8319 14.2078 16.9774 14.6815 16.7792C15.1767 16.572 15.3856 16.1216 15.465 15.7707C15.4651 15.7701 15.4653 15.7694 15.4654 15.7688L16.8193 9.85309C16.9133 9.48656 16.9058 9.05237 16.6546 8.67783C16.393 8.28779 15.9747 8.125 15.5946 8.125ZM7.53406 11.651C7.53414 11.651 7.53608 11.6516 7.53963 11.653C7.53575 11.6518 7.53397 11.6511 7.53406 11.651Z" stroke="black" stroke-width="1.75" stroke-linecap="round" stroke-linejoin="round"/>
<circle cx="12" cy="12" r="11" stroke="black" stroke-width="2"/>
</svg>
